SplineFontDB: 1.0
FontName: ScidbSymbolT1
FullName: Scidb Symbol T1
FamilyName: Scidb Symbol T1
Weight: Book
Copyright: 
Version: 1.0
ItalicAngle: 0
UnderlinePosition: 0
UnderlineWidth: 0
Ascent: 3276
Descent: 820
Order2: 1
XUID: [1021 973 2061925148 12951315]
FSType: 0
OS2Version: 0
OS2_WeightWidthSlopeOnly: 0
OS2_UseTypoMetrics: 0
CreationTime: 1236613799
ModificationTime: 1250956514
PfmFamily: 17
TTFWeight: 400
TTFWidth: 5
LineGap: -162
VLineGap: 0
Panose: 2 11 6 3 5 3 2 2 2 4
OS2TypoAscent: 3362
OS2TypoAOffset: 1
OS2TypoDescent: -896
OS2TypoDOffset: 1
OS2TypoLinegap: 0
OS2WinAscent: 0
OS2WinAOffset: 1
OS2WinDescent: 0
OS2WinDOffset: 1
HheadAscent: 0
HheadAOffset: 1
HheadDescent: 0
HheadDOffset: 1
OS2SubXSize: 0
OS2SubYSize: 0
OS2SubXOff: 0
OS2SubYOff: 0
OS2SupXSize: 0
OS2SupYSize: 0
OS2SupXOff: 0
OS2SupYOff: 0
OS2StrikeYSize: 0
OS2StrikeYPos: 0
OS2Vendor: 'PfEd'
ScriptLang: 1
 1 latn 1 dflt 
TableOrder: GSUB 1
	'liga'
TtfTable: prep 4
\,ZLZ
EndTtf
TtfTable: fpgm 354
\,ZL[9=Os-:fst'!KL<m!WRk`!(7j<!!iQ,?X>=o!!+Vn+@U!4YQ8,`\,ZR]\,ZOZ+YC2(""YQa
YQH1@;HP/H+Gq;!8S!]$7NcAQA?Z1_7NcAQA5ZMSAVsVD+KtiE=D8n^!*!&DYWu>1BcsV[<*1<J
5\4)$3\@iA"=tZbYQQ7A;HP0$=Wg0VC11YW"=6M[C11XN=<i]+0E!K4!!OoH+Ktqp:fpRsY^f+\
YWtTZ)^-@I7BjR(=KoS/)^/?e/[tcb/0H'(Bgf0+?m$R\I;'NdYQ8,`\,Zab\,Z^_/[tcd/5%+i
""$rKY^d[s5Zru%+Ktqp;ck7fYeZ-R)i>kC+Ktqp;ck7f\,cSeMAqEt=WjpN-<""k+h.P<MM`@1
,?Z/!!!=QH=KhlR7CWAK:fnqc\,h+)+WIWf,t0%%,9^2/+^%2b\,Zgd92eq]6lR9m=Y0UR
EndTtf
TtfTable: cvt  4
!/Lt+
EndTtf
TtfTable: maxp 32
!!*'"!2fnm!$M=B!!!!"!!!!1z!!!!Oz
EndTtf
LangName: 1033 "" "" "Regular" 
Encoding: UnicodeBmp
UnicodeInterp: none
NameList: Adobe Glyph List
DisplaySize: -24
AntiAlias: 1
FitToEm: 1
WinInfo: 64 16 16
BeginChars: 65536 165
StartChar: .notdef
Encoding: 0 -1 0
AltUni: 0
Width: 1773
GlyphClass: 2
Flags: W
Fore
136 0 m 1,0,-1
 136 2730 l 1,1,-1
 1501 2730 l 1,2,-1
 1501 0 l 1,3,-1
 136 0 l 1,0,-1
272 136 m 1,4,-1
 1365 136 l 1,5,-1
 1365 2594 l 1,6,-1
 272 2594 l 1,7,-1
 272 136 l 1,4,-1
EndSplineSet
EndChar
StartChar: exclam
Encoding: 33 33 2
Width: 1360
GlyphClass: 2
Flags: W
Fore
732 720 m 1,0,1
 722 847 722 847 710.5 962 c 128,-1,2
 699 1077 699 1077 687 1178 c 128,-1,3
 675 1279 675 1279 657 1422 c 128,-1,4
 639 1565 639 1565 615 1749 c 0,5,6
 591 1934 591 1934 573 2081 c 128,-1,7
 555 2228 555 2228 544 2338 c 1,8,9
 544 2366 544 2366 542 2388.5 c 128,-1,10
 540 2411 540 2411 535 2428 c 1,11,12
 540 2507 540 2507 554 2571.5 c 128,-1,13
 568 2636 568 2636 589 2685 c 1,14,15
 634 2782 634 2782 766 2782 c 0,16,17
 984 2782 984 2782 984 2435 c 0,18,19
 984 2376 984 2376 981 2317.5 c 128,-1,20
 978 2259 978 2259 972 2204 c 0,21,22
 966 2148 966 2148 956 2071.5 c 128,-1,23
 946 1995 946 1995 933 1900 c 0,24,25
 920 1803 920 1803 910.5 1727.5 c 128,-1,26
 901 1652 901 1652 896 1597 c 1,27,28
 874 1437 874 1437 846 1217 c 128,-1,29
 818 997 818 997 786 720 c 1,30,-1
 732 720 l 1,0,1
766 392 m 0,31,32
 811 392 811 392 851 376 c 128,-1,33
 891 360 891 360 924 328 c 0,34,35
 992 265 992 265 992 179 c 0,36,37
 992 88 992 88 930 27 c 1,38,39
 899 -1 899 -1 857.5 -16.5 c 128,-1,40
 816 -32 816 -32 766 -32 c 1,41,42
 714 -29 714 -29 673 -13.5 c 128,-1,43
 632 2 632 2 603 31 c 0,44,45
 544 87 544 87 544 179 c 0,46,47
 544 266 544 266 607 328 c 1,48,49
 670 392 670 392 766 392 c 0,31,32
EndSplineSet
EndChar
StartChar: quotedbl
Encoding: 34 34 3
Width: 1671
GlyphClass: 2
Flags: W
Fore
425 1767 m 1,0,1
 424 1777 424 1777 411.5 1860.5 c 128,-1,2
 399 1944 399 1944 374 2102 c 0,3,4
 326 2422 326 2422 288 2603 c 1,5,6
 292 2620 292 2620 294 2634 c 128,-1,7
 296 2648 296 2648 296 2657 c 1,8,9
 343 2782 343 2782 466 2782 c 0,10,11
 557 2782 557 2782 596 2725 c 0,12,13
 616 2696 616 2696 626.5 2661 c 128,-1,14
 637 2626 637 2626 637 2587 c 0,15,16
 637 2460 637 2460 619 2338 c 0,17,18
 610 2276 610 2276 597.5 2203.5 c 128,-1,19
 585 2131 585 2131 568 2048 c 0,20,21
 552 1964 552 1964 539 1893.5 c 128,-1,22
 526 1823 526 1823 517 1767 c 1,23,-1
 425 1767 l 1,0,1
1124 1767 m 1,24,25
 1114 1828 1114 1828 1102.5 1903 c 128,-1,26
 1091 1978 1091 1978 1079 2068 c 0,27,28
 1067 2159 1067 2159 1057 2235 c 128,-1,29
 1047 2311 1047 2311 1037 2371 c 0,30,31
 1028 2431 1028 2431 1017 2489.5 c 128,-1,32
 1006 2548 1006 2548 995 2603 c 1,33,34
 1006 2648 1006 2648 1021 2682.5 c 128,-1,35
 1036 2717 1036 2717 1052 2739 c 1,36,37
 1087 2782 1087 2782 1173 2782 c 0,38,39
 1209 2782 1209 2782 1240 2769.5 c 128,-1,40
 1271 2757 1271 2757 1295 2732 c 0,41,42
 1319 2706 1319 2706 1331.5 2676 c 128,-1,43
 1344 2646 1344 2646 1344 2612 c 0,44,45
 1344 2552 1344 2552 1339 2487 c 128,-1,46
 1334 2422 1334 2422 1325 2354 c 0,47,48
 1316 2284 1316 2284 1303 2213 c 128,-1,49
 1290 2142 1290 2142 1275 2068 c 0,50,51
 1260 1995 1260 1995 1245 1919.5 c 128,-1,52
 1230 1844 1230 1844 1215 1767 c 1,53,-1
 1124 1767 l 1,24,25
EndSplineSet
EndChar
StartChar: numbersign
Encoding: 35 35 4
Width: 2048
GlyphClass: 2
Flags: W
Fore
754 2734 m 1,0,-1
 754 1841 l 1,1,-1
 1294 1841 l 1,2,-1
 1294 2734 l 1,3,-1
 1500 2734 l 1,4,-1
 1500 1841 l 1,5,-1
 1977 1841 l 1,6,-1
 1977 1641 l 1,7,-1
 1500 1641 l 1,8,-1
 1500 1091 l 1,9,-1
 1977 1091 l 1,10,-1
 1977 884 l 1,11,-1
 1500 884 l 1,12,-1
 1500 0 l 1,13,-1
 1294 0 l 1,14,-1
 1294 884 l 1,15,-1
 754 884 l 1,16,-1
 754 0 l 1,17,-1
 548 0 l 1,18,-1
 548 884 l 1,19,-1
 64 884 l 1,20,-1
 64 1091 l 1,21,-1
 548 1091 l 1,22,-1
 548 1641 l 1,23,-1
 64 1641 l 1,24,-1
 64 1841 l 1,25,-1
 548 1841 l 1,26,-1
 548 2734 l 1,27,-1
 754 2734 l 1,0,-1
754 1641 m 1,28,-1
 754 1091 l 1,29,-1
 1294 1091 l 1,30,-1
 1294 1641 l 1,31,-1
 754 1641 l 1,28,-1
EndSplineSet
EndChar
StartChar: dollar
Encoding: 36 36 5
Width: 2048
GlyphClass: 2
Flags: W
Fore
224 2109 m 1,0,1
 230 2359 230 2359 406 2528 c 0,2,3
 495 2612 495 2612 626.5 2660 c 128,-1,4
 758 2708 758 2708 932 2720 c 1,5,-1
 932 2985 l 1,6,-1
 1088 2985 l 1,7,-1
 1088 2719 l 1,8,9
 1223 2702 1223 2702 1324 2682 c 128,-1,10
 1425 2662 1425 2662 1491 2639 c 0,11,12
 1557 2615 1557 2615 1617.5 2582.5 c 128,-1,13
 1678 2550 1678 2550 1732 2510 c 1,14,-1
 1732 2047 l 1,15,-1
 1667 2047 l 1,16,17
 1573 2553 1573 2553 1088 2608 c 1,18,-1
 1088 1601 l 1,19,20
 1262 1507 1262 1507 1391 1421 c 128,-1,21
 1520 1335 1520 1335 1603 1259 c 0,22,23
 1688 1182 1688 1182 1740 1113 c 128,-1,24
 1792 1044 1792 1044 1813 983 c 0,25,26
 1834 923 1834 923 1845 852.5 c 128,-1,27
 1856 782 1856 782 1856 704 c 0,28,29
 1856 618 1856 618 1839 543 c 128,-1,30
 1822 468 1822 468 1789 405 c 0,31,32
 1756 341 1756 341 1710 288 c 128,-1,33
 1664 235 1664 235 1608 193 c 0,34,35
 1552 150 1552 150 1490.5 117.5 c 128,-1,36
 1429 85 1429 85 1363 63 c 0,37,38
 1297 40 1297 40 1228 24 c 128,-1,39
 1159 8 1159 8 1088 0 c 1,40,-1
 1088 -360 l 1,41,-1
 932 -360 l 1,42,-1
 932 0 l 1,43,44
 512 0 512 0 191 208 c 1,45,-1
 191 743 l 1,46,-1
 250 743 l 1,47,48
 313 437 313 437 485 281 c 1,49,50
 658 127 658 127 932 127 c 1,51,-1
 932 1282 l 1,52,53
 831 1338 831 1338 743.5 1392.5 c 128,-1,54
 656 1447 656 1447 584 1499 c 128,-1,55
 512 1551 512 1551 448.5 1616 c 128,-1,56
 385 1681 385 1681 332 1758 c 0,57,58
 224 1914 224 1914 224 2109 c 1,0,1
928 2608 m 1,59,60
 840 2596 840 2596 769 2561.5 c 128,-1,61
 698 2527 698 2527 647 2469 c 0,62,63
 544 2355 544 2355 544 2182 c 0,64,65
 544 2137 544 2137 551.5 2096 c 128,-1,66
 559 2055 559 2055 574 2021 c 0,67,68
 589 1986 589 1986 609.5 1954.5 c 128,-1,69
 630 1923 630 1923 655 1896 c 128,-1,70
 680 1869 680 1869 718.5 1835 c 128,-1,71
 757 1801 757 1801 808 1758 c 1,72,73
 860 1717 860 1717 890.5 1692 c 128,-1,74
 921 1667 921 1667 928 1662 c 1,75,-1
 928 2608 l 1,59,60
1088 1198 m 1,76,-1
 1088 127 l 1,77,78
 1297 157 1297 157 1416 287 c 0,79,80
 1536 416 1536 416 1536 614 c 0,81,82
 1536 807 1536 807 1416 942 c 0,83,84
 1296 1076 1296 1076 1088 1198 c 1,76,-1
EndSplineSet
EndChar
StartChar: percent
Encoding: 37 37 6
Width: 3408
GlyphClass: 2
Flags: W
Fore
611 1879 m 1,0,1
 584 1781 584 1781 568 1699.5 c 128,-1,2
 552 1618 552 1618 546 1555 c 1,3,4
 553 1488 553 1488 571 1435 c 128,-1,5
 589 1382 589 1382 616 1346 c 0,6,7
 671 1273 671 1273 801 1273 c 1,8,9
 886 1280 886 1280 961 1314.5 c 128,-1,10
 1036 1349 1036 1349 1102 1410 c 0,11,12
 1251 1550 1251 1550 1347 1783 c 0,13,14
 1443 2014 1443 2014 1443 2191 c 0,15,16
 1443 2321 1443 2321 1379 2411 c 0,17,18
 1314 2503 1314 2503 1211 2521 c 1,19,20
 972 2521 972 2521 834 2320 c 0,21,22
 765 2219 765 2219 709 2108.5 c 128,-1,23
 653 1998 653 1998 611 1879 c 1,0,1
442 2263 m 0,24,25
 756 2682 756 2682 1124 2682 c 0,26,27
 1527 2682 1527 2682 1563 2309 c 0,28,29
 1567 2275 1567 2275 1569 2248 c 128,-1,30
 1571 2221 1571 2221 1571 2200 c 0,31,32
 1571 1967 1571 1967 1466 1718 c 0,33,34
 1414 1595 1414 1595 1339 1492 c 128,-1,35
 1264 1389 1264 1389 1170 1308 c 0,36,37
 979 1146 979 1146 744 1146 c 0,38,39
 578 1146 578 1146 452 1226 c 0,40,41
 389 1266 389 1266 343.5 1324.5 c 128,-1,42
 298 1383 298 1383 271 1459 c 1,43,44
 257 1525 257 1525 247 1580 c 128,-1,45
 237 1635 237 1635 233 1679 c 1,46,47
 237 1837 237 1837 290 1983.5 c 128,-1,48
 343 2130 343 2130 442 2263 c 0,24,25
2208 732 m 1,49,50
 2182 634 2182 634 2165.5 552.5 c 128,-1,51
 2149 471 2149 471 2143 408 c 1,52,53
 2151 341 2151 341 2168.5 288.5 c 128,-1,54
 2186 236 2186 236 2213 199 c 0,55,56
 2268 127 2268 127 2398 127 c 1,57,58
 2483 133 2483 133 2558.5 167.5 c 128,-1,59
 2634 202 2634 202 2699 263 c 0,60,61
 2848 403 2848 403 2944 636 c 0,62,63
 3040 867 3040 867 3040 1044 c 0,64,65
 3040 1174 3040 1174 2976 1264 c 0,66,67
 2911 1357 2911 1357 2808 1375 c 1,68,69
 2570 1375 2570 1375 2431 1173 c 0,70,71
 2362 1072 2362 1072 2306 961.5 c 128,-1,72
 2250 851 2250 851 2208 732 c 1,49,50
2039 1116 m 0,73,74
 2353 1535 2353 1535 2721 1535 c 0,75,76
 3124 1535 3124 1535 3160 1162 c 0,77,78
 3164 1128 3164 1128 3166 1101 c 128,-1,79
 3168 1074 3168 1074 3168 1053 c 0,80,81
 3168 820 3168 820 3063 571 c 0,82,83
 3011 448 3011 448 2936 345 c 128,-1,84
 2861 242 2861 242 2767 161 c 0,85,86
 2577 0 2577 0 2341 0 c 0,87,88
 2175 0 2175 0 2049 79 c 0,89,90
 1986 119 1986 119 1940.5 177.5 c 128,-1,91
 1895 236 1895 236 1868 313 c 1,92,93
 1854 378 1854 378 1844.5 433 c 128,-1,94
 1835 488 1835 488 1830 532 c 1,95,96
 1835 691 1835 691 1887.5 837 c 128,-1,97
 1940 983 1940 983 2039 1116 c 0,73,74
2426 2782 m 1,98,-1
 2589 2784 l 1,99,-1
 1026 -57 l 1,100,-1
 827 -57 l 1,101,-1
 2426 2782 l 1,98,-1
EndSplineSet
EndChar
StartChar: ampersand
Encoding: 38 38 7
Width: 72
GlyphClass: 2
Flags: W
Fore
39 72 m 0,0,1
 54 72 54 72 65.5 61.5 c 128,-1,2
 77 51 77 51 77 36 c 0,3,4
 77 20 77 20 65.5 10 c 128,-1,5
 54 0 54 0 39 0 c 0,6,7
 23 0 23 0 11.5 10 c 128,-1,8
 0 20 0 20 0 36 c 0,9,10
 0 51 0 51 11.5 61.5 c 128,-1,11
 23 72 23 72 39 72 c 0,0,1
EndSplineSet
EndChar
StartChar: quotesingle
Encoding: 39 39 8
Width: 1360
GlyphClass: 2
Flags: W
Fore
564 1776 m 1,0,1
 562 1785 562 1785 549.5 1869 c 128,-1,2
 537 1953 537 1953 513 2111 c 0,3,4
 464 2430 464 2430 427 2612 c 1,5,6
 430 2629 430 2629 432.5 2642.5 c 128,-1,7
 435 2656 435 2656 435 2666 c 1,8,9
 481 2791 481 2791 605 2791 c 0,10,11
 695 2791 695 2791 735 2733 c 0,12,13
 755 2705 755 2705 765.5 2670 c 128,-1,14
 776 2635 776 2635 776 2595 c 0,15,16
 776 2469 776 2469 758 2346 c 0,17,18
 749 2285 749 2285 736 2212 c 128,-1,19
 723 2139 723 2139 707 2056 c 0,20,21
 690 1972 690 1972 677.5 1902 c 128,-1,22
 665 1832 665 1832 656 1776 c 1,23,-1
 564 1776 l 1,0,1
EndSplineSet
EndChar
StartChar: parenleft
Encoding: 40 40 9
Width: 1360
GlyphClass: 2
Flags: W
Fore
1205 2782 m 1,0,-1
 1272 2718 l 1,1,2
 1196 2657 1196 2657 1127 2593.5 c 128,-1,3
 1058 2530 1058 2530 997 2465 c 0,4,5
 936 2401 936 2401 878 2319 c 128,-1,6
 820 2237 820 2237 766 2140 c 0,7,8
 712 2041 712 2041 667.5 1922 c 128,-1,9
 623 1803 623 1803 588 1663 c 0,10,11
 554 1524 554 1524 534.5 1362.5 c 128,-1,12
 515 1201 515 1201 512 1017 c 1,13,14
 512 885 512 885 527 738.5 c 128,-1,15
 542 592 542 592 572 433 c 0,16,17
 603 274 603 274 658.5 117 c 128,-1,18
 714 -40 714 -40 795 -194 c 128,-1,19
 876 -348 876 -348 987.5 -470 c 128,-1,20
 1099 -592 1099 -592 1239 -680 c 1,21,-1
 1172 -745 l 1,22,23
 935 -603 935 -603 753 -410.5 c 128,-1,24
 571 -218 571 -218 445 23 c 0,25,26
 319 265 319 265 255.5 528 c 128,-1,27
 192 791 192 791 192 1074 c 1,28,29
 196 1240 196 1240 228 1404 c 128,-1,30
 260 1568 260 1568 319 1731 c 0,31,32
 379 1895 379 1895 466 2045.5 c 128,-1,33
 553 2196 553 2196 665 2333 c 1,34,35
 779 2469 779 2469 914 2582 c 128,-1,36
 1049 2695 1049 2695 1205 2782 c 1,0,-1
EndSplineSet
EndChar
StartChar: parenright
Encoding: 41 41 10
Width: 1360
GlyphClass: 2
Flags: W
Fore
120 -655 m 1,0,1
 290 -526 290 -526 416 -380 c 0,2,3
 479 -307 479 -307 532.5 -223 c 128,-1,4
 586 -139 586 -139 628 -45 c 0,5,6
 670 48 670 48 702.5 159 c 128,-1,7
 735 270 735 270 756 396 c 0,8,9
 778 522 778 522 789 670.5 c 128,-1,10
 800 819 800 819 800 988 c 2,11,-1
 800 1078 l 1,12,13
 796 1282 796 1282 778 1459 c 128,-1,14
 760 1636 760 1636 728 1787 c 0,15,16
 696 1937 696 1937 643 2068 c 128,-1,17
 590 2199 590 2199 518 2311 c 0,18,19
 373 2537 373 2537 120 2716 c 1,20,-1
 168 2782 l 1,21,22
 491 2567 491 2567 708 2304 c 1,23,24
 927 2041 927 2041 1039 1708 c 0,25,26
 1095 1540 1095 1540 1123.5 1354 c 128,-1,27
 1152 1168 1152 1168 1152 963 c 1,28,29
 1150 791 1150 791 1119.5 626.5 c 128,-1,30
 1089 462 1089 462 1031 306 c 0,31,32
 974 149 974 149 888.5 5 c 128,-1,33
 803 -139 803 -139 692 -270 c 0,34,35
 468 -534 468 -534 153 -729 c 1,36,-1
 120 -655 l 1,0,1
EndSplineSet
EndChar
StartChar: asterisk
Encoding: 42 42 11
Width: 2048
GlyphClass: 2
Flags: W
Fore
311 1486 m 1,0,1
 304 1497 304 1497 295.5 1520 c 128,-1,2
 287 1543 287 1543 279 1576 c 1,3,4
 285 1615 285 1615 301.5 1645.5 c 128,-1,5
 318 1676 318 1676 345 1696 c 0,6,7
 372 1715 372 1715 404.5 1729.5 c 128,-1,8
 437 1744 437 1744 474 1753 c 0,9,10
 511 1761 511 1761 554.5 1771 c 128,-1,11
 598 1781 598 1781 647 1792 c 0,12,13
 739 1815 739 1815 817 1849 c 128,-1,14
 895 1883 895 1883 959 1928 c 1,15,16
 928 1955 928 1955 890.5 1976.5 c 128,-1,17
 853 1998 853 1998 811 2012 c 1,18,19
 769 2028 769 2028 725.5 2041 c 128,-1,20
 682 2054 682 2054 638 2064 c 0,21,22
 594 2073 594 2073 541.5 2085.5 c 128,-1,23
 489 2098 489 2098 430 2113 c 0,24,25
 279 2152 279 2152 279 2279 c 1,26,27
 282 2308 282 2308 293 2333 c 128,-1,28
 304 2358 304 2358 322 2379 c 0,29,30
 358 2424 358 2424 426 2424 c 1,31,32
 452 2422 452 2422 474 2415 c 128,-1,33
 496 2408 496 2408 513 2397 c 0,34,35
 549 2373 549 2373 611 2302 c 0,36,37
 643 2266 643 2266 666.5 2240 c 128,-1,38
 690 2214 690 2214 705 2199 c 0,39,40
 768 2136 768 2136 840.5 2083.5 c 128,-1,41
 913 2031 913 2031 992 1989 c 1,42,43
 984 2006 984 2006 984 2048 c 0,44,45
 984 2118 984 2118 980.5 2171 c 128,-1,46
 977 2224 977 2224 969 2259 c 0,47,48
 962 2293 962 2293 950 2338 c 128,-1,49
 938 2383 938 2383 922 2439 c 0,50,51
 906 2494 906 2494 898 2539.5 c 128,-1,52
 890 2585 890 2585 890 2619 c 0,53,54
 890 2782 890 2782 1035 2782 c 0,55,56
 1104 2782 1104 2782 1148 2739 c 0,57,58
 1170 2717 1170 2717 1183 2688.5 c 128,-1,59
 1196 2660 1196 2660 1199 2628 c 1,60,61
 1199 2602 1199 2602 1189.5 2557.5 c 128,-1,62
 1180 2513 1180 2513 1162 2451 c 0,63,64
 1143 2390 1143 2390 1129 2340 c 128,-1,65
 1115 2290 1115 2290 1106 2252 c 0,66,67
 1097 2215 1097 2215 1092.5 2168 c 128,-1,68
 1088 2121 1088 2121 1088 2064 c 2,69,-1
 1088 1980 l 1,70,71
 1128 2002 1128 2002 1164 2030 c 128,-1,72
 1200 2058 1200 2058 1231 2091 c 0,73,74
 1263 2125 1263 2125 1300 2165 c 128,-1,75
 1337 2205 1337 2205 1378 2252 c 0,76,77
 1420 2298 1420 2298 1457.5 2333 c 128,-1,78
 1495 2368 1495 2368 1528 2390 c 0,79,80
 1587 2431 1587 2431 1623 2431 c 0,81,82
 1683 2431 1683 2431 1725 2388 c 1,83,84
 1769 2345 1769 2345 1769 2256 c 1,85,86
 1762 2135 1762 2135 1615 2113 c 1,87,88
 1455 2082 1455 2082 1331.5 2035.5 c 128,-1,89
 1208 1989 1208 1989 1121 1928 c 1,90,-1
 1180 1887 l 1,91,92
 1241 1847 1241 1847 1313 1825 c 1,93,94
 1349 1812 1349 1812 1396 1800 c 128,-1,95
 1443 1788 1443 1788 1498 1776 c 0,96,97
 1554 1765 1554 1765 1590.5 1756 c 128,-1,98
 1627 1747 1627 1747 1642 1744 c 1,99,100
 1677 1730 1677 1730 1701.5 1715.5 c 128,-1,101
 1726 1701 1726 1701 1740 1686 c 0,102,103
 1769 1655 1769 1655 1769 1584 c 128,-1,104
 1769 1513 1769 1513 1729 1473 c 0,105,106
 1710 1453 1710 1453 1684 1442.5 c 128,-1,107
 1658 1432 1658 1432 1627 1432 c 1,108,109
 1583 1438 1583 1438 1546.5 1454 c 128,-1,110
 1510 1470 1510 1470 1481 1495 c 0,111,112
 1452 1521 1452 1521 1412.5 1564 c 128,-1,113
 1373 1607 1373 1607 1321 1667 c 0,114,115
 1271 1726 1271 1726 1229 1765.5 c 128,-1,116
 1187 1805 1187 1805 1155 1823 c 1,117,-1
 1088 1855 l 1,118,-1
 1088 1782 l 2,119,120
 1088 1711 1088 1711 1094 1654 c 128,-1,121
 1100 1597 1100 1597 1110 1554 c 0,122,123
 1131 1470 1131 1470 1168 1382 c 0,124,125
 1186 1339 1186 1339 1195.5 1308.5 c 128,-1,126
 1205 1278 1205 1278 1207 1261 c 1,127,128
 1207 1194 1207 1194 1159 1142 c 0,129,130
 1111 1089 1111 1089 1035 1089 c 0,131,132
 1005 1089 1005 1089 978 1098.5 c 128,-1,133
 951 1108 951 1108 928 1126 c 0,134,135
 882 1163 882 1163 882 1237 c 0,136,137
 882 1291 882 1291 921 1416 c 0,138,139
 941 1479 941 1479 955 1527 c 128,-1,140
 969 1575 969 1575 976 1608 c 0,141,142
 984 1640 984 1640 988 1683 c 128,-1,143
 992 1726 992 1726 992 1778 c 0,144,145
 992 1783 992 1783 991 1792.5 c 128,-1,146
 990 1802 990 1802 988 1815 c 0,147,148
 987 1828 987 1828 985.5 1838.5 c 128,-1,149
 984 1849 984 1849 984 1855 c 1,150,151
 761 1716 761 1716 688 1622 c 1,152,153
 645 1574 645 1574 611.5 1539 c 128,-1,154
 578 1504 578 1504 553 1484 c 0,155,156
 529 1465 529 1465 497 1452 c 128,-1,157
 465 1439 465 1439 426 1432 c 1,158,159
 323 1446 323 1446 311 1486 c 1,0,1
EndSplineSet
EndChar
StartChar: plus
Encoding: 43 43 12
Width: 2310
GlyphClass: 2
Flags: W
Fore
1024 1163 m 1,0,-1
 1024 2048 l 1,1,-1
 1294 2048 l 1,2,-1
 1294 1163 l 1,3,-1
 2183 1163 l 1,4,-1
 2183 884 l 1,5,-1
 1294 884 l 1,6,-1
 1294 0 l 1,7,-1
 1024 0 l 1,8,-1
 1024 884 l 1,9,-1
 136 884 l 1,10,-1
 136 1163 l 1,11,-1
 1024 1163 l 1,0,-1
EndSplineSet
EndChar
StartChar: comma
Encoding: 44 44 13
Width: 1024
GlyphClass: 2
Flags: W
Fore
233 235 m 1,0,1
 239 290 239 290 259.5 331 c 128,-1,2
 280 372 280 372 314 396 c 0,3,4
 383 446 383 446 475 446 c 0,5,6
 630 446 630 446 715 326 c 0,7,8
 757 266 757 266 778.5 194 c 128,-1,9
 800 122 800 122 800 41 c 0,10,11
 800 -84 800 -84 735 -207 c 0,12,13
 703 -269 703 -269 660.5 -324 c 128,-1,14
 618 -379 618 -379 567 -428 c 0,15,16
 515 -477 515 -477 459.5 -517 c 128,-1,17
 404 -557 404 -557 345 -586 c 1,18,-1
 304 -495 l 1,19,20
 421 -437 421 -437 530 -312 c 0,21,22
 640 -186 640 -186 640 -67 c 0,23,24
 640 -54 640 -54 636 -42.5 c 128,-1,25
 632 -31 632 -31 624 -21 c 0,26,27
 609 0 609 0 587 0 c 0,28,29
 577 0 577 0 564.5 0 c 128,-1,30
 552 0 552 0 538 0 c 0,31,32
 525 0 525 0 510 0 c 128,-1,33
 495 0 495 0 479 0 c 0,34,35
 361 0 361 0 297 48 c 128,-1,36
 233 96 233 96 225 194 c 1,37,38
 233 219 233 219 233 235 c 1,0,1
EndSplineSet
EndChar
StartChar: hyphen
Encoding: 45 45 14
Width: 2310
GlyphClass: 2
Flags: W
Fore
157 1163 m 1,0,-1
 2168 1163 l 1,1,-1
 2168 884 l 1,2,-1
 157 884 l 1,3,-1
 157 1163 l 1,0,-1
EndSplineSet
EndChar
StartChar: period
Encoding: 46 46 15
Width: 1024
GlyphClass: 2
Flags: W
Fore
524 415 m 0,0,1
 623 415 623 415 695 344 c 0,2,3
 731 309 731 309 749.5 267.5 c 128,-1,4
 768 226 768 226 768 178 c 0,5,6
 768 76 768 76 696 6 c 0,7,8
 623 -64 623 -64 524 -64 c 0,9,10
 428 -64 428 -64 359 7 c 0,11,12
 288 79 288 79 288 178 c 0,13,14
 288 270 288 270 359 342 c 0,15,16
 431 415 431 415 524 415 c 0,0,1
EndSplineSet
EndChar
StartChar: slash
Encoding: 47 47 16
Width: 1135
GlyphClass: 2
Flags: W
Fore
9 -64 m 1,0,-1
 954 2782 l 1,1,-1
 1225 2782 l 1,2,-1
 292 -64 l 1,3,-1
 9 -64 l 1,0,-1
EndSplineSet
EndChar
StartChar: zero
Encoding: 48 48 17
Width: 2048
GlyphClass: 2
Flags: W
Fore
96 1355 m 0,0,1
 96 1518 96 1518 118.5 1682.5 c 128,-1,2
 141 1847 141 1847 186 2011 c 0,3,4
 231 2174 231 2174 307 2311.5 c 128,-1,5
 383 2449 383 2449 488 2560 c 0,6,7
 698 2782 698 2782 1032 2782 c 0,8,9
 1189 2782 1189 2782 1320 2728.5 c 128,-1,10
 1451 2675 1451 2675 1554 2567 c 0,11,12
 1658 2460 1658 2460 1734.5 2327 c 128,-1,13
 1811 2194 1811 2194 1857 2034 c 1,14,15
 1952 1715 1952 1715 1952 1404 c 0,16,17
 1952 1279 1952 1279 1940.5 1154.5 c 128,-1,18
 1929 1030 1929 1030 1906 906 c 0,19,20
 1884 783 1884 783 1845.5 666 c 128,-1,21
 1807 549 1807 549 1754 440 c 0,22,23
 1701 330 1701 330 1628.5 240 c 128,-1,24
 1556 150 1556 150 1464 81 c 0,25,26
 1280 -58 1280 -58 1024 -64 c 1,27,28
 763 -64 763 -64 551 108 c 0,29,30
 338 281 338 281 218 604 c 0,31,32
 96 929 96 929 96 1355 c 0,0,1
512 1355 m 1,33,34
 521 63 521 63 1024 63 c 0,35,36
 1253 63 1253 63 1367 306 c 0,37,38
 1481 550 1481 550 1508 826 c 0,39,40
 1522 963 1522 963 1529 1095.5 c 128,-1,41
 1536 1228 1536 1228 1536 1355 c 0,42,43
 1536 1518 1536 1518 1526 1673 c 128,-1,44
 1516 1828 1516 1828 1495 1971 c 0,45,46
 1453 2263 1453 2263 1339 2458 c 0,47,48
 1225 2655 1225 2655 1024 2655 c 0,49,50
 864 2655 864 2655 749 2508 c 1,51,52
 633 2363 633 2363 573 2072 c 0,53,54
 543 1926 543 1926 527.5 1747 c 128,-1,55
 512 1568 512 1568 512 1355 c 1,33,34
EndSplineSet
EndChar
StartChar: one
Encoding: 49 49 18
Width: 2048
GlyphClass: 2
Flags: W
Fore
471 63 m 1,0,1
 573 63 573 63 648 76 c 128,-1,2
 723 89 723 89 769 115 c 0,3,4
 864 167 864 167 864 357 c 2,5,-1
 864 2288 l 2,6,7
 864 2424 864 2424 731 2424 c 0,8,9
 673 2424 673 2424 572 2385 c 0,10,11
 522 2365 522 2365 492.5 2354 c 128,-1,12
 463 2343 463 2343 455 2342 c 1,13,-1
 455 2401 l 1,14,-1
 1183 2782 l 1,15,-1
 1216 2775 l 1,16,-1
 1216 358 l 2,17,18
 1216 285 1216 285 1223.5 233.5 c 128,-1,19
 1231 182 1231 182 1244 154 c 0,20,21
 1272 97 1272 97 1338 84 c 1,22,23
 1371 76 1371 76 1439 68.5 c 128,-1,24
 1507 61 1507 61 1609 54 c 1,25,-1
 1609 0 l 1,26,-1
 471 0 l 1,27,-1
 471 63 l 1,0,1
EndSplineSet
EndChar
StartChar: two
Encoding: 50 50 19
Width: 2048
GlyphClass: 2
Flags: W
Fore
119 49 m 1,0,1
 175 110 175 110 260 200 c 128,-1,2
 345 290 345 290 457 408 c 0,3,4
 570 525 570 525 664.5 626 c 128,-1,5
 759 727 759 727 834 811 c 0,6,7
 909 894 909 894 976.5 976 c 128,-1,8
 1044 1058 1044 1058 1101 1137 c 0,9,10
 1160 1217 1160 1217 1204 1295 c 128,-1,11
 1248 1373 1248 1373 1278 1448 c 0,12,13
 1327 1572 1327 1572 1351.5 1681.5 c 128,-1,14
 1376 1791 1376 1791 1376 1885 c 0,15,16
 1376 1976 1376 1976 1357 2054.5 c 128,-1,17
 1338 2133 1338 2133 1300 2198 c 0,18,19
 1225 2329 1225 2329 1092 2396 c 0,20,21
 1026 2429 1026 2429 951.5 2446 c 128,-1,22
 877 2463 877 2463 794 2463 c 0,23,24
 591 2463 591 2463 451 2338 c 128,-1,25
 311 2213 311 2213 216 1936 c 1,26,-1
 127 1953 l 1,27,28
 148 2054 148 2054 179 2144 c 128,-1,29
 210 2234 210 2234 249 2311 c 0,30,31
 330 2469 330 2469 439 2573 c 1,32,33
 495 2624 495 2624 557 2663.5 c 128,-1,34
 619 2703 619 2703 688 2730 c 0,35,36
 757 2756 757 2756 833 2769 c 128,-1,37
 909 2782 909 2782 990 2782 c 0,38,39
 1092 2782 1092 2782 1185.5 2757 c 128,-1,40
 1279 2732 1279 2732 1363 2682 c 0,41,42
 1534 2582 1534 2582 1630 2412 c 1,43,44
 1728 2242 1728 2242 1728 2043 c 0,45,46
 1728 1829 1728 1829 1639 1636 c 0,47,48
 1595 1540 1595 1540 1540.5 1452.5 c 128,-1,49
 1486 1365 1486 1365 1423 1287 c 0,50,51
 1295 1129 1295 1129 1089 913 c 1,52,53
 1053 874 1053 874 1004 822.5 c 128,-1,54
 955 771 955 771 893 707 c 0,55,56
 831 642 831 642 770.5 578.5 c 128,-1,57
 710 515 710 515 650 453 c 0,58,59
 590 392 590 392 557.5 357.5 c 128,-1,60
 525 323 525 323 520 319 c 1,61,-1
 1510 319 l 2,62,63
 1639 319 1639 319 1714 367 c 0,64,65
 1790 417 1790 417 1895 594 c 1,66,-1
 1945 566 l 1,67,-1
 1719 0 l 1,68,-1
 119 0 l 1,69,-1
 119 49 l 1,0,1
EndSplineSet
EndChar
StartChar: three
Encoding: 51 51 20
Width: 2048
GlyphClass: 2
Flags: W
Fore
623 1350 m 1,0,-1
 623 1407 l 1,1,2
 956 1508 956 1508 1129 1680.5 c 128,-1,3
 1302 1853 1302 1853 1312 2097 c 1,4,5
 1312 2267 1312 2267 1196 2397 c 0,6,7
 1080 2526 1080 2526 861 2526 c 1,8,9
 467 2518 467 2518 250 2088 c 1,10,-1
 184 2104 l 1,11,12
 389 2772 389 2772 988 2782 c 1,13,14
 1153 2782 1153 2782 1299 2723 c 0,15,16
 1446 2665 1446 2665 1538 2539 c 0,17,18
 1632 2412 1632 2412 1632 2225 c 0,19,20
 1632 1895 1632 1895 1258 1652 c 1,21,22
 1525 1545 1525 1545 1658.5 1353.5 c 128,-1,23
 1792 1162 1792 1162 1792 888 c 0,24,25
 1792 657 1792 657 1694 476 c 0,26,27
 1645 387 1645 387 1578.5 311.5 c 128,-1,28
 1512 236 1512 236 1429 177 c 0,29,30
 1346 117 1346 117 1252 71.5 c 128,-1,31
 1158 26 1158 26 1054 -3 c 0,32,33
 950 -33 950 -33 843.5 -48.5 c 128,-1,34
 737 -64 737 -64 629 -64 c 0,35,36
 257 -64 257 -64 176 172 c 1,37,38
 190 317 190 317 336 317 c 0,39,40
 442 317 442 317 623 192 c 1,41,42
 789 84 789 84 959 84 c 1,43,44
 1071 94 1071 94 1163 142 c 128,-1,45
 1255 190 1255 190 1327 274 c 0,46,47
 1472 442 1472 442 1472 704 c 0,48,49
 1472 791 1472 791 1448.5 877.5 c 128,-1,50
 1425 964 1425 964 1378 1049 c 0,51,52
 1285 1221 1285 1221 1074 1302 c 1,53,54
 1005 1326 1005 1326 916.5 1338 c 128,-1,55
 828 1350 828 1350 721 1350 c 2,56,-1
 623 1350 l 1,0,-1
EndSplineSet
EndChar
StartChar: four
Encoding: 52 52 21
Width: 2048
GlyphClass: 2
Flags: W
Fore
1212 2585 m 1,0,-1
 1212 2345 l 1,1,-1
 217 927 l 1,2,3
 304 927 304 927 380 927 c 128,-1,4
 456 927 456 927 523 927 c 128,-1,5
 590 927 590 927 650 927 c 128,-1,6
 710 927 710 927 766 927 c 128,-1,7
 822 927 822 927 876 927 c 128,-1,8
 930 927 930 927 985 927 c 128,-1,9
 1040 927 1040 927 1097 927 c 128,-1,10
 1154 927 1154 927 1216 927 c 1,11,12
 1216 1103 1216 1103 1216 1310.5 c 128,-1,13
 1216 1518 1216 1518 1216 1736.5 c 128,-1,14
 1216 1955 1216 1955 1216 2173 c 128,-1,15
 1216 2391 1216 2391 1216 2589 c 1,16,-1
 1351 2782 l 1,17,-1
 1536 2782 l 1,18,-1
 1536 927 l 1,19,-1
 1937 927 l 1,20,-1
 1937 671 l 1,21,-1
 1536 671 l 1,22,-1
 1536 0 l 1,23,-1
 1216 0 l 1,24,-1
 1216 671 l 1,25,-1
 49 671 l 1,26,-1
 49 927 l 1,27,-1
 1212 2585 l 1,0,-1
EndSplineSet
EndChar
StartChar: five
Encoding: 53 53 22
Width: 2048
GlyphClass: 2
Flags: W
Fore
1472 816 m 1,0,1
 1472 1000 1472 1000 1389 1153 c 0,2,3
 1347 1230 1347 1230 1287.5 1296.5 c 128,-1,4
 1228 1363 1228 1363 1150 1418 c 0,5,6
 995 1530 995 1530 775 1594 c 0,7,8
 554 1658 554 1658 287 1671 c 0,9,10
 275 1671 275 1671 267.5 1676.5 c 128,-1,11
 260 1682 260 1682 258 1694 c 1,12,13
 259 1699 259 1699 261 1705.5 c 128,-1,14
 263 1712 263 1712 265 1717 c 0,15,16
 270 1732 270 1732 270 1735 c 1,17,-1
 716 2719 l 1,18,-1
 1545 2719 l 2,19,20
 1586 2719 1586 2719 1618 2724.5 c 128,-1,21
 1650 2730 1650 2730 1672 2741 c 0,22,23
 1695 2753 1695 2753 1720 2775 c 128,-1,24
 1745 2797 1745 2797 1772 2829 c 1,25,-1
 1805 2798 l 1,26,-1
 1656 2438 l 1,27,28
 1640 2386 1640 2386 1630 2376 c 0,29,30
 1626 2372 1626 2372 1614.5 2369.5 c 128,-1,31
 1603 2367 1603 2367 1586 2367 c 2,32,-1
 746 2367 l 1,33,-1
 569 2019 l 1,34,35
 710 1995 710 1995 832.5 1967.5 c 128,-1,36
 955 1940 955 1940 1057 1910 c 1,37,38
 1264 1846 1264 1846 1417 1719 c 1,39,40
 1589 1573 1589 1573 1674 1407 c 0,41,42
 1760 1239 1760 1239 1760 1001 c 0,43,44
 1760 995 1760 995 1759.5 984 c 128,-1,45
 1759 973 1759 973 1758 958 c 0,46,47
 1758 943 1758 943 1757 931.5 c 128,-1,48
 1756 920 1756 920 1756 913 c 0,49,50
 1744 612 1744 612 1589 389 c 0,51,52
 1433 165 1433 165 1178 50 c 0,53,54
 922 -64 922 -64 626 -64 c 0,55,56
 534 -64 534 -64 448 -50 c 128,-1,57
 362 -36 362 -36 284 -9 c 0,58,59
 206 17 206 17 166.5 67.5 c 128,-1,60
 127 118 127 118 127 190 c 0,61,62
 127 353 127 353 297 353 c 1,63,64
 336 349 336 349 372 338.5 c 128,-1,65
 408 328 408 328 439 313 c 0,66,67
 471 297 471 297 511 273 c 128,-1,68
 551 249 551 249 599 217 c 0,69,70
 647 186 647 186 688 163 c 128,-1,71
 729 140 729 140 762 125 c 0,72,73
 829 95 829 95 907 95 c 0,74,75
 1144 95 1144 95 1306 283 c 0,76,77
 1469 473 1469 473 1472 816 c 1,0,1
EndSplineSet
EndChar
StartChar: six
Encoding: 54 54 23
Width: 2048
GlyphClass: 2
Flags: W
Fore
145 1398 m 1,0,1
 167 1554 167 1554 216 1695.5 c 128,-1,2
 265 1837 265 1837 341 1962 c 0,3,4
 493 2216 493 2216 726 2401 c 0,5,6
 843 2494 843 2494 972 2566.5 c 128,-1,7
 1101 2639 1101 2639 1242 2691 c 0,8,9
 1525 2796 1525 2796 1826 2815 c 1,10,-1
 1826 2739 l 1,11,12
 1526 2681 1526 2681 1268 2519 c 0,13,14
 1140 2438 1140 2438 1033 2334.5 c 128,-1,15
 926 2231 926 2231 841 2107 c 0,16,17
 671 1858 671 1858 623 1552 c 1,18,19
 721 1621 721 1621 795.5 1664 c 128,-1,20
 870 1707 870 1707 920 1724 c 0,21,22
 1024 1758 1024 1758 1158 1758 c 0,23,24
 1235 1758 1235 1758 1307.5 1744.5 c 128,-1,25
 1380 1731 1380 1731 1449 1704 c 0,26,27
 1589 1649 1589 1649 1694 1541 c 0,28,29
 1800 1431 1800 1431 1860 1270 c 0,30,31
 1920 1107 1920 1107 1920 895 c 1,32,33
 1918 780 1918 780 1896.5 669 c 128,-1,34
 1875 558 1875 558 1834 451 c 0,35,36
 1753 237 1753 237 1552 90 c 0,37,38
 1452 16 1452 16 1320 -22.5 c 128,-1,39
 1188 -61 1188 -61 1024 -64 c 1,40,41
 714 -64 714 -64 515 120 c 0,42,43
 317 305 317 305 228 584 c 0,44,45
 184 723 184 723 158.5 868 c 128,-1,46
 133 1013 133 1013 128 1164 c 1,47,48
 130 1183 130 1183 132 1210.5 c 128,-1,49
 134 1238 134 1238 135 1273 c 0,50,51
 137 1307 137 1307 140 1339 c 128,-1,52
 143 1371 143 1371 145 1398 c 1,0,1
520 906 m 1,53,54
 543 566 543 566 671 321 c 0,55,56
 801 74 801 74 1089 56 c 1,57,58
 1117 65 1117 65 1157 65 c 1,59,60
 1524 126 1524 126 1536 709 c 1,61,62
 1536 812 1536 812 1522 911 c 128,-1,63
 1508 1010 1508 1010 1481 1103 c 0,64,65
 1454 1198 1454 1198 1408 1276 c 128,-1,66
 1362 1354 1362 1354 1299 1414 c 0,67,68
 1236 1473 1236 1473 1153 1504 c 128,-1,69
 1070 1535 1070 1535 968 1535 c 0,70,71
 883 1535 883 1535 798.5 1510 c 128,-1,72
 714 1485 714 1485 629 1436 c 1,73,74
 580 1404 580 1404 550.5 1296.5 c 128,-1,75
 521 1189 521 1189 512 1006 c 1,76,77
 516 986 516 986 518 961 c 128,-1,78
 520 936 520 936 520 906 c 1,53,54
EndSplineSet
EndChar
StartChar: seven
Encoding: 55 55 24
Width: 2048
GlyphClass: 2
Flags: W
Fore
720 -32 m 1,0,-1
 1536 2399 l 1,1,-1
 629 2399 l 2,2,3
 577 2399 577 2399 532 2391.5 c 128,-1,4
 487 2384 487 2384 451 2371 c 1,5,6
 380 2342 380 2342 333 2297 c 0,7,8
 310 2276 310 2276 289.5 2251.5 c 128,-1,9
 269 2227 269 2227 251 2200 c 128,-1,10
 233 2173 233 2173 211.5 2140.5 c 128,-1,11
 190 2108 190 2108 166 2072 c 1,12,-1
 96 2106 l 1,13,14
 109 2139 109 2139 130 2188.5 c 128,-1,15
 151 2238 151 2238 178 2304 c 0,16,17
 206 2370 206 2370 230 2428 c 128,-1,18
 254 2486 254 2486 271 2535 c 1,19,20
 290 2584 290 2584 305.5 2630 c 128,-1,21
 321 2676 321 2676 333 2719 c 1,22,-1
 1856 2719 l 1,23,-1
 1856 2648 l 1,24,-1
 990 -32 l 1,25,-1
 720 -32 l 1,0,-1
EndSplineSet
EndChar
StartChar: eight
Encoding: 56 56 25
Width: 2048
GlyphClass: 2
Flags: W
Fore
233 603 m 1,0,1
 233 685 233 685 249 757.5 c 128,-1,2
 265 830 265 830 295 892 c 0,3,4
 357 1015 357 1015 465 1117 c 0,5,6
 519 1169 519 1169 593.5 1230 c 128,-1,7
 668 1291 668 1291 762 1363 c 1,8,9
 746 1380 746 1380 708.5 1413.5 c 128,-1,10
 671 1447 671 1447 615 1495 c 0,11,12
 558 1545 558 1545 511.5 1590.5 c 128,-1,13
 465 1636 465 1636 430 1676 c 0,14,15
 394 1718 394 1718 363.5 1768.5 c 128,-1,16
 333 1819 333 1819 308 1878 c 128,-1,17
 283 1937 283 1937 270.5 2003.5 c 128,-1,18
 258 2070 258 2070 258 2143 c 0,19,20
 258 2213 258 2213 274 2278 c 128,-1,21
 290 2343 290 2343 320 2403 c 0,22,23
 382 2523 382 2523 489 2608 c 1,24,25
 598 2692 598 2692 731 2738 c 1,26,27
 865 2782 865 2782 1011 2782 c 0,28,29
 1112 2782 1112 2782 1203 2766 c 128,-1,30
 1294 2750 1294 2750 1373 2719 c 0,31,32
 1535 2654 1535 2654 1629 2519 c 0,33,34
 1676 2453 1676 2453 1701 2370.5 c 128,-1,35
 1726 2288 1726 2288 1728 2192 c 1,36,37
 1728 2063 1728 2063 1664 1939 c 1,38,39
 1633 1876 1633 1876 1585.5 1818 c 128,-1,40
 1538 1760 1538 1760 1475 1706 c 0,41,42
 1412 1653 1412 1653 1338 1607 c 128,-1,43
 1264 1561 1264 1561 1178 1522 c 1,44,45
 1228 1484 1228 1484 1282 1441.5 c 128,-1,46
 1336 1399 1336 1399 1391 1355 c 0,47,48
 1502 1269 1502 1269 1599 1166 c 0,49,50
 1647 1115 1647 1115 1687.5 1053.5 c 128,-1,51
 1728 992 1728 992 1759 922 c 0,52,53
 1792 851 1792 851 1808 773 c 128,-1,54
 1824 695 1824 695 1824 609 c 0,55,56
 1823 503 1823 503 1795 411.5 c 128,-1,57
 1767 320 1767 320 1713 244 c 0,58,59
 1606 91 1606 91 1426 13 c 0,60,61
 1245 -64 1245 -64 1032 -64 c 1,62,63
 866 -61 866 -61 726 -18 c 128,-1,64
 586 25 586 25 475 106 c 0,65,66
 251 272 251 272 233 603 c 1,0,1
869 1285 m 1,67,68
 716 1174 716 1174 632.5 1017.5 c 128,-1,69
 549 861 549 861 537 659 c 1,70,71
 547 530 547 530 584 423 c 128,-1,72
 621 316 621 316 684 231 c 1,73,74
 813 63 813 63 1061 63 c 0,75,76
 1258 63 1258 63 1381 195 c 128,-1,77
 1504 327 1504 327 1504 550 c 1,78,79
 1500 669 1500 669 1457 758 c 0,80,81
 1436 801 1436 801 1391.5 853.5 c 128,-1,82
 1347 906 1347 906 1281 967 c 0,83,84
 1214 1028 1214 1028 1111 1107.5 c 128,-1,85
 1008 1187 1008 1187 869 1285 c 1,67,68
1065 1595 m 1,86,87
 1440 1828 1440 1828 1440 2209 c 0,88,89
 1440 2344 1440 2344 1381 2448 c 1,90,91
 1320 2551 1320 2551 1219 2601 c 1,92,93
 1117 2655 1117 2655 992 2655 c 0,94,95
 808 2655 808 2655 691 2542 c 1,96,97
 634 2485 634 2485 601 2410 c 128,-1,98
 568 2335 568 2335 561 2243 c 1,99,100
 572 2138 572 2138 609 2050.5 c 128,-1,101
 646 1963 646 1963 707 1894 c 0,102,103
 831 1755 831 1755 1065 1595 c 1,86,87
EndSplineSet
EndChar
StartChar: nine
Encoding: 57 57 26
Width: 2048
GlyphClass: 2
Flags: W
Fore
244 -8 m 1,0,1
 435 25 435 25 595.5 94.5 c 128,-1,2
 756 164 756 164 885 267 c 0,3,4
 1014 371 1014 371 1112.5 484.5 c 128,-1,5
 1211 598 1211 598 1277 722 c 0,6,7
 1343 845 1343 845 1390 964.5 c 128,-1,8
 1437 1084 1437 1084 1463 1200 c 1,9,-1
 1455 1208 l 1,10,11
 1332 1088 1332 1088 1171 1024 c 0,12,13
 1090 991 1090 991 1015 974.5 c 128,-1,14
 940 958 940 958 872 958 c 1,15,16
 540 965 540 965 340 1182 c 128,-1,17
 140 1399 140 1399 128 1780 c 1,18,19
 128 2049 128 2049 235 2279 c 0,20,21
 289 2393 289 2393 365.5 2485.5 c 128,-1,22
 442 2578 442 2578 540 2646 c 0,23,24
 737 2782 737 2782 991 2782 c 0,25,26
 1099 2782 1099 2782 1196 2756 c 128,-1,27
 1293 2730 1293 2730 1377 2678 c 0,28,29
 1547 2575 1547 2575 1660 2404 c 0,30,31
 1716 2318 1716 2318 1759 2224.5 c 128,-1,32
 1802 2131 1802 2131 1830 2030 c 0,33,34
 1859 1929 1859 1929 1873.5 1829 c 128,-1,35
 1888 1729 1888 1729 1888 1629 c 0,36,37
 1888 1541 1888 1541 1874 1424 c 128,-1,38
 1860 1307 1860 1307 1831 1164 c 1,39,40
 1798 1026 1798 1026 1742.5 899.5 c 128,-1,41
 1687 773 1687 773 1610 659 c 0,42,43
 1534 544 1534 544 1441 445.5 c 128,-1,44
 1348 347 1348 347 1241 265 c 1,45,46
 1133 185 1133 185 1016 121.5 c 128,-1,47
 899 58 899 58 773 14 c 0,48,49
 648 -29 648 -29 517.5 -54.5 c 128,-1,50
 387 -80 387 -80 253 -86 c 1,51,-1
 244 -8 l 1,0,1
1403 1289 m 1,52,53
 1472 1338 1472 1338 1472 1416 c 2,54,-1
 1472 1583 l 2,55,56
 1472 1801 1472 1801 1456.5 1962 c 128,-1,57
 1441 2123 1441 2123 1411 2227 c 1,58,59
 1279 2655 1279 2655 943 2655 c 0,60,61
 736 2655 736 2655 627 2467 c 0,62,63
 573 2374 573 2374 544 2244.5 c 128,-1,64
 515 2115 515 2115 512 1950 c 1,65,66
 516 1925 516 1925 518 1887 c 128,-1,67
 520 1849 520 1849 520 1799 c 1,68,69
 540 1532 540 1532 666 1341 c 0,70,71
 793 1151 793 1151 1035 1151 c 1,72,73
 1139 1158 1139 1158 1231 1193 c 128,-1,74
 1323 1228 1323 1228 1403 1289 c 1,52,53
EndSplineSet
EndChar
StartChar: colon
Encoding: 58 58 27
Width: 1135
GlyphClass: 2
Flags: W
Fore
550 1887 m 0,0,1
 644 1887 644 1887 705 1817 c 1,2,3
 768 1748 768 1748 768 1649 c 0,4,5
 768 1546 768 1546 705 1477 c 0,6,7
 674 1442 674 1442 635 1424.5 c 128,-1,8
 596 1407 596 1407 550 1407 c 0,9,10
 454 1407 454 1407 387 1477 c 1,11,12
 320 1551 320 1551 320 1649 c 0,13,14
 320 1697 320 1697 336.5 1739 c 128,-1,15
 353 1781 353 1781 386 1816 c 0,16,17
 453 1887 453 1887 550 1887 c 0,0,1
550 415 m 0,18,19
 641 415 641 415 704 344 c 0,20,21
 768 274 768 274 768 178 c 0,22,23
 768 75 768 75 705 6 c 0,24,25
 641 -64 641 -64 550 -64 c 0,26,27
 454 -64 454 -64 387 7 c 0,28,29
 320 79 320 79 320 178 c 0,30,31
 320 270 320 270 387 342 c 0,32,33
 454 415 454 415 550 415 c 0,18,19
EndSplineSet
EndChar
StartChar: semicolon
Encoding: 59 59 28
Width: 1135
GlyphClass: 2
Flags: W
Fore
550 1887 m 0,0,1
 644 1887 644 1887 705 1817 c 1,2,3
 768 1748 768 1748 768 1649 c 0,4,5
 768 1546 768 1546 705 1477 c 0,6,7
 674 1442 674 1442 635 1424.5 c 128,-1,8
 596 1407 596 1407 550 1407 c 0,9,10
 454 1407 454 1407 387 1477 c 1,11,12
 320 1551 320 1551 320 1649 c 0,13,14
 320 1697 320 1697 336.5 1739 c 128,-1,15
 353 1781 353 1781 386 1816 c 0,16,17
 453 1887 453 1887 550 1887 c 0,0,1
320 227 m 1,18,19
 326 276 326 276 346 314 c 128,-1,20
 366 352 366 352 400 376 c 0,21,22
 435 400 435 400 474.5 412.5 c 128,-1,23
 514 425 514 425 558 425 c 1,24,25
 706 412 706 412 794 301 c 0,26,27
 883 189 883 189 883 40 c 0,28,29
 883 -82 883 -82 818 -208 c 0,30,31
 785 -271 785 -271 742.5 -327.5 c 128,-1,32
 700 -384 700 -384 647 -433 c 0,33,34
 542 -532 542 -532 428 -578 c 1,35,-1
 392 -495 l 1,36,37
 455 -462 455 -462 512 -413.5 c 128,-1,38
 569 -365 569 -365 620 -301 c 0,39,40
 671 -236 671 -236 697 -171 c 128,-1,41
 723 -106 723 -106 723 -42 c 0,42,43
 723 0 723 0 667 0 c 0,44,45
 658 0 658 0 647 0 c 128,-1,46
 636 0 636 0 624 0 c 128,-1,47
 612 0 612 0 599 0 c 128,-1,48
 586 0 586 0 574 0 c 0,49,50
 320 7 320 7 320 227 c 1,18,19
EndSplineSet
EndChar
StartChar: less
Encoding: 60 60 29
Width: 2310
GlyphClass: 2
Flags: W
Fore
93 1129 m 1,0,-1
 2211 2071 l 1,1,-1
 2211 1846 l 1,2,-1
 401 1040 l 1,3,-1
 2211 235 l 1,4,-1
 2211 8 l 1,5,-1
 93 952 l 1,6,-1
 93 1129 l 1,0,-1
EndSplineSet
EndChar
StartChar: equal
Encoding: 61 61 30
Width: 2310
GlyphClass: 2
Flags: W
Fore
136 1570 m 1,0,-1
 2211 1570 l 1,1,-1
 2211 1298 l 1,2,-1
 136 1298 l 1,3,-1
 136 1570 l 1,0,-1
136 748 m 1,4,-1
 2211 748 l 1,5,-1
 2211 477 l 1,6,-1
 136 477 l 1,7,-1
 136 748 l 1,4,-1
EndSplineSet
EndChar
StartChar: greater
Encoding: 62 62 31
Width: 2310
GlyphClass: 2
Flags: W
Fore
2211 1129 m 1,0,-1
 2211 952 l 1,1,-1
 93 9 l 1,2,-1
 93 235 l 1,3,-1
 1903 1040 l 1,4,-1
 93 1846 l 1,5,-1
 94 2072 l 1,6,-1
 2211 1129 l 1,0,-1
EndSplineSet
EndChar
StartChar: question
Encoding: 63 63 32
Width: 1815
GlyphClass: 2
Flags: W
Fore
945 686 m 1,0,1
 953 884 953 884 1001 1042 c 0,2,3
 1025 1120 1025 1120 1064.5 1231.5 c 128,-1,4
 1104 1343 1104 1343 1156 1486 c 0,5,6
 1209 1630 1209 1630 1244 1743.5 c 128,-1,7
 1279 1857 1279 1857 1295 1939 c 1,8,9
 1303 1997 1303 1997 1307.5 2045.5 c 128,-1,10
 1312 2094 1312 2094 1312 2132 c 0,11,12
 1312 2304 1312 2304 1246 2421 c 0,13,14
 1213 2479 1213 2479 1171 2523.5 c 128,-1,15
 1129 2568 1129 2568 1079 2596 c 0,16,17
 1029 2625 1029 2625 975.5 2640 c 128,-1,18
 922 2655 922 2655 868 2655 c 0,19,20
 799 2655 799 2655 733 2636.5 c 128,-1,21
 667 2618 667 2618 605 2582 c 0,22,23
 480 2509 480 2509 480 2401 c 0,24,25
 480 2363 480 2363 499 2331 c 1,26,27
 520 2300 520 2300 560 2256 c 0,28,29
 581 2234 581 2234 596.5 2214 c 128,-1,30
 612 2194 612 2194 622 2177 c 0,31,32
 633 2161 633 2161 638.5 2141 c 128,-1,33
 644 2121 644 2121 644 2098 c 0,34,35
 644 2016 644 2016 602 1987 c 0,36,37
 561 1957 561 1957 463 1930 c 1,38,39
 256 1946 256 1946 256 2184 c 0,40,41
 256 2277 256 2277 281 2358 c 128,-1,42
 306 2439 306 2439 355 2505 c 0,43,44
 405 2571 405 2571 470 2621.5 c 128,-1,45
 535 2672 535 2672 614 2705 c 1,46,47
 773 2775 773 2775 957 2782 c 1,48,49
 1069 2782 1069 2782 1217 2732 c 0,50,51
 1365 2683 1365 2683 1454 2626 c 1,52,53
 1696 2454 1696 2454 1696 2082 c 1,54,55
 1692 2017 1692 2017 1674.5 1951 c 128,-1,56
 1657 1885 1657 1885 1627 1819 c 128,-1,57
 1597 1753 1597 1753 1562 1694.5 c 128,-1,58
 1527 1636 1527 1636 1488 1584 c 0,59,60
 1450 1531 1450 1531 1398.5 1466 c 128,-1,61
 1347 1401 1347 1401 1283 1323 c 0,62,63
 1172 1187 1172 1187 1104.5 1027.5 c 128,-1,64
 1037 868 1037 868 1014 686 c 1,65,-1
 945 686 l 1,0,1
990 415 m 0,66,67
 1082 415 1082 415 1149 349 c 128,-1,68
 1216 283 1216 283 1216 190 c 0,69,70
 1216 100 1216 100 1149 33 c 0,71,72
 1083 -32 1083 -32 990 -32 c 0,73,74
 945 -32 945 -32 906 -15.5 c 128,-1,75
 867 1 867 1 834 34 c 0,76,77
 801 66 801 66 784.5 106 c 128,-1,78
 768 146 768 146 768 190 c 0,79,80
 768 283 768 283 833 349 c 128,-1,81
 898 415 898 415 990 415 c 0,66,67
EndSplineSet
EndChar
StartChar: at
Encoding: 64 64 33
Width: 3408
GlyphClass: 2
Flags: W
Fore
1774 495 m 1,0,1
 1774 430 1774 430 1791 374 c 128,-1,2
 1808 318 1808 318 1835 271.5 c 128,-1,3
 1862 225 1862 225 1896 188.5 c 128,-1,4
 1930 152 1930 152 1964 126 c 1,5,6
 2019 87 2019 87 2099.5 66.5 c 128,-1,7
 2180 46 2180 46 2286 46 c 0,8,9
 2317 46 2317 46 2368 52 c 128,-1,10
 2419 58 2419 58 2490 68 c 1,11,12
 2615 89 2615 89 2691.5 97.5 c 128,-1,13
 2768 106 2768 106 2794 111 c 0,14,15
 2833 118 2833 118 2873.5 116.5 c 128,-1,16
 2914 115 2914 115 2954 107 c 0,17,18
 2970 104 2970 104 2988.5 100.5 c 128,-1,19
 3007 97 3007 97 3025 92.5 c 128,-1,20
 3043 88 3043 88 3059.5 80.5 c 128,-1,21
 3076 73 3076 73 3089 61 c 1,22,-1
 3185 218 l 1,23,24
 3158 232 3158 232 3137.5 241 c 128,-1,25
 3117 250 3117 250 3098 256 c 128,-1,26
 3079 262 3079 262 3058.5 266.5 c 128,-1,27
 3038 271 3038 271 3012 276 c 0,28,29
 2943 288 2943 288 2875 291.5 c 128,-1,30
 2807 295 2807 295 2746 288 c 0,31,32
 2713 284 2713 284 2657 268.5 c 128,-1,33
 2601 253 2601 253 2506 238 c 0,34,35
 2412 223 2412 223 2358 214.5 c 128,-1,36
 2304 206 2304 206 2293 206 c 0,37,38
 2216 206 2216 206 2158 227 c 128,-1,39
 2100 248 2100 248 2053 270 c 0,40,41
 2001 294 2001 294 1944 354.5 c 128,-1,42
 1887 415 1887 415 1838 495 c 1,43,-1
 1774 495 l 1,0,1
1987 492 m 1,44,45
 2003 461 2003 461 2025 438.5 c 128,-1,46
 2047 416 2047 416 2069.5 400 c 128,-1,47
 2092 384 2092 384 2111.5 374 c 128,-1,48
 2131 364 2131 364 2142 358 c 0,49,50
 2164 346 2164 346 2205 340 c 128,-1,51
 2246 334 2246 334 2304 334 c 1,52,53
 2522 366 l 128,-1,54
 2740 398 l 1,55,56
 2797 393 2797 393 2851.5 395 c 128,-1,57
 2906 397 2906 397 2962 392 c 0,58,59
 2998 389 2998 389 3027 385 c 128,-1,60
 3056 381 3056 381 3084 374 c 128,-1,61
 3112 367 3112 367 3142 355.5 c 128,-1,62
 3172 344 3172 344 3211 326 c 0,63,64
 3229 317 3229 317 3245 309.5 c 128,-1,65
 3261 302 3261 302 3276.5 292.5 c 128,-1,66
 3292 283 3292 283 3307.5 269.5 c 128,-1,67
 3323 256 3323 256 3341 236 c 1,68,-1
 3146 -81 l 1,69,70
 3128 -63 3128 -63 3100.5 -49.5 c 128,-1,71
 3073 -36 3073 -36 3044 -26.5 c 128,-1,72
 3015 -17 3015 -17 2987 -12 c 128,-1,73
 2959 -7 2959 -7 2939 -7 c 0,74,75
 2914 -7 2914 -7 2887 -3 c 128,-1,76
 2860 1 2860 1 2826 -3 c 2,77,-1
 2264 -81 l 2,78,79
 2205 -89 2205 -89 2148.5 -84 c 128,-1,80
 2092 -79 2092 -79 2042 -64 c 128,-1,81
 1992 -49 1992 -49 1949 -26 c 128,-1,82
 1906 -3 1906 -3 1874 24 c 0,83,84
 1841 51 1841 51 1815.5 72 c 128,-1,85
 1790 93 1790 93 1769.5 118 c 128,-1,86
 1749 143 1749 143 1732.5 178.5 c 128,-1,87
 1716 214 1716 214 1703 270 c 1,88,89
 1689 214 1689 214 1672.5 177 c 128,-1,90
 1656 140 1656 140 1635.5 113 c 128,-1,91
 1615 86 1615 86 1588.5 65.5 c 128,-1,92
 1562 45 1562 45 1529 20 c 1,93,94
 1494 -4 1494 -4 1451.5 -26 c 128,-1,95
 1409 -48 1409 -48 1360.5 -63 c 128,-1,96
 1312 -78 1312 -78 1256.5 -83.5 c 128,-1,97
 1201 -89 1201 -89 1141 -81 c 2,98,-1
 580 -3 l 2,99,100
 546 1 546 1 519 -3 c 128,-1,101
 492 -7 492 -7 467 -7 c 0,102,103
 446 -7 446 -7 418 -12 c 128,-1,104
 390 -17 390 -17 361 -26.5 c 128,-1,105
 332 -36 332 -36 305 -49.5 c 128,-1,106
 278 -63 278 -63 260 -81 c 1,107,-1
 64 236 l 1,108,109
 83 256 83 256 98.5 269.5 c 128,-1,110
 114 283 114 283 129 292.5 c 128,-1,111
 144 302 144 302 160 309.5 c 128,-1,112
 176 317 176 317 195 326 c 0,113,114
 233 344 233 344 263.5 355.5 c 128,-1,115
 294 367 294 367 322 374 c 128,-1,116
 350 381 350 381 379 385 c 128,-1,117
 408 389 408 389 443 392 c 0,118,119
 500 397 500 397 554.5 395 c 128,-1,120
 609 393 609 393 665 398 c 1,121,122
 883 366 l 128,-1,123
 1101 334 l 1,124,125
 1160 334 1160 334 1201 340 c 128,-1,126
 1242 346 1242 346 1263 358 c 0,127,128
 1274 364 1274 364 1294 374 c 128,-1,129
 1314 384 1314 384 1336.5 400 c 128,-1,130
 1359 416 1359 416 1380.5 438.5 c 128,-1,131
 1402 461 1402 461 1418 492 c 1,132,133
 1350 498 1350 498 1281 509.5 c 128,-1,134
 1212 521 1212 521 1147 535.5 c 128,-1,135
 1082 550 1082 550 1022.5 566 c 128,-1,136
 963 582 963 582 913 598 c 1,137,-1
 1153 1114 l 1,138,139
 1064 1159 1064 1159 1004 1194 c 128,-1,140
 944 1229 944 1229 903 1259.5 c 128,-1,141
 862 1290 862 1290 835.5 1319.5 c 128,-1,142
 809 1349 809 1349 787 1385 c 0,143,144
 758 1432 758 1432 740 1477 c 128,-1,145
 722 1522 722 1522 712 1564 c 128,-1,146
 702 1606 702 1606 699 1644.5 c 128,-1,147
 696 1683 696 1683 697 1717 c 0,148,149
 699 1777 699 1777 713.5 1845 c 128,-1,150
 728 1913 728 1913 762.5 1982 c 128,-1,151
 797 2051 797 2051 855 2117.5 c 128,-1,152
 913 2184 913 2184 1001 2241 c 0,153,154
 1075 2290 1075 2290 1146 2339 c 128,-1,155
 1217 2388 1217 2388 1286.5 2441 c 128,-1,156
 1356 2494 1356 2494 1424 2552.5 c 128,-1,157
 1492 2611 1492 2611 1559 2678 c 1,158,159
 1522 2695 1522 2695 1490.5 2720.5 c 128,-1,160
 1459 2746 1459 2746 1436.5 2777 c 128,-1,161
 1414 2808 1414 2808 1401.5 2844.5 c 128,-1,162
 1389 2881 1389 2881 1389 2920 c 0,163,164
 1389 2976 1389 2976 1413.5 3025.5 c 128,-1,165
 1438 3075 1438 3075 1480.5 3112 c 128,-1,166
 1523 3149 1523 3149 1580.5 3170.5 c 128,-1,167
 1638 3192 1638 3192 1702 3192 c 0,168,169
 1767 3192 1767 3192 1824 3170.5 c 128,-1,170
 1881 3149 1881 3149 1923.5 3112 c 128,-1,171
 1966 3075 1966 3075 1991 3025.5 c 128,-1,172
 2016 2976 2016 2976 2016 2920 c 0,173,174
 2016 2881 2016 2881 2003.5 2844.5 c 128,-1,175
 1991 2808 1991 2808 1968.5 2777 c 128,-1,176
 1946 2746 1946 2746 1914.5 2720.5 c 128,-1,177
 1883 2695 1883 2695 1845 2678 c 1,178,179
 1913 2611 1913 2611 1981 2552.5 c 128,-1,180
 2049 2494 2049 2494 2118.5 2441 c 128,-1,181
 2188 2388 2188 2388 2259 2339 c 128,-1,182
 2330 2290 2330 2290 2404 2241 c 0,183,184
 2492 2184 2492 2184 2550 2117.5 c 128,-1,185
 2608 2051 2608 2051 2642.5 1982 c 128,-1,186
 2677 1913 2677 1913 2691.5 1845 c 128,-1,187
 2706 1777 2706 1777 2708 1717 c 0,188,189
 2709 1683 2709 1683 2706 1644.5 c 128,-1,190
 2703 1606 2703 1606 2693 1564 c 128,-1,191
 2683 1522 2683 1522 2665 1477 c 128,-1,192
 2647 1432 2647 1432 2618 1385 c 0,193,194
 2596 1349 2596 1349 2569.5 1319.5 c 128,-1,195
 2543 1290 2543 1290 2502 1259.5 c 128,-1,196
 2461 1229 2461 1229 2401 1194 c 128,-1,197
 2341 1159 2341 1159 2252 1114 c 1,198,-1
 2492 598 l 1,199,200
 2442 582 2442 582 2383 566 c 128,-1,201
 2324 550 2324 550 2258.5 535.5 c 128,-1,202
 2193 521 2193 521 2124.5 509.5 c 128,-1,203
 2056 498 2056 498 1987 492 c 1,44,45
1632 495 m 1,204,-1
 1568 495 l 1,205,206
 1518 415 1518 415 1461.5 354.5 c 128,-1,207
 1405 294 1405 294 1353 270 c 0,208,209
 1306 248 1306 248 1247.5 227 c 128,-1,210
 1189 206 1189 206 1113 206 c 0,211,212
 1101 206 1101 206 1047 214.5 c 128,-1,213
 993 223 993 223 899 238 c 0,214,215
 804 253 804 253 748.5 268.5 c 128,-1,216
 693 284 693 284 660 288 c 0,217,218
 599 295 599 295 531 291.5 c 128,-1,219
 463 288 463 288 394 276 c 0,220,221
 367 271 367 271 347 266.5 c 128,-1,222
 327 262 327 262 308 256 c 128,-1,223
 289 250 289 250 268.5 241 c 128,-1,224
 248 232 248 232 221 218 c 1,225,-1
 317 61 l 1,226,227
 329 73 329 73 345.5 80.5 c 128,-1,228
 362 88 362 88 380.5 92.5 c 128,-1,229
 399 97 399 97 417 100.5 c 128,-1,230
 435 104 435 104 452 107 c 0,231,232
 492 115 492 115 532.5 116.5 c 128,-1,233
 573 118 573 118 612 111 c 0,234,235
 638 106 638 106 714.5 97.5 c 128,-1,236
 791 89 791 89 915 68 c 1,237,238
 987 58 987 58 1038 52 c 128,-1,239
 1089 46 1089 46 1119 46 c 0,240,241
 1226 46 1226 46 1306.5 66.5 c 128,-1,242
 1387 87 1387 87 1441 126 c 0,243,244
 1475 152 1475 152 1509.5 188.5 c 128,-1,245
 1544 225 1544 225 1571 271.5 c 128,-1,246
 1598 318 1598 318 1615 374 c 128,-1,247
 1632 430 1632 430 1632 495 c 1,204,-1
1625 1756 m 1,248,-1
 1441 1757 l 2,249,250
 1410 1757 1410 1757 1388 1779 c 128,-1,251
 1366 1801 1366 1801 1366 1831 c 2,252,-1
 1366 1832 l 2,253,254
 1366 1862 1366 1862 1388.5 1884 c 128,-1,255
 1411 1906 1411 1906 1441 1906 c 2,256,-1
 1625 1905 l 1,257,-1
 1624 2094 l 1,258,259
 1624 2126 1624 2126 1647 2149 c 128,-1,260
 1670 2172 1670 2172 1702 2172 c 2,261,-1
 1703 2172 l 2,262,263
 1735 2172 1735 2172 1758 2149.5 c 128,-1,264
 1781 2127 1781 2127 1781 2094 c 2,265,-1
 1781 1905 l 1,266,-1
 1968 1906 l 2,267,268
 1998 1906 1998 1906 2020 1884 c 128,-1,269
 2042 1862 2042 1862 2042 1832 c 2,270,-1
 2042 1831 l 2,271,272
 2042 1801 2042 1801 2020 1779 c 128,-1,273
 1998 1757 1998 1757 1968 1757 c 2,274,-1
 1781 1756 l 1,275,-1
 1781 1575 l 2,276,277
 1781 1543 1781 1543 1758 1520 c 128,-1,278
 1735 1497 1735 1497 1703 1497 c 2,279,-1
 1702 1497 l 2,280,281
 1670 1497 1670 1497 1647 1520 c 128,-1,282
 1624 1543 1624 1543 1624 1575 c 1,283,-1
 1625 1756 l 1,248,-1
1702 2784 m 0,284,285
 1735 2784 1735 2784 1763.5 2794.5 c 128,-1,286
 1792 2805 1792 2805 1813.5 2823.5 c 128,-1,287
 1835 2842 1835 2842 1847 2867 c 128,-1,288
 1859 2892 1859 2892 1859 2920 c 128,-1,289
 1859 2948 1859 2948 1847 2973 c 128,-1,290
 1835 2998 1835 2998 1813.5 3016.5 c 128,-1,291
 1792 3035 1792 3035 1763.5 3045.5 c 128,-1,292
 1735 3056 1735 3056 1702 3056 c 0,293,294
 1670 3056 1670 3056 1641.5 3045.5 c 128,-1,295
 1613 3035 1613 3035 1591.5 3016.5 c 128,-1,296
 1570 2998 1570 2998 1557.5 2973 c 128,-1,297
 1545 2948 1545 2948 1545 2920 c 128,-1,298
 1545 2892 1545 2892 1557.5 2867 c 128,-1,299
 1570 2842 1570 2842 1591.5 2823.5 c 128,-1,300
 1613 2805 1613 2805 1641.5 2794.5 c 128,-1,301
 1670 2784 1670 2784 1702 2784 c 0,284,285
2294 683 m 1,302,-1
 2114 1085 l 1,303,304
 1917 1114 1917 1114 1702 1114 c 0,305,306
 1595 1114 1595 1114 1492 1106.5 c 128,-1,307
 1389 1099 1389 1099 1293 1086 c 1,308,-1
 1107 683 l 1,309,310
 1245 652 1245 652 1394.5 629 c 128,-1,311
 1544 606 1544 606 1702 606 c 128,-1,312
 1860 606 1860 606 2009.5 629 c 128,-1,313
 2159 652 2159 652 2294 683 c 1,302,-1
1702 1249 m 0,314,315
 1814 1249 1814 1249 1922 1242 c 128,-1,316
 2030 1235 2030 1235 2132 1220 c 1,317,318
 2189 1238 2189 1238 2240.5 1263 c 128,-1,319
 2292 1288 2292 1288 2334 1317.5 c 128,-1,320
 2376 1347 2376 1347 2409 1378 c 128,-1,321
 2442 1409 2442 1409 2462 1439 c 0,322,323
 2511 1511 2511 1511 2529.5 1582 c 128,-1,324
 2548 1653 2548 1653 2548 1720 c 0,325,326
 2548 1767 2548 1767 2535 1819 c 128,-1,327
 2522 1871 2522 1871 2495 1924.5 c 128,-1,328
 2468 1978 2468 1978 2425 2029 c 128,-1,329
 2382 2080 2382 2080 2322 2124 c 0,330,331
 2254 2173 2254 2173 2179 2226.5 c 128,-1,332
 2104 2280 2104 2280 2024.5 2340 c 128,-1,333
 1945 2400 1945 2400 1863.5 2467.5 c 128,-1,334
 1782 2535 1782 2535 1702 2612 c 1,335,336
 1622 2535 1622 2535 1540.5 2467.5 c 128,-1,337
 1459 2400 1459 2400 1380 2340 c 128,-1,338
 1301 2280 1301 2280 1226 2226.5 c 128,-1,339
 1151 2173 1151 2173 1083 2124 c 0,340,341
 1023 2080 1023 2080 980 2029 c 128,-1,342
 937 1978 937 1978 910 1924.5 c 128,-1,343
 883 1871 883 1871 870 1819 c 128,-1,344
 857 1767 857 1767 857 1720 c 0,345,346
 857 1653 857 1653 875.5 1582 c 128,-1,347
 894 1511 894 1511 943 1439 c 0,348,349
 963 1409 963 1409 996 1378 c 128,-1,350
 1029 1347 1029 1347 1071 1317.5 c 128,-1,351
 1113 1288 1113 1288 1164.5 1263 c 128,-1,352
 1216 1238 1216 1238 1273 1220 c 1,353,354
 1375 1235 1375 1235 1482.5 1242 c 128,-1,355
 1590 1249 1590 1249 1702 1249 c 0,314,315
EndSplineSet
EndChar
StartChar: C
Encoding: 67 67 34
Width: 3863
GlyphClass: 2
Flags: W
Fore
2931 898 m 1,0,-1
 3115 1250 l 1,1,2
 3067 1232 3067 1232 3017.5 1222 c 128,-1,3
 2968 1212 2968 1212 2916 1212 c 0,4,5
 2850 1212 2850 1212 2788.5 1227.5 c 128,-1,6
 2727 1243 2727 1243 2672 1271.5 c 128,-1,7
 2617 1300 2617 1300 2570 1340.5 c 128,-1,8
 2523 1381 2523 1381 2486 1431 c 1,9,10
 2433 1385 2433 1385 2364.5 1357.5 c 128,-1,11
 2296 1330 2296 1330 2219 1330 c 0,12,13
 2127 1330 2127 1330 2047 1370 c 128,-1,14
 1967 1410 1967 1410 1912 1480 c 1,15,16
 1858 1418 1858 1418 1778 1379.5 c 128,-1,17
 1698 1341 1698 1341 1606 1341 c 0,18,19
 1532 1341 1532 1341 1465 1367 c 128,-1,20
 1398 1393 1398 1393 1343 1438 c 1,21,22
 1305 1389 1305 1389 1257.5 1349.5 c 128,-1,23
 1210 1310 1210 1310 1154.5 1282 c 128,-1,24
 1099 1254 1099 1254 1037.5 1238.5 c 128,-1,25
 976 1223 976 1223 910 1223 c 0,26,27
 856 1223 856 1223 805.5 1233 c 128,-1,28
 755 1243 755 1243 708 1260 c 1,29,-1
 900 896 l 1,30,31
 989 920 989 920 1101 939 c 128,-1,32
 1213 958 1213 958 1343.5 971 c 128,-1,33
 1474 984 1474 984 1619.5 991 c 128,-1,34
 1765 998 1765 998 1921 998 c 0,35,36
 2073 998 2073 998 2217 991 c 128,-1,37
 2361 984 2361 984 2490 971 c 128,-1,38
 2619 958 2619 958 2730.5 939.5 c 128,-1,39
 2842 921 2842 921 2931 898 c 1,0,-1
929 745 m 1,40,-1
 954 577 l 1,41,-1
 892 353 l 1,42,43
 977 378 977 378 1088.5 398 c 128,-1,44
 1200 418 1200 418 1331 432.5 c 128,-1,45
 1462 447 1462 447 1610 455 c 128,-1,46
 1758 463 1758 463 1916 463 c 0,47,48
 2072 463 2072 463 2218 455.5 c 128,-1,49
 2364 448 2364 448 2494.5 433.5 c 128,-1,50
 2625 419 2625 419 2736 399 c 128,-1,51
 2847 379 2847 379 2933 354 c 1,52,-1
 2875 575 l 1,53,-1
 2899 747 l 1,54,55
 2810 768 2810 768 2701 785.5 c 128,-1,56
 2592 803 2592 803 2467.5 815 c 128,-1,57
 2343 827 2343 827 2205 833 c 128,-1,58
 2067 839 2067 839 1921 839 c 0,59,60
 1772 839 1772 839 1632 832.5 c 128,-1,61
 1492 826 1492 826 1365.5 814 c 128,-1,62
 1239 802 1239 802 1129 784.5 c 128,-1,63
 1019 767 1019 767 929 745 c 1,40,-1
1913 2774 m 0,64,65
 1856 2774 1856 2774 1806.5 2795.5 c 128,-1,66
 1757 2817 1757 2817 1720 2854 c 128,-1,67
 1683 2891 1683 2891 1661.5 2940.5 c 128,-1,68
 1640 2990 1640 2990 1640 3047 c 0,69,70
 1640 3103 1640 3103 1661.5 3153 c 128,-1,71
 1683 3203 1683 3203 1720 3240 c 128,-1,72
 1757 3277 1757 3277 1806.5 3298.5 c 128,-1,73
 1856 3320 1856 3320 1913 3320 c 0,74,75
 1969 3320 1969 3320 2019 3298.5 c 128,-1,76
 2069 3277 2069 3277 2106 3240 c 128,-1,77
 2143 3203 2143 3203 2164.5 3153 c 128,-1,78
 2186 3103 2186 3103 2186 3047 c 0,79,80
 2186 2990 2186 2990 2164.5 2940.5 c 128,-1,81
 2143 2891 2143 2891 2106 2854 c 128,-1,82
 2069 2817 2069 2817 2019 2795.5 c 128,-1,83
 1969 2774 1969 2774 1913 2774 c 0,64,65
1913 2914 m 0,84,85
 1941 2914 1941 2914 1965 2924.5 c 128,-1,86
 1989 2935 1989 2935 2007 2953 c 128,-1,87
 2025 2971 2025 2971 2035.5 2995.5 c 128,-1,88
 2046 3020 2046 3020 2046 3047 c 128,-1,89
 2046 3074 2046 3074 2035.5 3098.5 c 128,-1,90
 2025 3123 2025 3123 2007 3141 c 128,-1,91
 1989 3159 1989 3159 1965 3169.5 c 128,-1,92
 1941 3180 1941 3180 1913 3180 c 128,-1,93
 1885 3180 1885 3180 1861 3169.5 c 128,-1,94
 1837 3159 1837 3159 1819 3141 c 128,-1,95
 1801 3123 1801 3123 1790.5 3098.5 c 128,-1,96
 1780 3074 1780 3074 1780 3047 c 128,-1,97
 1780 3020 1780 3020 1790.5 2995.5 c 128,-1,98
 1801 2971 1801 2971 1819 2953 c 128,-1,99
 1837 2935 1837 2935 1861 2924.5 c 128,-1,100
 1885 2914 1885 2914 1913 2914 c 0,84,85
2086 1497 m 1,101,-1
 1914 2476 l 1,102,-1
 1744 1510 l 1,103,104
 1759 1519 1759 1519 1773 1530 c 1,105,106
 1794 1570 1794 1570 1830.5 1595.5 c 128,-1,107
 1867 1621 1867 1621 1913 1621 c 0,108,109
 1958 1621 1958 1621 1994.5 1595.5 c 128,-1,110
 2031 1570 2031 1570 2045 1530 c 1,111,112
 2054 1522 2054 1522 2064 1513.5 c 128,-1,113
 2074 1505 2074 1505 2086 1497 c 1,101,-1
2639 1459 m 1,114,-1
 2639 2386 l 1,115,-1
 2309 1479 l 1,116,117
 2327 1486 2327 1486 2343.5 1494.5 c 128,-1,118
 2360 1503 2360 1503 2374 1514 c 1,119,120
 2392 1537 2392 1537 2420.5 1551 c 128,-1,121
 2449 1565 2449 1565 2482 1565 c 0,122,123
 2521 1565 2521 1565 2554.5 1545 c 128,-1,124
 2588 1525 2588 1525 2608 1495 c 0,125,126
 2615 1486 2615 1486 2623 1477.5 c 128,-1,127
 2631 1469 2631 1469 2639 1459 c 1,114,-1
1515 1488 m 1,128,-1
 1186 2386 l 1,129,-1
 1187 1473 l 1,130,131
 1196 1483 1196 1483 1205 1492 c 1,132,133
 1223 1529 1223 1529 1258.5 1552 c 128,-1,134
 1294 1575 1294 1575 1337 1575 c 0,135,136
 1375 1575 1375 1575 1407.5 1557.5 c 128,-1,137
 1440 1540 1440 1540 1461 1512 c 1,138,139
 1475 1506 1475 1506 1488.5 1499.5 c 128,-1,140
 1502 1493 1502 1493 1515 1488 c 1,128,-1
1007 1376 m 1,141,-1
 576 2117 l 1,142,-1
 686 1442 l 1,143,144
 736 1407 736 1407 790.5 1384.5 c 128,-1,145
 845 1362 845 1362 910 1362 c 0,146,147
 961 1362 961 1362 1007 1376 c 1,141,-1
2812 1366 m 1,148,149
 2862 1351 2862 1351 2916 1351 c 0,150,151
 2981 1351 2981 1351 3037 1372 c 128,-1,152
 3093 1393 3093 1393 3142 1428 c 1,153,-1
 3253 2120 l 1,154,-1
 2812 1366 l 1,148,149
3144 97 m 1,155,156
 3095 54 3095 54 2981 18 c 128,-1,157
 2867 -18 2867 -18 2705 -45 c 128,-1,158
 2543 -72 2543 -72 2342 -87.5 c 128,-1,159
 2141 -103 2141 -103 1917 -103 c 0,160,161
 1690 -103 1690 -103 1486 -87 c 128,-1,162
 1282 -71 1282 -71 1119 -43 c 128,-1,163
 956 -15 956 -15 842.5 23 c 128,-1,164
 729 61 729 61 685 106 c 1,165,-1
 811 586 l 1,166,-1
 755 901 l 1,167,-1
 580 1206 l 1,168,-1
 409 2449 l 1,169,-1
 507 2489 l 1,170,-1
 1055 1564 l 1,171,-1
 1066 2663 l 1,172,-1
 1204 2688 l 1,173,-1
 1621 1582 l 1,174,-1
 1844 2771 l 1,175,-1
 1984 2771 l 1,176,-1
 2206 1586 l 1,177,-1
 2621 2688 l 1,178,-1
 2759 2663 l 1,179,-1
 2771 1563 l 1,180,-1
 3321 2491 l 1,181,-1
 3416 2445 l 1,182,-1
 3250 1208 l 1,183,-1
 3072 903 l 1,184,-1
 3015 584 l 1,185,-1
 3144 97 l 1,155,156
2983 170 m 1,186,187
 2898 205 2898 205 2784 233 c 128,-1,188
 2670 261 2670 261 2533.5 281 c 128,-1,189
 2397 301 2397 301 2242.5 312 c 128,-1,190
 2088 323 2088 323 1921 323 c 0,191,192
 1751 323 1751 323 1592.5 311.5 c 128,-1,193
 1434 300 1434 300 1296 279.5 c 128,-1,194
 1158 259 1158 259 1043.5 230.5 c 128,-1,195
 929 202 929 202 847 166 c 1,196,197
 924 135 924 135 1036.5 110 c 128,-1,198
 1149 85 1149 85 1287 66.5 c 128,-1,199
 1425 48 1425 48 1584 38 c 128,-1,200
 1743 28 1743 28 1916 28 c 0,201,202
 2088 28 2088 28 2247.5 38 c 128,-1,203
 2407 48 2407 48 2544.5 67 c 128,-1,204
 2682 86 2682 86 2794 112 c 128,-1,205
 2906 138 2906 138 2983 170 c 1,186,187
1072 2673 m 0,206,207
 1016 2673 1016 2673 966.5 2694.5 c 128,-1,208
 917 2716 917 2716 880 2753 c 128,-1,209
 843 2790 843 2790 821.5 2839.5 c 128,-1,210
 800 2889 800 2889 800 2946 c 0,211,212
 800 3002 800 3002 821.5 3051.5 c 128,-1,213
 843 3101 843 3101 880 3138.5 c 128,-1,214
 917 3176 917 3176 966.5 3197.5 c 128,-1,215
 1016 3219 1016 3219 1072 3219 c 0,216,217
 1129 3219 1129 3219 1178.5 3197.5 c 128,-1,218
 1228 3176 1228 3176 1265 3138.5 c 128,-1,219
 1302 3101 1302 3101 1323.5 3051.5 c 128,-1,220
 1345 3002 1345 3002 1345 2946 c 0,221,222
 1345 2889 1345 2889 1323.5 2839.5 c 128,-1,223
 1302 2790 1302 2790 1265 2753 c 128,-1,224
 1228 2716 1228 2716 1178.5 2694.5 c 128,-1,225
 1129 2673 1129 2673 1072 2673 c 0,206,207
1072 2813 m 0,226,227
 1100 2813 1100 2813 1124 2823.5 c 128,-1,228
 1148 2834 1148 2834 1166 2852 c 128,-1,229
 1184 2870 1184 2870 1194.5 2894 c 128,-1,230
 1205 2918 1205 2918 1205 2946 c 0,231,232
 1205 2973 1205 2973 1194.5 2997.5 c 128,-1,233
 1184 3022 1184 3022 1166 3040 c 128,-1,234
 1148 3058 1148 3058 1124 3068.5 c 128,-1,235
 1100 3079 1100 3079 1072 3079 c 0,236,237
 1045 3079 1045 3079 1021 3068.5 c 128,-1,238
 997 3058 997 3058 979 3040 c 128,-1,239
 961 3022 961 3022 950.5 2997.5 c 128,-1,240
 940 2973 940 2973 940 2946 c 0,241,242
 940 2918 940 2918 950.5 2894 c 128,-1,243
 961 2870 961 2870 979 2852 c 128,-1,244
 997 2834 997 2834 1021 2823.5 c 128,-1,245
 1045 2813 1045 2813 1072 2813 c 0,226,227
2754 2813 m 0,246,247
 2782 2813 2782 2813 2806 2823.5 c 128,-1,248
 2830 2834 2830 2834 2848 2852 c 128,-1,249
 2866 2870 2866 2870 2876.5 2894 c 128,-1,250
 2887 2918 2887 2918 2887 2946 c 0,251,252
 2887 2973 2887 2973 2876.5 2997.5 c 128,-1,253
 2866 3022 2866 3022 2848 3040 c 128,-1,254
 2830 3058 2830 3058 2806 3068.5 c 128,-1,255
 2782 3079 2782 3079 2754 3079 c 128,-1,256
 2726 3079 2726 3079 2702 3068.5 c 128,-1,257
 2678 3058 2678 3058 2660 3040 c 128,-1,258
 2642 3022 2642 3022 2631.5 2997.5 c 128,-1,259
 2621 2973 2621 2973 2621 2946 c 0,260,261
 2621 2918 2621 2918 2631.5 2894 c 128,-1,262
 2642 2870 2642 2870 2660 2852 c 128,-1,263
 2678 2834 2678 2834 2702 2823.5 c 128,-1,264
 2726 2813 2726 2813 2754 2813 c 0,246,247
2754 2673 m 0,265,266
 2697 2673 2697 2673 2647.5 2694.5 c 128,-1,267
 2598 2716 2598 2716 2561 2753 c 128,-1,268
 2524 2790 2524 2790 2502.5 2839.5 c 128,-1,269
 2481 2889 2481 2889 2481 2946 c 0,270,271
 2481 3002 2481 3002 2502.5 3051.5 c 128,-1,272
 2524 3101 2524 3101 2561 3138.5 c 128,-1,273
 2598 3176 2598 3176 2647.5 3197.5 c 128,-1,274
 2697 3219 2697 3219 2754 3219 c 0,275,276
 2810 3219 2810 3219 2860 3197.5 c 128,-1,277
 2910 3176 2910 3176 2947 3138.5 c 128,-1,278
 2984 3101 2984 3101 3005.5 3051.5 c 128,-1,279
 3027 3002 3027 3002 3027 2946 c 0,280,281
 3027 2889 3027 2889 3005.5 2839.5 c 128,-1,282
 2984 2790 2984 2790 2947 2753 c 128,-1,283
 2910 2716 2910 2716 2860 2694.5 c 128,-1,284
 2810 2673 2810 2673 2754 2673 c 0,265,266
338 2454 m 0,285,286
 281 2454 281 2454 231 2475.5 c 128,-1,287
 181 2497 181 2497 144 2534 c 128,-1,288
 107 2571 107 2571 85.5 2620.5 c 128,-1,289
 64 2670 64 2670 64 2726 c 128,-1,290
 64 2782 64 2782 85.5 2832 c 128,-1,291
 107 2882 107 2882 144 2919 c 128,-1,292
 181 2956 181 2956 231 2977.5 c 128,-1,293
 281 2999 281 2999 338 2999 c 0,294,295
 394 2999 394 2999 443.5 2977.5 c 128,-1,296
 493 2956 493 2956 530 2919 c 128,-1,297
 567 2882 567 2882 588.5 2832 c 128,-1,298
 610 2782 610 2782 610 2726 c 128,-1,299
 610 2670 610 2670 588.5 2620.5 c 128,-1,300
 567 2571 567 2571 530 2534 c 128,-1,301
 493 2497 493 2497 443.5 2475.5 c 128,-1,302
 394 2454 394 2454 338 2454 c 0,285,286
338 2594 m 0,303,304
 365 2594 365 2594 389 2604 c 128,-1,305
 413 2614 413 2614 431 2632.5 c 128,-1,306
 449 2651 449 2651 459.5 2675 c 128,-1,307
 470 2699 470 2699 470 2726 c 0,308,309
 470 2754 470 2754 459.5 2778 c 128,-1,310
 449 2802 449 2802 431 2820 c 128,-1,311
 413 2838 413 2838 389 2848.5 c 128,-1,312
 365 2859 365 2859 338 2859 c 0,313,314
 310 2859 310 2859 285.5 2848.5 c 128,-1,315
 261 2838 261 2838 243 2820 c 128,-1,316
 225 2802 225 2802 214.5 2778 c 128,-1,317
 204 2754 204 2754 204 2726 c 0,318,319
 204 2699 204 2699 214.5 2675 c 128,-1,320
 225 2651 225 2651 243 2632.5 c 128,-1,321
 261 2614 261 2614 285.5 2604 c 128,-1,322
 310 2594 310 2594 338 2594 c 0,303,304
3492 2594 m 0,323,324
 3519 2594 3519 2594 3543.5 2604 c 128,-1,325
 3568 2614 3568 2614 3586 2632.5 c 128,-1,326
 3604 2651 3604 2651 3614.5 2675 c 128,-1,327
 3625 2699 3625 2699 3625 2726 c 0,328,329
 3625 2754 3625 2754 3614.5 2778 c 128,-1,330
 3604 2802 3604 2802 3586 2820 c 128,-1,331
 3568 2838 3568 2838 3543.5 2848.5 c 128,-1,332
 3519 2859 3519 2859 3492 2859 c 0,333,334
 3464 2859 3464 2859 3440 2848.5 c 128,-1,335
 3416 2838 3416 2838 3398 2820 c 128,-1,336
 3380 2802 3380 2802 3369.5 2778 c 128,-1,337
 3359 2754 3359 2754 3359 2726 c 0,338,339
 3359 2699 3359 2699 3369.5 2675 c 128,-1,340
 3380 2651 3380 2651 3398 2632.5 c 128,-1,341
 3416 2614 3416 2614 3440 2604 c 128,-1,342
 3464 2594 3464 2594 3492 2594 c 0,323,324
3492 2454 m 0,343,344
 3435 2454 3435 2454 3385.5 2475.5 c 128,-1,345
 3336 2497 3336 2497 3299 2534 c 128,-1,346
 3262 2571 3262 2571 3240.5 2620.5 c 128,-1,347
 3219 2670 3219 2670 3219 2726 c 128,-1,348
 3219 2782 3219 2782 3240.5 2832 c 128,-1,349
 3262 2882 3262 2882 3299 2919 c 128,-1,350
 3336 2956 3336 2956 3385.5 2977.5 c 128,-1,351
 3435 2999 3435 2999 3492 2999 c 0,352,353
 3548 2999 3548 2999 3597.5 2977.5 c 128,-1,354
 3647 2956 3647 2956 3684.5 2919 c 128,-1,355
 3722 2882 3722 2882 3743.5 2832 c 128,-1,356
 3765 2782 3765 2782 3765 2726 c 128,-1,357
 3765 2670 3765 2670 3743.5 2620.5 c 128,-1,358
 3722 2571 3722 2571 3684.5 2534 c 128,-1,359
 3647 2497 3647 2497 3597.5 2475.5 c 128,-1,360
 3548 2454 3548 2454 3492 2454 c 0,343,344
EndSplineSet
EndChar
StartChar: E
Encoding: 69 69 35
Width: 3641
GlyphClass: 2
Flags: W
Fore
1878 1127 m 1,0,1
 2051 1125 2051 1125 2189.5 1117 c 128,-1,2
 2328 1109 2328 1109 2443 1095.5 c 128,-1,3
 2558 1082 2558 1082 2654 1064.5 c 128,-1,4
 2750 1047 2750 1047 2838 1027 c 1,5,6
 2893 1082 2893 1082 2958 1134.5 c 128,-1,7
 3023 1187 3023 1187 3083.5 1234.5 c 128,-1,8
 3144 1282 3144 1282 3194 1324.5 c 128,-1,9
 3244 1367 3244 1367 3270 1402 c 0,10,11
 3317 1465 3317 1465 3341.5 1546 c 128,-1,12
 3366 1627 3366 1627 3366 1725 c 0,13,14
 3366 1905 3366 1905 3280 2024 c 1,15,16
 3126 2250 3126 2250 2811 2250 c 0,17,18
 2623 2250 2623 2250 2426 2170 c 1,19,20
 2338 2136 2338 2136 2271.5 2096.5 c 128,-1,21
 2205 2057 2205 2057 2162 2014 c 0,22,23
 2079 1932 2079 1932 2016.5 1823.5 c 128,-1,24
 1954 1715 1954 1715 1914 1582 c 0,25,26
 1900 1536 1900 1536 1893 1474 c 128,-1,27
 1886 1412 1886 1412 1883 1348.5 c 128,-1,28
 1880 1285 1880 1285 1879.5 1226 c 128,-1,29
 1879 1167 1879 1167 1878 1127 c 1,0,1
1735 1131 m 1,30,31
 1735 1171 1735 1171 1734 1229.5 c 128,-1,32
 1733 1288 1733 1288 1730 1352 c 128,-1,33
 1727 1416 1727 1416 1720 1478 c 128,-1,34
 1713 1540 1713 1540 1699 1586 c 0,35,36
 1660 1719 1660 1719 1597.5 1827.5 c 128,-1,37
 1535 1936 1535 1936 1452 2018 c 0,38,39
 1409 2061 1409 2061 1342 2100.5 c 128,-1,40
 1275 2140 1275 2140 1187 2173 c 1,41,42
 991 2253 991 2253 802 2253 c 0,43,44
 488 2253 488 2253 333 2028 c 1,45,46
 247 1908 247 1908 247 1729 c 0,47,48
 247 1631 247 1631 272 1549.5 c 128,-1,49
 297 1468 297 1468 344 1405 c 0,50,51
 369 1371 369 1371 422 1325 c 128,-1,52
 475 1279 475 1279 537.5 1229 c 128,-1,53
 600 1179 600 1179 663.5 1127.5 c 128,-1,54
 727 1076 727 1076 775 1031 c 1,55,56
 863 1051 863 1051 959.5 1068.5 c 128,-1,57
 1056 1086 1056 1086 1171 1099 c 128,-1,58
 1286 1112 1286 1112 1424.5 1120.5 c 128,-1,59
 1563 1129 1563 1129 1735 1131 c 1,30,31
827 591 m 1,60,-1
 764 362 l 1,61,62
 851 387 851 387 964.5 408 c 128,-1,63
 1078 429 1078 429 1212 443.5 c 128,-1,64
 1346 458 1346 458 1497 466 c 128,-1,65
 1648 474 1648 474 1809 474 c 0,66,67
 1968 474 1968 474 2117.5 466.5 c 128,-1,68
 2267 459 2267 459 2399.5 444.5 c 128,-1,69
 2532 430 2532 430 2645.5 409.5 c 128,-1,70
 2759 389 2759 389 2847 364 c 1,71,-1
 2788 594 l 1,72,-1
 2844 885 l 1,73,74
 2752 909 2752 909 2638.5 928 c 128,-1,75
 2525 947 2525 947 2393.5 960.5 c 128,-1,76
 2262 974 2262 974 2114 981 c 128,-1,77
 1966 988 1966 988 1806 988 c 0,78,79
 1647 988 1647 988 1499.5 981 c 128,-1,80
 1352 974 1352 974 1220.5 961.5 c 128,-1,81
 1089 949 1089 949 975 929.5 c 128,-1,82
 861 910 861 910 768 885 c 1,83,-1
 827 591 l 1,60,-1
1877 2671 m 1,84,-1
 1735 2673 l 1,85,-1
 1735 2933 l 1,86,-1
 1568 2933 l 2,87,88
 1541 2933 1541 2933 1520.5 2953 c 128,-1,89
 1500 2973 1500 2973 1500 3001 c 1,90,-1
 1500 3001 l 1,91,92
 1500 3029 1500 3029 1520.5 3049 c 128,-1,93
 1541 3069 1541 3069 1568 3069 c 2,94,-1
 1735 3069 l 1,95,-1
 1735 3238 l 2,96,97
 1735 3267 1735 3267 1755.5 3288 c 128,-1,98
 1776 3309 1776 3309 1806 3309 c 1,99,-1
 1806 3309 l 1,100,101
 1836 3309 1836 3309 1856.5 3288 c 128,-1,102
 1877 3267 1877 3267 1877 3238 c 2,103,-1
 1877 3069 l 1,104,-1
 2048 3069 l 2,105,106
 2075 3069 2075 3069 2095 3049 c 128,-1,107
 2115 3029 2115 3029 2115 3001 c 1,108,-1
 2115 3001 l 1,109,110
 2115 2973 2115 2973 2095 2953 c 128,-1,111
 2075 2933 2075 2933 2048 2933 c 2,112,-1
 1879 2932 l 1,113,-1
 1877 2671 l 1,84,-1
1807 1632 m 1,114,115
 1812 1649 1812 1649 1817 1668.5 c 128,-1,116
 1822 1688 1822 1688 1831 1711 c 1,117,118
 1840 1745 1840 1745 1851 1777.5 c 128,-1,119
 1862 1810 1862 1810 1876 1843 c 128,-1,120
 1890 1876 1890 1876 1912.5 1921.5 c 128,-1,121
 1935 1967 1935 1967 1961 2023 c 0,122,123
 1977 2058 1977 2058 1995 2108 c 128,-1,124
 2013 2158 2013 2158 2030 2205 c 0,125,126
 2037 2223 2037 2223 2041.5 2245 c 128,-1,127
 2046 2267 2046 2267 2046 2290 c 0,128,129
 2046 2339 2046 2339 2027.5 2382.5 c 128,-1,130
 2009 2426 2009 2426 1976.5 2458 c 128,-1,131
 1944 2490 1944 2490 1900.5 2508.5 c 128,-1,132
 1857 2527 1857 2527 1807 2527 c 0,133,134
 1758 2526 1758 2526 1714 2507 c 128,-1,135
 1670 2488 1670 2488 1637.5 2456 c 128,-1,136
 1605 2424 1605 2424 1586.5 2380.5 c 128,-1,137
 1568 2337 1568 2337 1568 2288 c 0,138,139
 1568 2265 1568 2265 1572.5 2243 c 128,-1,140
 1577 2221 1577 2221 1584 2203 c 0,141,142
 1601 2156 1601 2156 1619 2106 c 128,-1,143
 1637 2056 1637 2056 1653 2021 c 0,144,145
 1679 1965 1679 1965 1701.5 1919.5 c 128,-1,146
 1724 1874 1724 1874 1738 1841 c 0,147,148
 1753 1808 1753 1808 1763.5 1775.5 c 128,-1,149
 1774 1743 1774 1743 1783 1709 c 1,150,151
 1792 1686 1792 1686 1797 1666.5 c 128,-1,152
 1802 1647 1802 1647 1807 1632 c 1,114,115
2898 175 m 1,153,154
 2811 211 2811 211 2694.5 240 c 128,-1,155
 2578 269 2578 269 2439 289 c 128,-1,156
 2300 309 2300 309 2142 320 c 128,-1,157
 1984 331 1984 331 1815 331 c 0,158,159
 1641 331 1641 331 1479.5 319.5 c 128,-1,160
 1318 308 1318 308 1176.5 287.5 c 128,-1,161
 1035 267 1035 267 918.5 237.5 c 128,-1,162
 802 208 802 208 718 172 c 1,163,164
 797 140 797 140 911.5 114 c 128,-1,165
 1026 88 1026 88 1166.5 70 c 128,-1,166
 1307 52 1307 52 1470 41.5 c 128,-1,167
 1633 31 1633 31 1809 31 c 128,-1,168
 1985 31 1985 31 2147.5 41.5 c 128,-1,169
 2310 52 2310 52 2451 70.5 c 128,-1,170
 2592 89 2592 89 2705.5 116 c 128,-1,171
 2819 143 2819 143 2898 175 c 1,153,154
684 598 m 1,172,-1
 619 971 l 1,173,174
 618 972 618 972 616 974 c 128,-1,175
 614 976 614 976 612 979 c 0,176,177
 607 987 607 987 592.5 996 c 128,-1,178
 578 1005 578 1005 556 1018 c 128,-1,179
 534 1031 534 1031 506 1050 c 128,-1,180
 478 1069 478 1069 446 1096 c 0,181,182
 403 1133 403 1133 370 1162 c 128,-1,183
 337 1191 337 1191 310.5 1216.5 c 128,-1,184
 284 1242 284 1242 262.5 1265.5 c 128,-1,185
 241 1289 241 1289 221 1316 c 0,186,187
 192 1357 192 1357 168.5 1400.5 c 128,-1,188
 145 1444 145 1444 127.5 1493.5 c 128,-1,189
 110 1543 110 1543 99 1599.5 c 128,-1,190
 88 1656 88 1656 84 1723 c 0,191,192
 79 1789 79 1789 90.5 1849.5 c 128,-1,193
 102 1910 102 1910 126.5 1966 c 128,-1,194
 151 2022 151 2022 187.5 2075 c 128,-1,195
 224 2128 224 2128 271 2180 c 0,196,197
 321 2236 321 2236 384 2278 c 128,-1,198
 447 2320 447 2320 519 2347 c 128,-1,199
 591 2374 591 2374 670.5 2386 c 128,-1,200
 750 2398 750 2398 832 2395 c 0,201,202
 897 2392 897 2392 971.5 2376.5 c 128,-1,203
 1046 2361 1046 2361 1142 2329 c 0,204,205
 1201 2308 1201 2308 1263 2284 c 128,-1,206
 1325 2260 1325 2260 1383 2235 c 0,207,208
 1395 2230 1395 2230 1410 2221.5 c 128,-1,209
 1425 2213 1425 2213 1439 2204 c 1,210,211
 1434 2224 1434 2224 1431.5 2245 c 128,-1,212
 1429 2266 1429 2266 1429 2288 c 0,213,214
 1429 2365 1429 2365 1458.5 2434 c 128,-1,215
 1488 2503 1488 2503 1539.5 2554 c 128,-1,216
 1591 2605 1591 2605 1659.5 2635 c 128,-1,217
 1728 2665 1728 2665 1806 2665 c 0,218,219
 1884 2666 1884 2666 1952.5 2636.5 c 128,-1,220
 2021 2607 2021 2607 2072 2555.5 c 128,-1,221
 2123 2504 2123 2504 2153 2435.5 c 128,-1,222
 2183 2367 2183 2367 2183 2289 c 0,223,224
 2183 2268 2183 2268 2180.5 2246.5 c 128,-1,225
 2178 2225 2178 2225 2173 2205 c 1,226,227
 2188 2215 2188 2215 2202.5 2223.5 c 128,-1,228
 2217 2232 2217 2232 2229 2237 c 0,229,230
 2287 2261 2287 2261 2349 2285 c 128,-1,231
 2411 2309 2411 2309 2469 2331 c 1,232,233
 2566 2363 2566 2363 2640.5 2378 c 128,-1,234
 2715 2393 2715 2393 2780 2396 c 0,235,236
 2863 2400 2863 2400 2942 2388 c 128,-1,237
 3021 2376 3021 2376 3093 2349 c 128,-1,238
 3165 2322 3165 2322 3228 2280 c 128,-1,239
 3291 2238 3291 2238 3341 2182 c 0,240,241
 3388 2130 3388 2130 3424.5 2076.5 c 128,-1,242
 3461 2023 3461 2023 3485.5 1967 c 128,-1,243
 3510 1911 3510 1911 3521.5 1850.5 c 128,-1,244
 3533 1790 3533 1790 3528 1724 c 0,245,246
 3524 1658 3524 1658 3513 1601.5 c 128,-1,247
 3502 1545 3502 1545 3484.5 1495.5 c 128,-1,248
 3467 1446 3467 1446 3443.5 1402.5 c 128,-1,249
 3420 1359 3420 1359 3391 1318 c 0,250,251
 3371 1291 3371 1291 3349.5 1267.5 c 128,-1,252
 3328 1244 3328 1244 3301.5 1218.5 c 128,-1,253
 3275 1193 3275 1193 3242 1164 c 128,-1,254
 3209 1135 3209 1135 3166 1098 c 0,255,256
 3134 1070 3134 1070 3106 1051.5 c 128,-1,257
 3078 1033 3078 1033 3055.5 1019.5 c 128,-1,258
 3033 1006 3033 1006 3018.5 997.5 c 128,-1,259
 3004 989 3004 989 3000 981 c 0,260,261
 2999 979 2999 979 2997 977 c 128,-1,262
 2995 975 2995 975 2995 973 c 1,263,-1
 2929 597 l 1,264,-1
 3062 102 l 1,265,266
 3013 58 3013 58 2896.5 21 c 128,-1,267
 2780 -16 2780 -16 2614.5 -43.5 c 128,-1,268
 2449 -71 2449 -71 2243.5 -87 c 128,-1,269
 2038 -103 2038 -103 1810 -103 c 0,270,271
 1579 -103 1579 -103 1370.5 -87 c 128,-1,272
 1162 -71 1162 -71 995.5 -42 c 128,-1,273
 829 -13 829 -13 713.5 25.5 c 128,-1,274
 598 64 598 64 553 110 c 1,275,-1
 684 598 l 1,172,-1
EndSplineSet
EndChar
StartChar: L
Encoding: 76 76 36
Width: 3408
GlyphClass: 2
Flags: W
Fore
1774 495 m 1,0,1
 1774 430 1774 430 1791 374 c 128,-1,2
 1808 318 1808 318 1835 271.5 c 128,-1,3
 1862 225 1862 225 1896 188.5 c 128,-1,4
 1930 152 1930 152 1964 126 c 1,5,6
 2019 87 2019 87 2099.5 66.5 c 128,-1,7
 2180 46 2180 46 2286 46 c 0,8,9
 2317 46 2317 46 2368 52 c 128,-1,10
 2419 58 2419 58 2490 68 c 1,11,12
 2615 89 2615 89 2691.5 97.5 c 128,-1,13
 2768 106 2768 106 2794 111 c 0,14,15
 2833 118 2833 118 2873.5 116.5 c 128,-1,16
 2914 115 2914 115 2954 107 c 0,17,18
 2970 104 2970 104 2988.5 100.5 c 128,-1,19
 3007 97 3007 97 3025 92.5 c 128,-1,20
 3043 88 3043 88 3059.5 80.5 c 128,-1,21
 3076 73 3076 73 3089 61 c 1,22,-1
 3185 218 l 1,23,24
 3158 232 3158 232 3137.5 241 c 128,-1,25
 3117 250 3117 250 3098 256 c 128,-1,26
 3079 262 3079 262 3058.5 266.5 c 128,-1,27
 3038 271 3038 271 3012 276 c 0,28,29
 2943 288 2943 288 2875 291.5 c 128,-1,30
 2807 295 2807 295 2746 288 c 0,31,32
 2713 284 2713 284 2657 268.5 c 128,-1,33
 2601 253 2601 253 2506 238 c 0,34,35
 2412 223 2412 223 2358 214.5 c 128,-1,36
 2304 206 2304 206 2293 206 c 0,37,38
 2216 206 2216 206 2158 227 c 128,-1,39
 2100 248 2100 248 2053 270 c 0,40,41
 2001 294 2001 294 1944 354.5 c 128,-1,42
 1887 415 1887 415 1838 495 c 1,43,-1
 1774 495 l 1,0,1
1987 492 m 1,44,45
 2003 461 2003 461 2025 438.5 c 128,-1,46
 2047 416 2047 416 2069.5 400 c 128,-1,47
 2092 384 2092 384 2111.5 374 c 128,-1,48
 2131 364 2131 364 2142 358 c 0,49,50
 2164 346 2164 346 2205 340 c 128,-1,51
 2246 334 2246 334 2304 334 c 1,52,53
 2522 366 l 128,-1,54
 2740 398 l 1,55,56
 2797 393 2797 393 2851.5 395 c 128,-1,57
 2906 397 2906 397 2962 392 c 0,58,59
 2998 389 2998 389 3027 385 c 128,-1,60
 3056 381 3056 381 3084 374 c 128,-1,61
 3112 367 3112 367 3142 355.5 c 128,-1,62
 3172 344 3172 344 3211 326 c 0,63,64
 3229 317 3229 317 3245 309.5 c 128,-1,65
 3261 302 3261 302 3276.5 292.5 c 128,-1,66
 3292 283 3292 283 3307.5 269.5 c 128,-1,67
 3323 256 3323 256 3341 236 c 1,68,-1
 3146 -81 l 1,69,70
 3128 -63 3128 -63 3100.5 -49.5 c 128,-1,71
 3073 -36 3073 -36 3044 -26.5 c 128,-1,72
 3015 -17 3015 -17 2987 -12 c 128,-1,73
 2959 -7 2959 -7 2939 -7 c 0,74,75
 2914 -7 2914 -7 2887 -3 c 128,-1,76
 2860 1 2860 1 2826 -3 c 2,77,-1
 2264 -81 l 2,78,79
 2205 -89 2205 -89 2148.5 -84 c 128,-1,80
 2092 -79 2092 -79 2042 -64 c 128,-1,81
 1992 -49 1992 -49 1949 -26 c 128,-1,82
 1906 -3 1906 -3 1874 24 c 0,83,84
 1841 51 1841 51 1815.5 72 c 128,-1,85
 1790 93 1790 93 1769.5 118 c 128,-1,86
 1749 143 1749 143 1732.5 178.5 c 128,-1,87
 1716 214 1716 214 1703 270 c 1,88,89
 1689 214 1689 214 1672.5 177 c 128,-1,90
 1656 140 1656 140 1635.5 113 c 128,-1,91
 1615 86 1615 86 1588.5 65.5 c 128,-1,92
 1562 45 1562 45 1529 20 c 1,93,94
 1494 -4 1494 -4 1451.5 -26 c 128,-1,95
 1409 -48 1409 -48 1360.5 -63 c 128,-1,96
 1312 -78 1312 -78 1256.5 -83.5 c 128,-1,97
 1201 -89 1201 -89 1141 -81 c 2,98,-1
 580 -3 l 2,99,100
 546 1 546 1 519 -3 c 128,-1,101
 492 -7 492 -7 467 -7 c 0,102,103
 446 -7 446 -7 418 -12 c 128,-1,104
 390 -17 390 -17 361 -26.5 c 128,-1,105
 332 -36 332 -36 305 -49.5 c 128,-1,106
 278 -63 278 -63 260 -81 c 1,107,-1
 64 236 l 1,108,109
 83 256 83 256 98.5 269.5 c 128,-1,110
 114 283 114 283 129 292.5 c 128,-1,111
 144 302 144 302 160 309.5 c 128,-1,112
 176 317 176 317 195 326 c 0,113,114
 233 344 233 344 263.5 355.5 c 128,-1,115
 294 367 294 367 322 374 c 128,-1,116
 350 381 350 381 379 385 c 128,-1,117
 408 389 408 389 443 392 c 0,118,119
 500 397 500 397 554.5 395 c 128,-1,120
 609 393 609 393 665 398 c 1,121,122
 883 366 l 128,-1,123
 1101 334 l 1,124,125
 1160 334 1160 334 1201 340 c 128,-1,126
 1242 346 1242 346 1263 358 c 0,127,128
 1274 364 1274 364 1294 374 c 128,-1,129
 1314 384 1314 384 1336.5 400 c 128,-1,130
 1359 416 1359 416 1380.5 438.5 c 128,-1,131
 1402 461 1402 461 1418 492 c 1,132,133
 1350 498 1350 498 1281 509.5 c 128,-1,134
 1212 521 1212 521 1147 535.5 c 128,-1,135
 1082 550 1082 550 1022.5 566 c 128,-1,136
 963 582 963 582 913 598 c 1,137,-1
 1153 1114 l 1,138,139
 1064 1159 1064 1159 1004 1194 c 128,-1,140
 944 1229 944 1229 903 1259.5 c 128,-1,141
 862 1290 862 1290 835.5 1319.5 c 128,-1,142
 809 1349 809 1349 787 1385 c 0,143,144
 758 1432 758 1432 740 1477 c 128,-1,145
 722 1522 722 1522 712 1564 c 128,-1,146
 702 1606 702 1606 699 1644.5 c 128,-1,147
 696 1683 696 1683 697 1717 c 0,148,149
 699 1777 699 1777 713.5 1845 c 128,-1,150
 728 1913 728 1913 762.5 1982 c 128,-1,151
 797 2051 797 2051 855 2117.5 c 128,-1,152
 913 2184 913 2184 1001 2241 c 0,153,154
 1075 2290 1075 2290 1146 2339 c 128,-1,155
 1217 2388 1217 2388 1286.5 2441 c 128,-1,156
 1356 2494 1356 2494 1424 2552.5 c 128,-1,157
 1492 2611 1492 2611 1559 2678 c 1,158,159
 1522 2695 1522 2695 1490.5 2720.5 c 128,-1,160
 1459 2746 1459 2746 1436.5 2777 c 128,-1,161
 1414 2808 1414 2808 1401.5 2844.5 c 128,-1,162
 1389 2881 1389 2881 1389 2920 c 0,163,164
 1389 2976 1389 2976 1413.5 3025.5 c 128,-1,165
 1438 3075 1438 3075 1480.5 3112 c 128,-1,166
 1523 3149 1523 3149 1580.5 3170.5 c 128,-1,167
 1638 3192 1638 3192 1702 3192 c 0,168,169
 1767 3192 1767 3192 1824 3170.5 c 128,-1,170
 1881 3149 1881 3149 1923.5 3112 c 128,-1,171
 1966 3075 1966 3075 1991 3025.5 c 128,-1,172
 2016 2976 2016 2976 2016 2920 c 0,173,174
 2016 2881 2016 2881 2003.5 2844.5 c 128,-1,175
 1991 2808 1991 2808 1968.5 2777 c 128,-1,176
 1946 2746 1946 2746 1914.5 2720.5 c 128,-1,177
 1883 2695 1883 2695 1845 2678 c 1,178,179
 1913 2611 1913 2611 1981 2552.5 c 128,-1,180
 2049 2494 2049 2494 2118.5 2441 c 128,-1,181
 2188 2388 2188 2388 2259 2339 c 128,-1,182
 2330 2290 2330 2290 2404 2241 c 0,183,184
 2492 2184 2492 2184 2550 2117.5 c 128,-1,185
 2608 2051 2608 2051 2642.5 1982 c 128,-1,186
 2677 1913 2677 1913 2691.5 1845 c 128,-1,187
 2706 1777 2706 1777 2708 1717 c 0,188,189
 2709 1683 2709 1683 2706 1644.5 c 128,-1,190
 2703 1606 2703 1606 2693 1564 c 128,-1,191
 2683 1522 2683 1522 2665 1477 c 128,-1,192
 2647 1432 2647 1432 2618 1385 c 0,193,194
 2596 1349 2596 1349 2569.5 1319.5 c 128,-1,195
 2543 1290 2543 1290 2502 1259.5 c 128,-1,196
 2461 1229 2461 1229 2401 1194 c 128,-1,197
 2341 1159 2341 1159 2252 1114 c 1,198,-1
 2492 598 l 1,199,200
 2442 582 2442 582 2383 566 c 128,-1,201
 2324 550 2324 550 2258.5 535.5 c 128,-1,202
 2193 521 2193 521 2124.5 509.5 c 128,-1,203
 2056 498 2056 498 1987 492 c 1,44,45
1632 495 m 1,204,-1
 1568 495 l 1,205,206
 1518 415 1518 415 1461.5 354.5 c 128,-1,207
 1405 294 1405 294 1353 270 c 0,208,209
 1306 248 1306 248 1247.5 227 c 128,-1,210
 1189 206 1189 206 1113 206 c 0,211,212
 1101 206 1101 206 1047 214.5 c 128,-1,213
 993 223 993 223 899 238 c 0,214,215
 804 253 804 253 748.5 268.5 c 128,-1,216
 693 284 693 284 660 288 c 0,217,218
 599 295 599 295 531 291.5 c 128,-1,219
 463 288 463 288 394 276 c 0,220,221
 367 271 367 271 347 266.5 c 128,-1,222
 327 262 327 262 308 256 c 128,-1,223
 289 250 289 250 268.5 241 c 128,-1,224
 248 232 248 232 221 218 c 1,225,-1
 317 61 l 1,226,227
 329 73 329 73 345.5 80.5 c 128,-1,228
 362 88 362 88 380.5 92.5 c 128,-1,229
 399 97 399 97 417 100.5 c 128,-1,230
 435 104 435 104 452 107 c 0,231,232
 492 115 492 115 532.5 116.5 c 128,-1,233
 573 118 573 118 612 111 c 0,234,235
 638 106 638 106 714.5 97.5 c 128,-1,236
 791 89 791 89 915 68 c 1,237,238
 987 58 987 58 1038 52 c 128,-1,239
 1089 46 1089 46 1119 46 c 0,240,241
 1226 46 1226 46 1306.5 66.5 c 128,-1,242
 1387 87 1387 87 1441 126 c 0,243,244
 1475 152 1475 152 1509.5 188.5 c 128,-1,245
 1544 225 1544 225 1571 271.5 c 128,-1,246
 1598 318 1598 318 1615 374 c 128,-1,247
 1632 430 1632 430 1632 495 c 1,204,-1
1625 1756 m 1,248,-1
 1441 1757 l 2,249,250
 1410 1757 1410 1757 1388 1779 c 128,-1,251
 1366 1801 1366 1801 1366 1831 c 2,252,-1
 1366 1832 l 2,253,254
 1366 1862 1366 1862 1388.5 1884 c 128,-1,255
 1411 1906 1411 1906 1441 1906 c 2,256,-1
 1625 1905 l 1,257,-1
 1624 2094 l 1,258,259
 1624 2126 1624 2126 1647 2149 c 128,-1,260
 1670 2172 1670 2172 1702 2172 c 2,261,-1
 1703 2172 l 2,262,263
 1735 2172 1735 2172 1758 2149.5 c 128,-1,264
 1781 2127 1781 2127 1781 2094 c 2,265,-1
 1781 1905 l 1,266,-1
 1968 1906 l 2,267,268
 1998 1906 1998 1906 2020 1884 c 128,-1,269
 2042 1862 2042 1862 2042 1832 c 2,270,-1
 2042 1831 l 2,271,272
 2042 1801 2042 1801 2020 1779 c 128,-1,273
 1998 1757 1998 1757 1968 1757 c 2,274,-1
 1781 1756 l 1,275,-1
 1781 1575 l 2,276,277
 1781 1543 1781 1543 1758 1520 c 128,-1,278
 1735 1497 1735 1497 1703 1497 c 2,279,-1
 1702 1497 l 2,280,281
 1670 1497 1670 1497 1647 1520 c 128,-1,282
 1624 1543 1624 1543 1624 1575 c 1,283,-1
 1625 1756 l 1,248,-1
1702 2784 m 0,284,285
 1735 2784 1735 2784 1763.5 2794.5 c 128,-1,286
 1792 2805 1792 2805 1813.5 2823.5 c 128,-1,287
 1835 2842 1835 2842 1847 2867 c 128,-1,288
 1859 2892 1859 2892 1859 2920 c 128,-1,289
 1859 2948 1859 2948 1847 2973 c 128,-1,290
 1835 2998 1835 2998 1813.5 3016.5 c 128,-1,291
 1792 3035 1792 3035 1763.5 3045.5 c 128,-1,292
 1735 3056 1735 3056 1702 3056 c 0,293,294
 1670 3056 1670 3056 1641.5 3045.5 c 128,-1,295
 1613 3035 1613 3035 1591.5 3016.5 c 128,-1,296
 1570 2998 1570 2998 1557.5 2973 c 128,-1,297
 1545 2948 1545 2948 1545 2920 c 128,-1,298
 1545 2892 1545 2892 1557.5 2867 c 128,-1,299
 1570 2842 1570 2842 1591.5 2823.5 c 128,-1,300
 1613 2805 1613 2805 1641.5 2794.5 c 128,-1,301
 1670 2784 1670 2784 1702 2784 c 0,284,285
2294 683 m 1,302,-1
 2114 1085 l 1,303,304
 1917 1114 1917 1114 1702 1114 c 0,305,306
 1595 1114 1595 1114 1492 1106.5 c 128,-1,307
 1389 1099 1389 1099 1293 1086 c 1,308,-1
 1107 683 l 1,309,310
 1245 652 1245 652 1394.5 629 c 128,-1,311
 1544 606 1544 606 1702 606 c 128,-1,312
 1860 606 1860 606 2009.5 629 c 128,-1,313
 2159 652 2159 652 2294 683 c 1,302,-1
1702 1249 m 0,314,315
 1814 1249 1814 1249 1922 1242 c 128,-1,316
 2030 1235 2030 1235 2132 1220 c 1,317,318
 2189 1238 2189 1238 2240.5 1263 c 128,-1,319
 2292 1288 2292 1288 2334 1317.5 c 128,-1,320
 2376 1347 2376 1347 2409 1378 c 128,-1,321
 2442 1409 2442 1409 2462 1439 c 0,322,323
 2511 1511 2511 1511 2529.5 1582 c 128,-1,324
 2548 1653 2548 1653 2548 1720 c 0,325,326
 2548 1767 2548 1767 2535 1819 c 128,-1,327
 2522 1871 2522 1871 2495 1924.5 c 128,-1,328
 2468 1978 2468 1978 2425 2029 c 128,-1,329
 2382 2080 2382 2080 2322 2124 c 0,330,331
 2254 2173 2254 2173 2179 2226.5 c 128,-1,332
 2104 2280 2104 2280 2024.5 2340 c 128,-1,333
 1945 2400 1945 2400 1863.5 2467.5 c 128,-1,334
 1782 2535 1782 2535 1702 2612 c 1,335,336
 1622 2535 1622 2535 1540.5 2467.5 c 128,-1,337
 1459 2400 1459 2400 1380 2340 c 128,-1,338
 1301 2280 1301 2280 1226 2226.5 c 128,-1,339
 1151 2173 1151 2173 1083 2124 c 0,340,341
 1023 2080 1023 2080 980 2029 c 128,-1,342
 937 1978 937 1978 910 1924.5 c 128,-1,343
 883 1871 883 1871 870 1819 c 128,-1,344
 857 1767 857 1767 857 1720 c 0,345,346
 857 1653 857 1653 875.5 1582 c 128,-1,347
 894 1511 894 1511 943 1439 c 0,348,349
 963 1409 963 1409 996 1378 c 128,-1,350
 1029 1347 1029 1347 1071 1317.5 c 128,-1,351
 1113 1288 1113 1288 1164.5 1263 c 128,-1,352
 1216 1238 1216 1238 1273 1220 c 1,353,354
 1375 1235 1375 1235 1482.5 1242 c 128,-1,355
 1590 1249 1590 1249 1702 1249 c 0,314,315
EndSplineSet
EndChar
StartChar: M
Encoding: 77 77 37
Width: 3696
GlyphClass: 2
Flags: W
Fore
972 2346 m 0,0,1
 1007 2388 1007 2388 1046 2417.5 c 128,-1,2
 1085 2447 1085 2447 1122 2463 c 128,-1,3
 1159 2479 1159 2479 1191 2479 c 128,-1,4
 1223 2479 1223 2479 1245 2460 c 0,5,6
 1266 2442 1266 2442 1272 2410.5 c 128,-1,7
 1278 2379 1278 2379 1269 2339.5 c 128,-1,8
 1260 2300 1260 2300 1237.5 2256.5 c 128,-1,9
 1215 2213 1215 2213 1180 2172 c 0,10,11
 1145 2130 1145 2130 1106 2100.5 c 128,-1,12
 1067 2071 1067 2071 1030 2055 c 128,-1,13
 993 2039 993 2039 961 2039 c 128,-1,14
 929 2039 929 2039 907 2057 c 0,15,16
 886 2075 886 2075 880 2107 c 128,-1,17
 874 2139 874 2139 883 2178 c 128,-1,18
 892 2217 892 2217 914.5 2260.5 c 128,-1,19
 937 2304 937 2304 972 2346 c 0,0,1
655 1399 m 1,20,21
 622 1382 622 1382 600.5 1354.5 c 128,-1,22
 579 1327 579 1327 571 1295 c 1,23,24
 573 1264 573 1264 551 1240.5 c 128,-1,25
 529 1217 529 1217 495 1214 c 0,26,27
 462 1212 462 1212 436 1231.5 c 128,-1,28
 410 1251 410 1251 408 1282 c 1,29,30
 414 1352 414 1352 451.5 1412.5 c 128,-1,31
 489 1473 489 1473 550 1513 c 0,32,33
 578 1532 578 1532 612 1529.5 c 128,-1,34
 646 1527 646 1527 668 1504 c 0,35,36
 689 1480 689 1480 685.5 1449 c 128,-1,37
 682 1418 682 1418 655 1399 c 1,20,21
1955 2988 m 1,38,39
 2113 2978 2113 2978 2259.5 2936.5 c 128,-1,40
 2406 2895 2406 2895 2538 2826.5 c 128,-1,41
 2670 2758 2670 2758 2785 2665.5 c 128,-1,42
 2900 2573 2900 2573 2994 2462 c 0,43,44
 3060 2384 3060 2384 3123.5 2289 c 128,-1,45
 3187 2194 3187 2194 3243.5 2086 c 128,-1,46
 3300 1978 3300 1978 3348 1860.5 c 128,-1,47
 3396 1743 3396 1743 3430 1620 c 0,48,49
 3470 1477 3470 1477 3494 1324.5 c 128,-1,50
 3518 1172 3518 1172 3530.5 1019 c 128,-1,51
 3543 866 3543 866 3547 717.5 c 128,-1,52
 3551 569 3551 569 3551 435 c 2,53,-1
 3551 0 l 1,54,-1
 3470 0 l 2,55,56
 3388 0 3388 0 3240.5 0 c 128,-1,57
 3093 0 3093 0 2887.5 0 c 128,-1,58
 2682 0 2682 0 2433 0 c 2,59,-1
 1092 0 l 2,60,61
 1082 0 1082 0 1078.5 28.5 c 128,-1,62
 1075 57 1075 57 1075 98 c 128,-1,63
 1075 139 1075 139 1078.5 182.5 c 128,-1,64
 1082 226 1082 226 1087 255 c 0,65,66
 1096 304 1096 304 1126.5 391.5 c 128,-1,67
 1157 479 1157 479 1224 605 c 0,68,69
 1241 637 1241 637 1281 684.5 c 128,-1,70
 1321 732 1321 732 1377.5 792 c 128,-1,71
 1434 852 1434 852 1504.5 924 c 128,-1,72
 1575 996 1575 996 1653 1077 c 0,73,74
 1699 1124 1699 1124 1735 1184.5 c 128,-1,75
 1771 1245 1771 1245 1795 1310.5 c 128,-1,76
 1819 1376 1819 1376 1830.5 1441.5 c 128,-1,77
 1842 1507 1842 1507 1837 1563 c 1,78,79
 1801 1535 1801 1535 1760 1509.5 c 128,-1,80
 1719 1484 1719 1484 1675 1465 c 1,81,82
 1466 1389 1466 1389 1311 1278 c 128,-1,83
 1156 1167 1156 1167 1060 1025 c 1,84,85
 1053 1013 1053 1013 1030 971.5 c 128,-1,86
 1007 930 1007 930 970 863 c 0,87,88
 940 809 l 128,-1,89
 925 782 925 782 903 760 c 0,90,91
 893 749 893 749 882.5 741.5 c 128,-1,92
 872 734 872 734 859.5 729 c 128,-1,93
 847 724 847 724 831.5 721 c 128,-1,94
 816 718 816 718 793 717 c 0,95,96
 737 714 737 714 695 738.5 c 128,-1,97
 653 763 653 763 619 826 c 1,98,99
 586 817 586 817 549 810.5 c 128,-1,100
 512 804 512 804 469 806 c 1,101,102
 415 827 415 827 376 846.5 c 128,-1,103
 337 866 337 866 307 896 c 0,104,105
 256 946 256 946 224 996.5 c 128,-1,106
 192 1047 192 1047 174 1099.5 c 128,-1,107
 156 1152 156 1152 149.5 1206.5 c 128,-1,108
 143 1261 143 1261 143 1320 c 0,109,110
 143 1400 143 1400 194 1511.5 c 128,-1,111
 245 1623 245 1623 352 1764 c 0,112,113
 467 1913 467 1913 535 2029.5 c 128,-1,114
 603 2146 603 2146 612 2248 c 1,115,116
 612 2275 612 2275 612.5 2294 c 128,-1,117
 613 2313 613 2313 615 2331 c 128,-1,118
 617 2349 617 2349 619.5 2367 c 128,-1,119
 622 2385 622 2385 626 2409 c 0,120,121
 631 2441 631 2441 645.5 2473.5 c 128,-1,122
 660 2506 660 2506 675 2530 c 0,123,124
 689 2550 689 2550 697 2562.5 c 128,-1,125
 705 2575 705 2575 711.5 2584.5 c 128,-1,126
 718 2594 718 2594 725 2604 c 128,-1,127
 732 2614 732 2614 743 2630 c 0,128,129
 752 2642 752 2642 759 2651 c 128,-1,130
 766 2660 766 2660 773 2668 c 128,-1,131
 780 2676 780 2676 787.5 2683.5 c 128,-1,132
 795 2691 795 2691 804 2701 c 0,133,134
 820 2720 820 2720 833 2733.5 c 128,-1,135
 846 2747 846 2747 859 2760 c 1,136,137
 807 2908 807 2908 785.5 3060 c 128,-1,138
 764 3212 764 3212 773 3362 c 1,139,140
 964 3296 964 3296 1135 3183.5 c 128,-1,141
 1306 3071 1306 3071 1441 2918 c 1,142,143
 1475 3029 1475 3029 1541.5 3122.5 c 128,-1,144
 1608 3216 1608 3216 1701 3284 c 1,145,146
 1783 3228 1783 3228 1847 3152.5 c 128,-1,147
 1911 3077 1911 3077 1955 2988 c 1,38,39
896 2603 m 0,148,149
 887 2595 887 2595 882 2590 c 128,-1,150
 877 2585 877 2585 873.5 2580.5 c 128,-1,151
 870 2576 870 2576 866.5 2571 c 128,-1,152
 863 2566 863 2566 857 2558 c 0,153,154
 850 2550 850 2550 837 2528 c 128,-1,155
 824 2506 824 2506 808.5 2479.5 c 128,-1,156
 793 2453 793 2453 779.5 2425 c 128,-1,157
 766 2397 766 2397 757 2376 c 0,158,159
 748 2352 748 2352 745 2333.5 c 128,-1,160
 742 2315 742 2315 742.5 2297.5 c 128,-1,161
 743 2280 743 2280 744.5 2263.5 c 128,-1,162
 746 2247 746 2247 747 2227 c 1,163,164
 739 2168 739 2168 718.5 2114.5 c 128,-1,165
 698 2061 698 2061 667.5 2005.5 c 128,-1,166
 637 1950 637 1950 596 1888 c 128,-1,167
 555 1826 555 1826 505 1752 c 1,168,169
 459 1681 459 1681 423.5 1630.5 c 128,-1,170
 388 1580 388 1580 361.5 1537 c 128,-1,171
 335 1494 335 1494 316.5 1451 c 128,-1,172
 298 1408 298 1408 285 1352 c 0,173,174
 277 1319 277 1319 277 1275.5 c 128,-1,175
 277 1232 277 1232 286.5 1188 c 128,-1,176
 296 1144 296 1144 314.5 1103.5 c 128,-1,177
 333 1063 333 1063 363 1035 c 0,178,179
 404 995 404 995 445 970 c 128,-1,180
 486 945 486 945 541 949 c 0,181,182
 549 950 549 950 560.5 952 c 128,-1,183
 572 954 572 954 581 957 c 1,184,185
 598 969 598 969 618 972 c 128,-1,186
 638 975 638 975 656 968 c 0,187,188
 680 960 680 960 695.5 936.5 c 128,-1,189
 711 913 711 913 716 881 c 1,190,191
 721 867 721 867 733.5 855 c 128,-1,192
 746 843 746 843 761.5 837.5 c 128,-1,193
 777 832 777 832 793 833.5 c 128,-1,194
 809 835 809 835 821 845 c 0,195,196
 833 856 833 856 845 876.5 c 128,-1,197
 857 897 857 897 872.5 927 c 128,-1,198
 888 957 888 957 909 997.5 c 128,-1,199
 930 1038 930 1038 960 1088 c 0,200,201
 995 1148 995 1148 1033 1196 c 128,-1,202
 1071 1244 1071 1244 1109.5 1282 c 128,-1,203
 1148 1320 1148 1320 1184.5 1349.5 c 128,-1,204
 1221 1379 1221 1379 1251 1402 c 0,205,206
 1288 1429 1288 1429 1339.5 1462 c 128,-1,207
 1391 1495 1391 1495 1479 1531 c 0,208,209
 1515 1545 1515 1545 1555 1562.5 c 128,-1,210
 1595 1580 1595 1580 1635 1601 c 128,-1,211
 1675 1622 1675 1622 1714 1647 c 128,-1,212
 1753 1672 1753 1672 1786 1701 c 1,213,214
 1826 1727 1826 1727 1863.5 1735 c 128,-1,215
 1901 1743 1901 1743 1928 1727 c 0,216,217
 1948 1716 1948 1716 1959.5 1692 c 128,-1,218
 1971 1668 1971 1668 1973 1638 c 1,219,220
 1984 1591 1984 1591 1987 1533.5 c 128,-1,221
 1990 1476 1990 1476 1982 1420 c 0,222,223
 1973 1359 1973 1359 1955 1294 c 128,-1,224
 1937 1229 1937 1229 1897.5 1159 c 128,-1,225
 1858 1089 1858 1089 1792.5 1012 c 128,-1,226
 1727 935 1727 935 1624 849 c 0,227,228
 1527 768 1527 768 1452 680 c 128,-1,229
 1377 592 1377 592 1326.5 501.5 c 128,-1,230
 1276 411 1276 411 1252 320 c 128,-1,231
 1228 229 1228 229 1234 142 c 1,232,-1
 1260 142 l 2,233,234
 1285 142 1285 142 1331 142 c 128,-1,235
 1377 142 1377 142 1439.5 142 c 128,-1,236
 1502 142 1502 142 1575 142 c 128,-1,237
 1648 142 1648 142 1729 142 c 128,-1,238
 1810 142 1810 142 1893 142 c 128,-1,239
 1976 142 1976 142 2058 142 c 128,-1,240
 2140 142 2140 142 2215 142 c 2,241,-1
 3309 142 l 2,242,243
 3308 142 3308 142 3309.5 172 c 128,-1,244
 3311 202 3311 202 3313.5 250.5 c 128,-1,245
 3316 299 3316 299 3317.5 361 c 128,-1,246
 3319 423 3319 423 3320 486 c 0,247,248
 3321 611 3321 611 3323 740.5 c 128,-1,249
 3325 870 3325 870 3319.5 1002.5 c 128,-1,250
 3314 1135 3314 1135 3298.5 1269 c 128,-1,251
 3283 1403 3283 1403 3247 1536 c 0,252,253
 3214 1664 3214 1664 3176.5 1772 c 128,-1,254
 3139 1880 3139 1880 3098 1972 c 128,-1,255
 3057 2064 3057 2064 3012.5 2141.5 c 128,-1,256
 2968 2219 2968 2219 2919 2285 c 1,257,258
 2848 2393 2848 2393 2747.5 2485.5 c 128,-1,259
 2647 2578 2647 2578 2527.5 2651 c 128,-1,260
 2408 2724 2408 2724 2275.5 2774.5 c 128,-1,261
 2143 2825 2143 2825 2009 2848 c 1,262,263
 2018 2803 2018 2803 2022.5 2751 c 128,-1,264
 2027 2699 2027 2699 2026 2655 c 0,265,266
 2024 2624 2024 2624 2004 2604 c 128,-1,267
 1984 2584 1984 2584 1956 2584 c 128,-1,268
 1928 2584 1928 2584 1908.5 2604 c 128,-1,269
 1889 2624 1889 2624 1891 2655 c 1,270,271
 1894 2784 1894 2784 1844.5 2901.5 c 128,-1,272
 1795 3019 1795 3019 1704 3107 c 1,273,274
 1632 3032 1632 3032 1588.5 2936.5 c 128,-1,275
 1545 2841 1545 2841 1538 2735 c 1,276,277
 1538 2707 1538 2707 1516.5 2689 c 128,-1,278
 1495 2671 1495 2671 1467 2673 c 128,-1,279
 1439 2675 1439 2675 1421 2697 c 128,-1,280
 1403 2719 1403 2719 1404 2748 c 0,281,282
 1404 2752 1404 2752 1408 2763 c 1,283,284
 1364 2750 1364 2750 1321 2731 c 128,-1,285
 1278 2712 1278 2712 1235 2689 c 1,286,287
 1210 2671 1210 2671 1183 2678 c 128,-1,288
 1156 2685 1156 2685 1142 2709 c 128,-1,289
 1128 2733 1128 2733 1136 2760 c 128,-1,290
 1144 2787 1144 2787 1173 2802 c 1,291,292
 1205 2821 1205 2821 1238 2837.5 c 128,-1,293
 1271 2854 1271 2854 1303 2869 c 1,294,295
 1128 3049 1128 3049 911 3154 c 1,296,297
 919 3060 919 3060 940 2967 c 128,-1,298
 961 2874 961 2874 993 2784 c 1,299,300
 1002 2746 1002 2746 975.5 2697.5 c 128,-1,301
 949 2649 949 2649 896 2603 c 0,148,149
EndSplineSet
EndChar
StartChar: O
Encoding: 79 79 38
Width: 2961
GlyphClass: 2
Flags: W
Fore
128 1346 m 1,0,1
 128 1662 128 1662 224 1923 c 0,2,3
 321 2186 321 2186 500 2378 c 0,4,5
 590 2474 590 2474 697 2548.5 c 128,-1,6
 804 2623 804 2623 927 2675 c 0,7,8
 1174 2779 1174 2779 1472 2782 c 0,9,10
 1609 2782 1609 2782 1738.5 2757 c 128,-1,11
 1868 2732 1868 2732 1989 2682 c 0,12,13
 2111 2632 2111 2632 2219 2560 c 128,-1,14
 2327 2488 2327 2488 2419 2394 c 0,15,16
 2606 2205 2606 2205 2711 1944 c 0,17,18
 2816 1682 2816 1682 2816 1371 c 0,19,20
 2816 1081 2816 1081 2720 822 c 0,21,22
 2624 561 2624 561 2445 362 c 0,23,24
 2356 264 2356 264 2248.5 185.5 c 128,-1,25
 2141 107 2141 107 2016 50 c 1,26,27
 1765 -61 1765 -61 1472 -64 c 0,28,29
 1339 -64 1339 -64 1211.5 -41 c 128,-1,30
 1084 -18 1084 -18 964 27 c 0,31,32
 724 118 724 118 535 301 c 0,33,34
 346 485 346 485 239 750 c 0,35,36
 185 882 185 882 157.5 1031 c 128,-1,37
 130 1180 130 1180 128 1346 c 1,0,1
608 1346 m 0,38,39
 608 1148 608 1148 650.5 943.5 c 128,-1,40
 693 739 693 739 777 528 c 0,41,42
 947 104 947 104 1472 95 c 1,43,44
 1765 95 1765 95 1959 265 c 0,45,46
 2155 435 2155 435 2245 722 c 0,47,48
 2290 865 2290 865 2313 1026 c 128,-1,49
 2336 1187 2336 1187 2336 1363 c 0,50,51
 2336 1723 2336 1723 2237 2009 c 0,52,53
 2188 2151 2188 2151 2114 2264 c 128,-1,54
 2040 2377 2040 2377 1944 2458 c 0,55,56
 1750 2623 1750 2623 1480 2623 c 2,57,-1
 1472 2623 l 2,58,59
 1161 2619 1161 2619 968 2433 c 0,60,61
 774 2245 774 2245 691 1957 c 0,62,63
 608 1667 608 1667 608 1346 c 0,38,39
EndSplineSet
EndChar
StartChar: P
Encoding: 80 80 39
Width: 2503
GlyphClass: 2
Flags: W
Fore
1223 134 m 1,0,-1
 2205 134 l 1,1,2
 2225 202 2225 202 2236 272.5 c 128,-1,3
 2247 343 2247 343 2247 417 c 0,4,5
 2247 574 2247 574 2201.5 718 c 128,-1,6
 2156 862 2156 862 2074.5 984 c 128,-1,7
 1993 1106 1993 1106 1880 1201 c 128,-1,8
 1767 1296 1767 1296 1630 1356 c 1,9,10
 1602 1359 1602 1359 1577.5 1371.5 c 128,-1,11
 1553 1384 1553 1384 1535 1403.5 c 128,-1,12
 1517 1423 1517 1423 1507 1448 c 128,-1,13
 1497 1473 1497 1473 1497 1501 c 0,14,15
 1497 1530 1497 1530 1508.5 1554.5 c 128,-1,16
 1520 1579 1520 1579 1539.5 1599 c 128,-1,17
 1559 1619 1559 1619 1583 1633.5 c 128,-1,18
 1607 1648 1607 1648 1631 1656 c 1,19,20
 1672 1686 1672 1686 1706 1723 c 128,-1,21
 1740 1760 1740 1760 1765 1804 c 128,-1,22
 1790 1848 1790 1848 1803.5 1897.5 c 128,-1,23
 1817 1947 1817 1947 1817 2000 c 0,24,25
 1817 2078 1817 2078 1789 2147.5 c 128,-1,26
 1761 2217 1761 2217 1713 2271.5 c 128,-1,27
 1665 2326 1665 2326 1600.5 2361 c 128,-1,28
 1536 2396 1536 2396 1461 2406 c 0,29,30
 1437 2408 1437 2408 1415 2419.5 c 128,-1,31
 1393 2431 1393 2431 1377 2449 c 128,-1,32
 1361 2467 1361 2467 1351.5 2490.5 c 128,-1,33
 1342 2514 1342 2514 1342 2540 c 0,34,35
 1342 2570 1342 2570 1354 2596.5 c 128,-1,36
 1366 2623 1366 2623 1386 2645 c 1,37,38
 1435 2685 1435 2685 1464.5 2742 c 128,-1,39
 1494 2799 1494 2799 1494 2865 c 0,40,41
 1494 2921 1494 2921 1473 2970.5 c 128,-1,42
 1452 3020 1452 3020 1415 3057 c 128,-1,43
 1378 3094 1378 3094 1328.5 3115 c 128,-1,44
 1279 3136 1279 3136 1223 3136 c 128,-1,45
 1167 3136 1167 3136 1118 3115 c 128,-1,46
 1069 3094 1069 3094 1032 3057 c 128,-1,47
 995 3020 995 3020 973.5 2970.5 c 128,-1,48
 952 2921 952 2921 952 2865 c 0,49,50
 952 2799 952 2799 982 2742 c 128,-1,51
 1012 2685 1012 2685 1060 2645 c 1,52,53
 1080 2623 1080 2623 1092 2596.5 c 128,-1,54
 1104 2570 1104 2570 1104 2540 c 0,55,56
 1104 2514 1104 2514 1094.5 2490.5 c 128,-1,57
 1085 2467 1085 2467 1069 2449 c 128,-1,58
 1053 2431 1053 2431 1031 2419.5 c 128,-1,59
 1009 2408 1009 2408 985 2406 c 0,60,61
 911 2396 911 2396 846 2361 c 128,-1,62
 781 2326 781 2326 733 2271.5 c 128,-1,63
 685 2217 685 2217 657.5 2147.5 c 128,-1,64
 630 2078 630 2078 630 2000 c 0,65,66
 630 1947 630 1947 643.5 1897.5 c 128,-1,67
 657 1848 657 1848 681.5 1804 c 128,-1,68
 706 1760 706 1760 740 1723 c 128,-1,69
 774 1686 774 1686 815 1656 c 1,70,71
 839 1648 839 1648 863.5 1633.5 c 128,-1,72
 888 1619 888 1619 907 1599 c 128,-1,73
 926 1579 926 1579 937.5 1554.5 c 128,-1,74
 949 1530 949 1530 949 1501 c 0,75,76
 949 1473 949 1473 939 1448 c 128,-1,77
 929 1423 929 1423 911 1403.5 c 128,-1,78
 893 1384 893 1384 868.5 1371.5 c 128,-1,79
 844 1359 844 1359 816 1356 c 1,80,81
 680 1296 680 1296 566.5 1201 c 128,-1,82
 453 1106 453 1106 371.5 984 c 128,-1,83
 290 862 290 862 244.5 718 c 128,-1,84
 199 574 199 574 199 417 c 0,85,86
 199 343 199 343 210 272.5 c 128,-1,87
 221 202 221 202 241 134 c 1,88,-1
 1223 134 l 1,0,-1
1223 0 m 1,89,-1
 143 0 l 1,90,91
 105 96 105 96 84.5 201 c 128,-1,92
 64 306 64 306 64 417 c 0,93,94
 64 603 64 603 119.5 771.5 c 128,-1,95
 175 940 175 940 274.5 1081.5 c 128,-1,96
 374 1223 374 1223 511.5 1331 c 128,-1,97
 649 1439 649 1439 814 1501 c 1,98,99
 743 1534 743 1534 684 1585 c 128,-1,100
 625 1636 625 1636 583 1700.5 c 128,-1,101
 541 1765 541 1765 517 1841 c 128,-1,102
 493 1917 493 1917 493 2000 c 0,103,104
 493 2105 493 2105 530.5 2198.5 c 128,-1,105
 568 2292 568 2292 633 2364.5 c 128,-1,106
 698 2437 698 2437 786.5 2484 c 128,-1,107
 875 2531 875 2531 976 2542 c 1,108,109
 903 2598 903 2598 859.5 2682 c 128,-1,110
 816 2766 816 2766 816 2865 c 0,111,112
 816 2950 816 2950 848 3024 c 128,-1,113
 880 3098 880 3098 935 3153 c 128,-1,114
 990 3208 990 3208 1064.5 3240.5 c 128,-1,115
 1139 3273 1139 3273 1223 3273 c 128,-1,116
 1307 3273 1307 3273 1381.5 3240.5 c 128,-1,117
 1456 3208 1456 3208 1511 3153 c 128,-1,118
 1566 3098 1566 3098 1598.5 3024 c 128,-1,119
 1631 2950 1631 2950 1631 2865 c 0,120,121
 1631 2766 1631 2766 1587 2682 c 128,-1,122
 1543 2598 1543 2598 1470 2542 c 1,123,124
 1571 2531 1571 2531 1659.5 2484 c 128,-1,125
 1748 2437 1748 2437 1813 2364.5 c 128,-1,126
 1878 2292 1878 2292 1915.5 2198.5 c 128,-1,127
 1953 2105 1953 2105 1953 2000 c 0,128,129
 1953 1917 1953 1917 1929 1841 c 128,-1,130
 1905 1765 1905 1765 1863 1700.5 c 128,-1,131
 1821 1636 1821 1636 1762 1585 c 128,-1,132
 1703 1534 1703 1534 1632 1501 c 1,133,134
 1797 1439 1797 1439 1934.5 1331 c 128,-1,135
 2072 1223 2072 1223 2171.5 1081.5 c 128,-1,136
 2271 940 2271 940 2326.5 771.5 c 128,-1,137
 2382 603 2382 603 2382 417 c 0,138,139
 2382 306 2382 306 2361.5 201 c 128,-1,140
 2341 96 2341 96 2303 0 c 1,141,-1
 1223 0 l 1,89,-1
EndSplineSet
EndChar
StartChar: Q
Encoding: 81 81 40
Width: 3863
GlyphClass: 2
Flags: W
Fore
2931 898 m 1,0,-1
 3115 1250 l 1,1,2
 3067 1232 3067 1232 3017.5 1222 c 128,-1,3
 2968 1212 2968 1212 2916 1212 c 0,4,5
 2850 1212 2850 1212 2788.5 1227.5 c 128,-1,6
 2727 1243 2727 1243 2672 1271.5 c 128,-1,7
 2617 1300 2617 1300 2570 1340.5 c 128,-1,8
 2523 1381 2523 1381 2486 1431 c 1,9,10
 2433 1385 2433 1385 2364.5 1357.5 c 128,-1,11
 2296 1330 2296 1330 2219 1330 c 0,12,13
 2127 1330 2127 1330 2047 1370 c 128,-1,14
 1967 1410 1967 1410 1912 1480 c 1,15,16
 1858 1418 1858 1418 1778 1379.5 c 128,-1,17
 1698 1341 1698 1341 1606 1341 c 0,18,19
 1532 1341 1532 1341 1465 1367 c 128,-1,20
 1398 1393 1398 1393 1343 1438 c 1,21,22
 1305 1389 1305 1389 1257.5 1349.5 c 128,-1,23
 1210 1310 1210 1310 1154.5 1282 c 128,-1,24
 1099 1254 1099 1254 1037.5 1238.5 c 128,-1,25
 976 1223 976 1223 910 1223 c 0,26,27
 856 1223 856 1223 805.5 1233 c 128,-1,28
 755 1243 755 1243 708 1260 c 1,29,-1
 900 896 l 1,30,31
 989 920 989 920 1101 939 c 128,-1,32
 1213 958 1213 958 1343.5 971 c 128,-1,33
 1474 984 1474 984 1619.5 991 c 128,-1,34
 1765 998 1765 998 1921 998 c 0,35,36
 2073 998 2073 998 2217 991 c 128,-1,37
 2361 984 2361 984 2490 971 c 128,-1,38
 2619 958 2619 958 2730.5 939.5 c 128,-1,39
 2842 921 2842 921 2931 898 c 1,0,-1
929 745 m 1,40,-1
 954 577 l 1,41,-1
 892 353 l 1,42,43
 977 378 977 378 1088.5 398 c 128,-1,44
 1200 418 1200 418 1331 432.5 c 128,-1,45
 1462 447 1462 447 1610 455 c 128,-1,46
 1758 463 1758 463 1916 463 c 0,47,48
 2072 463 2072 463 2218 455.5 c 128,-1,49
 2364 448 2364 448 2494.5 433.5 c 128,-1,50
 2625 419 2625 419 2736 399 c 128,-1,51
 2847 379 2847 379 2933 354 c 1,52,-1
 2875 575 l 1,53,-1
 2899 747 l 1,54,55
 2810 768 2810 768 2701 785.5 c 128,-1,56
 2592 803 2592 803 2467.5 815 c 128,-1,57
 2343 827 2343 827 2205 833 c 128,-1,58
 2067 839 2067 839 1921 839 c 0,59,60
 1772 839 1772 839 1632 832.5 c 128,-1,61
 1492 826 1492 826 1365.5 814 c 128,-1,62
 1239 802 1239 802 1129 784.5 c 128,-1,63
 1019 767 1019 767 929 745 c 1,40,-1
1913 2774 m 0,64,65
 1856 2774 1856 2774 1806.5 2795.5 c 128,-1,66
 1757 2817 1757 2817 1720 2854 c 128,-1,67
 1683 2891 1683 2891 1661.5 2940.5 c 128,-1,68
 1640 2990 1640 2990 1640 3047 c 0,69,70
 1640 3103 1640 3103 1661.5 3153 c 128,-1,71
 1683 3203 1683 3203 1720 3240 c 128,-1,72
 1757 3277 1757 3277 1806.5 3298.5 c 128,-1,73
 1856 3320 1856 3320 1913 3320 c 0,74,75
 1969 3320 1969 3320 2019 3298.5 c 128,-1,76
 2069 3277 2069 3277 2106 3240 c 128,-1,77
 2143 3203 2143 3203 2164.5 3153 c 128,-1,78
 2186 3103 2186 3103 2186 3047 c 0,79,80
 2186 2990 2186 2990 2164.5 2940.5 c 128,-1,81
 2143 2891 2143 2891 2106 2854 c 128,-1,82
 2069 2817 2069 2817 2019 2795.5 c 128,-1,83
 1969 2774 1969 2774 1913 2774 c 0,64,65
1913 2914 m 0,84,85
 1941 2914 1941 2914 1965 2924.5 c 128,-1,86
 1989 2935 1989 2935 2007 2953 c 128,-1,87
 2025 2971 2025 2971 2035.5 2995.5 c 128,-1,88
 2046 3020 2046 3020 2046 3047 c 128,-1,89
 2046 3074 2046 3074 2035.5 3098.5 c 128,-1,90
 2025 3123 2025 3123 2007 3141 c 128,-1,91
 1989 3159 1989 3159 1965 3169.5 c 128,-1,92
 1941 3180 1941 3180 1913 3180 c 128,-1,93
 1885 3180 1885 3180 1861 3169.5 c 128,-1,94
 1837 3159 1837 3159 1819 3141 c 128,-1,95
 1801 3123 1801 3123 1790.5 3098.5 c 128,-1,96
 1780 3074 1780 3074 1780 3047 c 128,-1,97
 1780 3020 1780 3020 1790.5 2995.5 c 128,-1,98
 1801 2971 1801 2971 1819 2953 c 128,-1,99
 1837 2935 1837 2935 1861 2924.5 c 128,-1,100
 1885 2914 1885 2914 1913 2914 c 0,84,85
2086 1497 m 1,101,-1
 1914 2476 l 1,102,-1
 1744 1510 l 1,103,104
 1759 1519 1759 1519 1773 1530 c 1,105,106
 1794 1570 1794 1570 1830.5 1595.5 c 128,-1,107
 1867 1621 1867 1621 1913 1621 c 0,108,109
 1958 1621 1958 1621 1994.5 1595.5 c 128,-1,110
 2031 1570 2031 1570 2045 1530 c 1,111,112
 2054 1522 2054 1522 2064 1513.5 c 128,-1,113
 2074 1505 2074 1505 2086 1497 c 1,101,-1
2639 1459 m 1,114,-1
 2639 2386 l 1,115,-1
 2309 1479 l 1,116,117
 2327 1486 2327 1486 2343.5 1494.5 c 128,-1,118
 2360 1503 2360 1503 2374 1514 c 1,119,120
 2392 1537 2392 1537 2420.5 1551 c 128,-1,121
 2449 1565 2449 1565 2482 1565 c 0,122,123
 2521 1565 2521 1565 2554.5 1545 c 128,-1,124
 2588 1525 2588 1525 2608 1495 c 0,125,126
 2615 1486 2615 1486 2623 1477.5 c 128,-1,127
 2631 1469 2631 1469 2639 1459 c 1,114,-1
1515 1488 m 1,128,-1
 1186 2386 l 1,129,-1
 1187 1473 l 1,130,131
 1196 1483 1196 1483 1205 1492 c 1,132,133
 1223 1529 1223 1529 1258.5 1552 c 128,-1,134
 1294 1575 1294 1575 1337 1575 c 0,135,136
 1375 1575 1375 1575 1407.5 1557.5 c 128,-1,137
 1440 1540 1440 1540 1461 1512 c 1,138,139
 1475 1506 1475 1506 1488.5 1499.5 c 128,-1,140
 1502 1493 1502 1493 1515 1488 c 1,128,-1
1007 1376 m 1,141,-1
 576 2117 l 1,142,-1
 686 1442 l 1,143,144
 736 1407 736 1407 790.5 1384.5 c 128,-1,145
 845 1362 845 1362 910 1362 c 0,146,147
 961 1362 961 1362 1007 1376 c 1,141,-1
2812 1366 m 1,148,149
 2862 1351 2862 1351 2916 1351 c 0,150,151
 2981 1351 2981 1351 3037 1372 c 128,-1,152
 3093 1393 3093 1393 3142 1428 c 1,153,-1
 3253 2120 l 1,154,-1
 2812 1366 l 1,148,149
3144 97 m 1,155,156
 3095 54 3095 54 2981 18 c 128,-1,157
 2867 -18 2867 -18 2705 -45 c 128,-1,158
 2543 -72 2543 -72 2342 -87.5 c 128,-1,159
 2141 -103 2141 -103 1917 -103 c 0,160,161
 1690 -103 1690 -103 1486 -87 c 128,-1,162
 1282 -71 1282 -71 1119 -43 c 128,-1,163
 956 -15 956 -15 842.5 23 c 128,-1,164
 729 61 729 61 685 106 c 1,165,-1
 811 586 l 1,166,-1
 755 901 l 1,167,-1
 580 1206 l 1,168,-1
 409 2449 l 1,169,-1
 507 2489 l 1,170,-1
 1055 1564 l 1,171,-1
 1066 2663 l 1,172,-1
 1204 2688 l 1,173,-1
 1621 1582 l 1,174,-1
 1844 2771 l 1,175,-1
 1984 2771 l 1,176,-1
 2206 1586 l 1,177,-1
 2621 2688 l 1,178,-1
 2759 2663 l 1,179,-1
 2771 1563 l 1,180,-1
 3321 2491 l 1,181,-1
 3416 2445 l 1,182,-1
 3250 1208 l 1,183,-1
 3072 903 l 1,184,-1
 3015 584 l 1,185,-1
 3144 97 l 1,155,156
2983 170 m 1,186,187
 2898 205 2898 205 2784 233 c 128,-1,188
 2670 261 2670 261 2533.5 281 c 128,-1,189
 2397 301 2397 301 2242.5 312 c 128,-1,190
 2088 323 2088 323 1921 323 c 0,191,192
 1751 323 1751 323 1592.5 311.5 c 128,-1,193
 1434 300 1434 300 1296 279.5 c 128,-1,194
 1158 259 1158 259 1043.5 230.5 c 128,-1,195
 929 202 929 202 847 166 c 1,196,197
 924 135 924 135 1036.5 110 c 128,-1,198
 1149 85 1149 85 1287 66.5 c 128,-1,199
 1425 48 1425 48 1584 38 c 128,-1,200
 1743 28 1743 28 1916 28 c 0,201,202
 2088 28 2088 28 2247.5 38 c 128,-1,203
 2407 48 2407 48 2544.5 67 c 128,-1,204
 2682 86 2682 86 2794 112 c 128,-1,205
 2906 138 2906 138 2983 170 c 1,186,187
1072 2673 m 0,206,207
 1016 2673 1016 2673 966.5 2694.5 c 128,-1,208
 917 2716 917 2716 880 2753 c 128,-1,209
 843 2790 843 2790 821.5 2839.5 c 128,-1,210
 800 2889 800 2889 800 2946 c 0,211,212
 800 3002 800 3002 821.5 3051.5 c 128,-1,213
 843 3101 843 3101 880 3138.5 c 128,-1,214
 917 3176 917 3176 966.5 3197.5 c 128,-1,215
 1016 3219 1016 3219 1072 3219 c 0,216,217
 1129 3219 1129 3219 1178.5 3197.5 c 128,-1,218
 1228 3176 1228 3176 1265 3138.5 c 128,-1,219
 1302 3101 1302 3101 1323.5 3051.5 c 128,-1,220
 1345 3002 1345 3002 1345 2946 c 0,221,222
 1345 2889 1345 2889 1323.5 2839.5 c 128,-1,223
 1302 2790 1302 2790 1265 2753 c 128,-1,224
 1228 2716 1228 2716 1178.5 2694.5 c 128,-1,225
 1129 2673 1129 2673 1072 2673 c 0,206,207
1072 2813 m 0,226,227
 1100 2813 1100 2813 1124 2823.5 c 128,-1,228
 1148 2834 1148 2834 1166 2852 c 128,-1,229
 1184 2870 1184 2870 1194.5 2894 c 128,-1,230
 1205 2918 1205 2918 1205 2946 c 0,231,232
 1205 2973 1205 2973 1194.5 2997.5 c 128,-1,233
 1184 3022 1184 3022 1166 3040 c 128,-1,234
 1148 3058 1148 3058 1124 3068.5 c 128,-1,235
 1100 3079 1100 3079 1072 3079 c 0,236,237
 1045 3079 1045 3079 1021 3068.5 c 128,-1,238
 997 3058 997 3058 979 3040 c 128,-1,239
 961 3022 961 3022 950.5 2997.5 c 128,-1,240
 940 2973 940 2973 940 2946 c 0,241,242
 940 2918 940 2918 950.5 2894 c 128,-1,243
 961 2870 961 2870 979 2852 c 128,-1,244
 997 2834 997 2834 1021 2823.5 c 128,-1,245
 1045 2813 1045 2813 1072 2813 c 0,226,227
2754 2813 m 0,246,247
 2782 2813 2782 2813 2806 2823.5 c 128,-1,248
 2830 2834 2830 2834 2848 2852 c 128,-1,249
 2866 2870 2866 2870 2876.5 2894 c 128,-1,250
 2887 2918 2887 2918 2887 2946 c 0,251,252
 2887 2973 2887 2973 2876.5 2997.5 c 128,-1,253
 2866 3022 2866 3022 2848 3040 c 128,-1,254
 2830 3058 2830 3058 2806 3068.5 c 128,-1,255
 2782 3079 2782 3079 2754 3079 c 128,-1,256
 2726 3079 2726 3079 2702 3068.5 c 128,-1,257
 2678 3058 2678 3058 2660 3040 c 128,-1,258
 2642 3022 2642 3022 2631.5 2997.5 c 128,-1,259
 2621 2973 2621 2973 2621 2946 c 0,260,261
 2621 2918 2621 2918 2631.5 2894 c 128,-1,262
 2642 2870 2642 2870 2660 2852 c 128,-1,263
 2678 2834 2678 2834 2702 2823.5 c 128,-1,264
 2726 2813 2726 2813 2754 2813 c 0,246,247
2754 2673 m 0,265,266
 2697 2673 2697 2673 2647.5 2694.5 c 128,-1,267
 2598 2716 2598 2716 2561 2753 c 128,-1,268
 2524 2790 2524 2790 2502.5 2839.5 c 128,-1,269
 2481 2889 2481 2889 2481 2946 c 0,270,271
 2481 3002 2481 3002 2502.5 3051.5 c 128,-1,272
 2524 3101 2524 3101 2561 3138.5 c 128,-1,273
 2598 3176 2598 3176 2647.5 3197.5 c 128,-1,274
 2697 3219 2697 3219 2754 3219 c 0,275,276
 2810 3219 2810 3219 2860 3197.5 c 128,-1,277
 2910 3176 2910 3176 2947 3138.5 c 128,-1,278
 2984 3101 2984 3101 3005.5 3051.5 c 128,-1,279
 3027 3002 3027 3002 3027 2946 c 0,280,281
 3027 2889 3027 2889 3005.5 2839.5 c 128,-1,282
 2984 2790 2984 2790 2947 2753 c 128,-1,283
 2910 2716 2910 2716 2860 2694.5 c 128,-1,284
 2810 2673 2810 2673 2754 2673 c 0,265,266
338 2454 m 0,285,286
 281 2454 281 2454 231 2475.5 c 128,-1,287
 181 2497 181 2497 144 2534 c 128,-1,288
 107 2571 107 2571 85.5 2620.5 c 128,-1,289
 64 2670 64 2670 64 2726 c 128,-1,290
 64 2782 64 2782 85.5 2832 c 128,-1,291
 107 2882 107 2882 144 2919 c 128,-1,292
 181 2956 181 2956 231 2977.5 c 128,-1,293
 281 2999 281 2999 338 2999 c 0,294,295
 394 2999 394 2999 443.5 2977.5 c 128,-1,296
 493 2956 493 2956 530 2919 c 128,-1,297
 567 2882 567 2882 588.5 2832 c 128,-1,298
 610 2782 610 2782 610 2726 c 128,-1,299
 610 2670 610 2670 588.5 2620.5 c 128,-1,300
 567 2571 567 2571 530 2534 c 128,-1,301
 493 2497 493 2497 443.5 2475.5 c 128,-1,302
 394 2454 394 2454 338 2454 c 0,285,286
338 2594 m 0,303,304
 365 2594 365 2594 389 2604 c 128,-1,305
 413 2614 413 2614 431 2632.5 c 128,-1,306
 449 2651 449 2651 459.5 2675 c 128,-1,307
 470 2699 470 2699 470 2726 c 0,308,309
 470 2754 470 2754 459.5 2778 c 128,-1,310
 449 2802 449 2802 431 2820 c 128,-1,311
 413 2838 413 2838 389 2848.5 c 128,-1,312
 365 2859 365 2859 338 2859 c 0,313,314
 310 2859 310 2859 285.5 2848.5 c 128,-1,315
 261 2838 261 2838 243 2820 c 128,-1,316
 225 2802 225 2802 214.5 2778 c 128,-1,317
 204 2754 204 2754 204 2726 c 0,318,319
 204 2699 204 2699 214.5 2675 c 128,-1,320
 225 2651 225 2651 243 2632.5 c 128,-1,321
 261 2614 261 2614 285.5 2604 c 128,-1,322
 310 2594 310 2594 338 2594 c 0,303,304
3492 2594 m 0,323,324
 3519 2594 3519 2594 3543.5 2604 c 128,-1,325
 3568 2614 3568 2614 3586 2632.5 c 128,-1,326
 3604 2651 3604 2651 3614.5 2675 c 128,-1,327
 3625 2699 3625 2699 3625 2726 c 0,328,329
 3625 2754 3625 2754 3614.5 2778 c 128,-1,330
 3604 2802 3604 2802 3586 2820 c 128,-1,331
 3568 2838 3568 2838 3543.5 2848.5 c 128,-1,332
 3519 2859 3519 2859 3492 2859 c 0,333,334
 3464 2859 3464 2859 3440 2848.5 c 128,-1,335
 3416 2838 3416 2838 3398 2820 c 128,-1,336
 3380 2802 3380 2802 3369.5 2778 c 128,-1,337
 3359 2754 3359 2754 3359 2726 c 0,338,339
 3359 2699 3359 2699 3369.5 2675 c 128,-1,340
 3380 2651 3380 2651 3398 2632.5 c 128,-1,341
 3416 2614 3416 2614 3440 2604 c 128,-1,342
 3464 2594 3464 2594 3492 2594 c 0,323,324
3492 2454 m 0,343,344
 3435 2454 3435 2454 3385.5 2475.5 c 128,-1,345
 3336 2497 3336 2497 3299 2534 c 128,-1,346
 3262 2571 3262 2571 3240.5 2620.5 c 128,-1,347
 3219 2670 3219 2670 3219 2726 c 128,-1,348
 3219 2782 3219 2782 3240.5 2832 c 128,-1,349
 3262 2882 3262 2882 3299 2919 c 128,-1,350
 3336 2956 3336 2956 3385.5 2977.5 c 128,-1,351
 3435 2999 3435 2999 3492 2999 c 0,352,353
 3548 2999 3548 2999 3597.5 2977.5 c 128,-1,354
 3647 2956 3647 2956 3684.5 2919 c 128,-1,355
 3722 2882 3722 2882 3743.5 2832 c 128,-1,356
 3765 2782 3765 2782 3765 2726 c 128,-1,357
 3765 2670 3765 2670 3743.5 2620.5 c 128,-1,358
 3722 2571 3722 2571 3684.5 2534 c 128,-1,359
 3647 2497 3647 2497 3597.5 2475.5 c 128,-1,360
 3548 2454 3548 2454 3492 2454 c 0,343,344
EndSplineSet
EndChar
StartChar: R
Encoding: 82 82 41
Width: 2736
GlyphClass: 2
Flags: W
Fore
2382 2619 m 1,0,-1
 2382 3005 l 1,1,-1
 2112 3005 l 1,2,-1
 2112 2734 l 1,3,-1
 1493 2734 l 1,4,-1
 1493 3005 l 1,5,-1
 1223 3005 l 1,6,-1
 1223 2734 l 1,7,-1
 605 2734 l 1,8,-1
 605 3005 l 1,9,-1
 335 3005 l 1,10,-1
 335 2619 l 1,11,-1
 711 2318 l 1,12,-1
 2009 2318 l 1,13,-1
 2382 2619 l 1,0,-1
1938 2183 m 1,14,-1
 779 2183 l 1,15,-1
 779 1226 l 1,16,-1
 1938 1226 l 1,17,-1
 1938 2183 l 1,14,-1
2279 837 m 1,18,-1
 2023 1091 l 1,19,-1
 694 1091 l 1,20,-1
 438 837 l 1,21,-1
 438 477 l 1,22,-1
 2279 477 l 1,23,-1
 2279 837 l 1,18,-1
2517 342 m 1,24,-1
 199 342 l 1,25,-1
 199 134 l 1,26,-1
 2517 134 l 1,27,-1
 2517 342 l 1,24,-1
1628 2862 m 1,28,-1
 1969 2862 l 1,29,-1
 1969 3140 l 1,30,-1
 2524 3140 l 1,31,-1
 2521 2526 l 1,32,-1
 2076 2183 l 1,33,-1
 2076 1226 l 1,34,-1
 2417 887 l 1,35,-1
 2417 477 l 1,36,-1
 2659 477 l 1,37,-1
 2659 0 l 1,38,-1
 64 0 l 1,39,-1
 64 477 l 1,40,-1
 299 477 l 1,41,-1
 299 887 l 1,42,-1
 640 1226 l 1,43,-1
 640 2183 l 1,44,-1
 199 2526 l 1,45,-1
 199 3140 l 1,46,-1
 747 3140 l 1,47,-1
 747 2862 l 1,48,-1
 1088 2862 l 1,49,-1
 1088 3140 l 1,50,-1
 1628 3140 l 1,51,-1
 1628 2862 l 1,28,-1
EndSplineSet
EndChar
StartChar: S
Encoding: 83 83 42
Width: 3696
GlyphClass: 2
Flags: W
Fore
972 2346 m 0,0,1
 1007 2388 1007 2388 1046 2417.5 c 128,-1,2
 1085 2447 1085 2447 1122 2463 c 128,-1,3
 1159 2479 1159 2479 1191 2479 c 128,-1,4
 1223 2479 1223 2479 1245 2460 c 0,5,6
 1266 2442 1266 2442 1272 2410.5 c 128,-1,7
 1278 2379 1278 2379 1269 2339.5 c 128,-1,8
 1260 2300 1260 2300 1237.5 2256.5 c 128,-1,9
 1215 2213 1215 2213 1180 2172 c 0,10,11
 1145 2130 1145 2130 1106 2100.5 c 128,-1,12
 1067 2071 1067 2071 1030 2055 c 128,-1,13
 993 2039 993 2039 961 2039 c 128,-1,14
 929 2039 929 2039 907 2057 c 0,15,16
 886 2075 886 2075 880 2107 c 128,-1,17
 874 2139 874 2139 883 2178 c 128,-1,18
 892 2217 892 2217 914.5 2260.5 c 128,-1,19
 937 2304 937 2304 972 2346 c 0,0,1
655 1399 m 1,20,21
 622 1382 622 1382 600.5 1354.5 c 128,-1,22
 579 1327 579 1327 571 1295 c 1,23,24
 573 1264 573 1264 551 1240.5 c 128,-1,25
 529 1217 529 1217 495 1214 c 0,26,27
 462 1212 462 1212 436 1231.5 c 128,-1,28
 410 1251 410 1251 408 1282 c 1,29,30
 414 1352 414 1352 451.5 1412.5 c 128,-1,31
 489 1473 489 1473 550 1513 c 0,32,33
 578 1532 578 1532 612 1529.5 c 128,-1,34
 646 1527 646 1527 668 1504 c 0,35,36
 689 1480 689 1480 685.5 1449 c 128,-1,37
 682 1418 682 1418 655 1399 c 1,20,21
1955 2988 m 1,38,39
 2113 2978 2113 2978 2259.5 2936.5 c 128,-1,40
 2406 2895 2406 2895 2538 2826.5 c 128,-1,41
 2670 2758 2670 2758 2785 2665.5 c 128,-1,42
 2900 2573 2900 2573 2994 2462 c 0,43,44
 3060 2384 3060 2384 3123.5 2289 c 128,-1,45
 3187 2194 3187 2194 3243.5 2086 c 128,-1,46
 3300 1978 3300 1978 3348 1860.5 c 128,-1,47
 3396 1743 3396 1743 3430 1620 c 0,48,49
 3470 1477 3470 1477 3494 1324.5 c 128,-1,50
 3518 1172 3518 1172 3530.5 1019 c 128,-1,51
 3543 866 3543 866 3547 717.5 c 128,-1,52
 3551 569 3551 569 3551 435 c 2,53,-1
 3551 0 l 1,54,-1
 3470 0 l 2,55,56
 3388 0 3388 0 3240.5 0 c 128,-1,57
 3093 0 3093 0 2887.5 0 c 128,-1,58
 2682 0 2682 0 2433 0 c 2,59,-1
 1092 0 l 2,60,61
 1082 0 1082 0 1078.5 28.5 c 128,-1,62
 1075 57 1075 57 1075 98 c 128,-1,63
 1075 139 1075 139 1078.5 182.5 c 128,-1,64
 1082 226 1082 226 1087 255 c 0,65,66
 1096 304 1096 304 1126.5 391.5 c 128,-1,67
 1157 479 1157 479 1224 605 c 0,68,69
 1241 637 1241 637 1281 684.5 c 128,-1,70
 1321 732 1321 732 1377.5 792 c 128,-1,71
 1434 852 1434 852 1504.5 924 c 128,-1,72
 1575 996 1575 996 1653 1077 c 0,73,74
 1699 1124 1699 1124 1735 1184.5 c 128,-1,75
 1771 1245 1771 1245 1795 1310.5 c 128,-1,76
 1819 1376 1819 1376 1830.5 1441.5 c 128,-1,77
 1842 1507 1842 1507 1837 1563 c 1,78,79
 1801 1535 1801 1535 1760 1509.5 c 128,-1,80
 1719 1484 1719 1484 1675 1465 c 1,81,82
 1466 1389 1466 1389 1311 1278 c 128,-1,83
 1156 1167 1156 1167 1060 1025 c 1,84,85
 1053 1013 1053 1013 1030 971.5 c 128,-1,86
 1007 930 1007 930 970 863 c 0,87,88
 940 809 l 128,-1,89
 925 782 925 782 903 760 c 0,90,91
 893 749 893 749 882.5 741.5 c 128,-1,92
 872 734 872 734 859.5 729 c 128,-1,93
 847 724 847 724 831.5 721 c 128,-1,94
 816 718 816 718 793 717 c 0,95,96
 737 714 737 714 695 738.5 c 128,-1,97
 653 763 653 763 619 826 c 1,98,99
 586 817 586 817 549 810.5 c 128,-1,100
 512 804 512 804 469 806 c 1,101,102
 415 827 415 827 376 846.5 c 128,-1,103
 337 866 337 866 307 896 c 0,104,105
 256 946 256 946 224 996.5 c 128,-1,106
 192 1047 192 1047 174 1099.5 c 128,-1,107
 156 1152 156 1152 149.5 1206.5 c 128,-1,108
 143 1261 143 1261 143 1320 c 0,109,110
 143 1400 143 1400 194 1511.5 c 128,-1,111
 245 1623 245 1623 352 1764 c 0,112,113
 467 1913 467 1913 535 2029.5 c 128,-1,114
 603 2146 603 2146 612 2248 c 1,115,116
 612 2275 612 2275 612.5 2294 c 128,-1,117
 613 2313 613 2313 615 2331 c 128,-1,118
 617 2349 617 2349 619.5 2367 c 128,-1,119
 622 2385 622 2385 626 2409 c 0,120,121
 631 2441 631 2441 645.5 2473.5 c 128,-1,122
 660 2506 660 2506 675 2530 c 0,123,124
 689 2550 689 2550 697 2562.5 c 128,-1,125
 705 2575 705 2575 711.5 2584.5 c 128,-1,126
 718 2594 718 2594 725 2604 c 128,-1,127
 732 2614 732 2614 743 2630 c 0,128,129
 752 2642 752 2642 759 2651 c 128,-1,130
 766 2660 766 2660 773 2668 c 128,-1,131
 780 2676 780 2676 787.5 2683.5 c 128,-1,132
 795 2691 795 2691 804 2701 c 0,133,134
 820 2720 820 2720 833 2733.5 c 128,-1,135
 846 2747 846 2747 859 2760 c 1,136,137
 807 2908 807 2908 785.5 3060 c 128,-1,138
 764 3212 764 3212 773 3362 c 1,139,140
 964 3296 964 3296 1135 3183.5 c 128,-1,141
 1306 3071 1306 3071 1441 2918 c 1,142,143
 1475 3029 1475 3029 1541.5 3122.5 c 128,-1,144
 1608 3216 1608 3216 1701 3284 c 1,145,146
 1783 3228 1783 3228 1847 3152.5 c 128,-1,147
 1911 3077 1911 3077 1955 2988 c 1,38,39
896 2603 m 0,148,149
 887 2595 887 2595 882 2590 c 128,-1,150
 877 2585 877 2585 873.5 2580.5 c 128,-1,151
 870 2576 870 2576 866.5 2571 c 128,-1,152
 863 2566 863 2566 857 2558 c 0,153,154
 850 2550 850 2550 837 2528 c 128,-1,155
 824 2506 824 2506 808.5 2479.5 c 128,-1,156
 793 2453 793 2453 779.5 2425 c 128,-1,157
 766 2397 766 2397 757 2376 c 0,158,159
 748 2352 748 2352 745 2333.5 c 128,-1,160
 742 2315 742 2315 742.5 2297.5 c 128,-1,161
 743 2280 743 2280 744.5 2263.5 c 128,-1,162
 746 2247 746 2247 747 2227 c 1,163,164
 739 2168 739 2168 718.5 2114.5 c 128,-1,165
 698 2061 698 2061 667.5 2005.5 c 128,-1,166
 637 1950 637 1950 596 1888 c 128,-1,167
 555 1826 555 1826 505 1752 c 1,168,169
 459 1681 459 1681 423.5 1630.5 c 128,-1,170
 388 1580 388 1580 361.5 1537 c 128,-1,171
 335 1494 335 1494 316.5 1451 c 128,-1,172
 298 1408 298 1408 285 1352 c 0,173,174
 277 1319 277 1319 277 1275.5 c 128,-1,175
 277 1232 277 1232 286.5 1188 c 128,-1,176
 296 1144 296 1144 314.5 1103.5 c 128,-1,177
 333 1063 333 1063 363 1035 c 0,178,179
 404 995 404 995 445 970 c 128,-1,180
 486 945 486 945 541 949 c 0,181,182
 549 950 549 950 560.5 952 c 128,-1,183
 572 954 572 954 581 957 c 1,184,185
 598 969 598 969 618 972 c 128,-1,186
 638 975 638 975 656 968 c 0,187,188
 680 960 680 960 695.5 936.5 c 128,-1,189
 711 913 711 913 716 881 c 1,190,191
 721 867 721 867 733.5 855 c 128,-1,192
 746 843 746 843 761.5 837.5 c 128,-1,193
 777 832 777 832 793 833.5 c 128,-1,194
 809 835 809 835 821 845 c 0,195,196
 833 856 833 856 845 876.5 c 128,-1,197
 857 897 857 897 872.5 927 c 128,-1,198
 888 957 888 957 909 997.5 c 128,-1,199
 930 1038 930 1038 960 1088 c 0,200,201
 995 1148 995 1148 1033 1196 c 128,-1,202
 1071 1244 1071 1244 1109.5 1282 c 128,-1,203
 1148 1320 1148 1320 1184.5 1349.5 c 128,-1,204
 1221 1379 1221 1379 1251 1402 c 0,205,206
 1288 1429 1288 1429 1339.5 1462 c 128,-1,207
 1391 1495 1391 1495 1479 1531 c 0,208,209
 1515 1545 1515 1545 1555 1562.5 c 128,-1,210
 1595 1580 1595 1580 1635 1601 c 128,-1,211
 1675 1622 1675 1622 1714 1647 c 128,-1,212
 1753 1672 1753 1672 1786 1701 c 1,213,214
 1826 1727 1826 1727 1863.5 1735 c 128,-1,215
 1901 1743 1901 1743 1928 1727 c 0,216,217
 1948 1716 1948 1716 1959.5 1692 c 128,-1,218
 1971 1668 1971 1668 1973 1638 c 1,219,220
 1984 1591 1984 1591 1987 1533.5 c 128,-1,221
 1990 1476 1990 1476 1982 1420 c 0,222,223
 1973 1359 1973 1359 1955 1294 c 128,-1,224
 1937 1229 1937 1229 1897.5 1159 c 128,-1,225
 1858 1089 1858 1089 1792.5 1012 c 128,-1,226
 1727 935 1727 935 1624 849 c 0,227,228
 1527 768 1527 768 1452 680 c 128,-1,229
 1377 592 1377 592 1326.5 501.5 c 128,-1,230
 1276 411 1276 411 1252 320 c 128,-1,231
 1228 229 1228 229 1234 142 c 1,232,-1
 1260 142 l 2,233,234
 1285 142 1285 142 1331 142 c 128,-1,235
 1377 142 1377 142 1439.5 142 c 128,-1,236
 1502 142 1502 142 1575 142 c 128,-1,237
 1648 142 1648 142 1729 142 c 128,-1,238
 1810 142 1810 142 1893 142 c 128,-1,239
 1976 142 1976 142 2058 142 c 128,-1,240
 2140 142 2140 142 2215 142 c 2,241,-1
 3309 142 l 2,242,243
 3308 142 3308 142 3309.5 172 c 128,-1,244
 3311 202 3311 202 3313.5 250.5 c 128,-1,245
 3316 299 3316 299 3317.5 361 c 128,-1,246
 3319 423 3319 423 3320 486 c 0,247,248
 3321 611 3321 611 3323 740.5 c 128,-1,249
 3325 870 3325 870 3319.5 1002.5 c 128,-1,250
 3314 1135 3314 1135 3298.5 1269 c 128,-1,251
 3283 1403 3283 1403 3247 1536 c 0,252,253
 3214 1664 3214 1664 3176.5 1772 c 128,-1,254
 3139 1880 3139 1880 3098 1972 c 128,-1,255
 3057 2064 3057 2064 3012.5 2141.5 c 128,-1,256
 2968 2219 2968 2219 2919 2285 c 1,257,258
 2848 2393 2848 2393 2747.5 2485.5 c 128,-1,259
 2647 2578 2647 2578 2527.5 2651 c 128,-1,260
 2408 2724 2408 2724 2275.5 2774.5 c 128,-1,261
 2143 2825 2143 2825 2009 2848 c 1,262,263
 2018 2803 2018 2803 2022.5 2751 c 128,-1,264
 2027 2699 2027 2699 2026 2655 c 0,265,266
 2024 2624 2024 2624 2004 2604 c 128,-1,267
 1984 2584 1984 2584 1956 2584 c 128,-1,268
 1928 2584 1928 2584 1908.5 2604 c 128,-1,269
 1889 2624 1889 2624 1891 2655 c 1,270,271
 1894 2784 1894 2784 1844.5 2901.5 c 128,-1,272
 1795 3019 1795 3019 1704 3107 c 1,273,274
 1632 3032 1632 3032 1588.5 2936.5 c 128,-1,275
 1545 2841 1545 2841 1538 2735 c 1,276,277
 1538 2707 1538 2707 1516.5 2689 c 128,-1,278
 1495 2671 1495 2671 1467 2673 c 128,-1,279
 1439 2675 1439 2675 1421 2697 c 128,-1,280
 1403 2719 1403 2719 1404 2748 c 0,281,282
 1404 2752 1404 2752 1408 2763 c 1,283,284
 1364 2750 1364 2750 1321 2731 c 128,-1,285
 1278 2712 1278 2712 1235 2689 c 1,286,287
 1210 2671 1210 2671 1183 2678 c 128,-1,288
 1156 2685 1156 2685 1142 2709 c 128,-1,289
 1128 2733 1128 2733 1136 2760 c 128,-1,290
 1144 2787 1144 2787 1173 2802 c 1,291,292
 1205 2821 1205 2821 1238 2837.5 c 128,-1,293
 1271 2854 1271 2854 1303 2869 c 1,294,295
 1128 3049 1128 3049 911 3154 c 1,296,297
 919 3060 919 3060 940 2967 c 128,-1,298
 961 2874 961 2874 993 2784 c 1,299,300
 1002 2746 1002 2746 975.5 2697.5 c 128,-1,301
 949 2649 949 2649 896 2603 c 0,148,149
EndSplineSet
EndChar
StartChar: T
Encoding: 84 84 43
Width: 2736
GlyphClass: 2
Flags: W
Fore
2382 2619 m 1,0,-1
 2382 3005 l 1,1,-1
 2112 3005 l 1,2,-1
 2112 2734 l 1,3,-1
 1493 2734 l 1,4,-1
 1493 3005 l 1,5,-1
 1223 3005 l 1,6,-1
 1223 2734 l 1,7,-1
 605 2734 l 1,8,-1
 605 3005 l 1,9,-1
 335 3005 l 1,10,-1
 335 2619 l 1,11,-1
 711 2318 l 1,12,-1
 2009 2318 l 1,13,-1
 2382 2619 l 1,0,-1
1938 2183 m 1,14,-1
 779 2183 l 1,15,-1
 779 1226 l 1,16,-1
 1938 1226 l 1,17,-1
 1938 2183 l 1,14,-1
2279 837 m 1,18,-1
 2023 1091 l 1,19,-1
 694 1091 l 1,20,-1
 438 837 l 1,21,-1
 438 477 l 1,22,-1
 2279 477 l 1,23,-1
 2279 837 l 1,18,-1
2517 342 m 1,24,-1
 199 342 l 1,25,-1
 199 134 l 1,26,-1
 2517 134 l 1,27,-1
 2517 342 l 1,24,-1
1628 2862 m 1,28,-1
 1969 2862 l 1,29,-1
 1969 3140 l 1,30,-1
 2524 3140 l 1,31,-1
 2521 2526 l 1,32,-1
 2076 2183 l 1,33,-1
 2076 1226 l 1,34,-1
 2417 887 l 1,35,-1
 2417 477 l 1,36,-1
 2659 477 l 1,37,-1
 2659 0 l 1,38,-1
 64 0 l 1,39,-1
 64 477 l 1,40,-1
 299 477 l 1,41,-1
 299 887 l 1,42,-1
 640 1226 l 1,43,-1
 640 2183 l 1,44,-1
 199 2526 l 1,45,-1
 199 3140 l 1,46,-1
 747 3140 l 1,47,-1
 747 2862 l 1,48,-1
 1088 2862 l 1,49,-1
 1088 3140 l 1,50,-1
 1628 3140 l 1,51,-1
 1628 2862 l 1,28,-1
EndSplineSet
EndChar
StartChar: U
Encoding: 85 85 44
Width: 2310
GlyphClass: 2
Flags: W
Fore
1161 1164 m 1,0,-1
 340 0 l 1,1,-1
 171 117 l 1,2,-1
 1035 1346 l 1,3,-1
 180 2567 l 1,4,-1
 349 2685 l 1,5,-1
 1159 1524 l 1,6,-1
 1969 2685 l 1,7,-1
 2137 2567 l 1,8,-1
 1284 1348 l 1,9,-1
 2146 117 l 1,10,-1
 1978 0 l 1,11,-1
 1161 1164 l 1,0,-1
EndSplineSet
EndChar
StartChar: Y
Encoding: 89 89 45
Width: 4096
GlyphClass: 2
Flags: W
Fore
3197 1388 m 0,0,1
 3197 1345 3197 1345 3207 1309 c 0,2,3
 3218 1273 3218 1273 3242 1251 c 0,4,5
 3268 1227 3268 1227 3310 1227 c 0,6,7
 3312 1228 3312 1228 3315 1228 c 0,8,9
 3419 1232 3419 1232 3421 1386 c 0,10,11
 3421 1433 3421 1433 3411 1470 c 0,12,13
 3400 1507 3400 1507 3375 1527 c 0,14,15
 3350 1548 3350 1548 3310 1548 c 0,16,17
 3201 1547 3201 1547 3197 1388 c 0,0,1
3054 1381 m 0,18,19
 3054 1435 3054 1435 3066 1481 c 0,20,21
 3079 1527 3079 1527 3109 1564 c 0,22,23
 3138 1601 3138 1601 3190 1623 c 0,24,25
 3240 1645 3240 1645 3314 1645 c 0,26,27
 3363 1644 3363 1644 3407 1630 c 0,28,29
 3451 1617 3451 1617 3487 1587 c 128,-1,30
 3523 1557 3523 1557 3544 1507 c 0,31,32
 3565 1458 3565 1458 3566 1387 c 0,33,34
 3566 1337 3566 1337 3551 1292 c 0,35,36
 3538 1248 3538 1248 3507 1211 c 0,37,38
 3477 1176 3477 1176 3429 1155 c 128,-1,39
 3381 1134 3381 1134 3315 1133 c 0,40,41
 3222 1133 3222 1133 3164 1167 c 0,42,43
 3106 1202 3106 1202 3080 1258 c 0,44,45
 3054 1315 3054 1315 3054 1381 c 0,18,19
2848 1479 m 1,46,47
 2847 1512 2847 1512 2824 1530 c 0,48,49
 2802 1548 2802 1548 2766 1548 c 0,50,51
 2727 1548 2727 1548 2706 1528 c 0,52,53
 2684 1509 2684 1509 2676 1473 c 0,54,55
 2667 1436 2667 1436 2667 1384 c 0,56,57
 2667 1230 2667 1230 2758 1228 c 1,58,59
 2763 1230 2763 1230 2771 1230 c 0,60,61
 2812 1234 2812 1234 2829 1251 c 128,-1,62
 2846 1268 2846 1268 2850 1299 c 1,63,-1
 2993 1299 l 1,64,65
 2993 1254 2993 1254 2972 1217 c 0,66,67
 2950 1181 2950 1181 2902 1158 c 0,68,69
 2878 1147 2878 1147 2846 1141 c 128,-1,70
 2814 1135 2814 1135 2775 1133 c 2,71,-1
 2761 1133 l 2,72,73
 2684 1133 2684 1133 2631 1162 c 0,74,75
 2579 1191 2579 1191 2552 1246 c 0,76,77
 2526 1300 2526 1300 2523 1371 c 1,78,-1
 2523 1387 l 2,79,80
 2523 1476 2523 1476 2552 1534 c 0,81,82
 2581 1591 2581 1591 2634 1618 c 0,83,84
 2686 1643 2686 1643 2758 1645 c 1,85,86
 2834 1645 2834 1645 2887 1624 c 0,87,88
 2939 1604 2939 1604 2966 1568 c 0,89,90
 2993 1531 2993 1531 2993 1484 c 2,91,-1
 2993 1479 l 1,92,-1
 2848 1479 l 1,46,47
2307 1639 m 1,93,-1
 2446 1639 l 1,94,-1
 2446 1143 l 1,95,-1
 2307 1143 l 1,96,-1
 2307 1639 l 1,93,-1
1893 1402 m 1,97,-1
 1720 1639 l 1,98,-1
 1895 1639 l 1,99,-1
 1991 1483 l 1,100,-1
 2091 1639 l 1,101,-1
 2247 1639 l 1,102,-1
 2072 1405 l 1,103,-1
 2256 1143 l 1,104,-1
 2082 1143 l 1,105,-1
 1975 1319 l 1,106,-1
 1866 1143 l 1,107,-1
 1707 1143 l 1,108,-1
 1893 1402 l 1,97,-1
1288 1639 m 1,109,-1
 1665 1639 l 1,110,-1
 1665 1543 l 1,111,-1
 1427 1543 l 1,112,-1
 1427 1442 l 1,113,-1
 1647 1442 l 1,114,-1
 1647 1346 l 1,115,-1
 1427 1346 l 1,116,-1
 1427 1239 l 1,117,-1
 1665 1239 l 1,118,-1
 1665 1143 l 1,119,-1
 1288 1143 l 1,120,-1
 1288 1639 l 1,109,-1
600 1639 m 1,121,-1
 816 1639 l 1,122,-1
 899 1303 l 1,123,-1
 900 1303 l 1,124,-1
 979 1639 l 1,125,-1
 1192 1639 l 1,126,-1
 1192 1143 l 1,127,-1
 1075 1143 l 1,128,-1
 1075 1556 l 1,129,-1
 1074 1557 l 1,130,-1
 955 1143 l 1,131,-1
 829 1143 l 1,132,-1
 718 1560 l 1,133,-1
 717 1559 l 1,134,-1
 717 1143 l 1,135,-1
 600 1143 l 1,136,-1
 600 1639 l 1,121,-1
2966 503 m 1,137,138
 2976 484 2976 484 2993 479 c 0,139,140
 3011 474 3011 474 3033 482 c 0,141,142
 3052 488 3052 488 3061 506 c 128,-1,143
 3070 524 3070 524 3063 545 c 0,144,145
 3056 567 3056 567 3038 576 c 0,146,147
 3021 586 3021 586 2996 577 c 0,148,149
 2970 569 2970 569 2963 550 c 0,150,151
 2956 530 2956 530 2963 508 c 1,152,153
 2966 506 2966 506 2966 503 c 1,137,138
3011 345 m 0,154,155
 3020 322 3020 322 3040 315 c 128,-1,156
 3060 308 3060 308 3087 317 c 0,157,158
 3113 326 3113 326 3123 345 c 0,159,160
 3133 363 3133 363 3125 388 c 0,161,162
 3116 412 3116 412 3097 419 c 0,163,164
 3078 427 3078 427 3051 417 c 0,165,166
 3023 408 3023 408 3013 389 c 128,-1,167
 3003 370 3003 370 3011 345 c 0,154,155
2979 430 m 1,168,169
 2946 425 2946 425 2921 432 c 128,-1,170
 2896 439 2896 439 2881 454 c 0,171,172
 2865 470 2865 470 2858 489 c 1,173,174
 2852 512 2852 512 2855 533 c 0,175,176
 2858 544 2858 544 2862.5 554 c 128,-1,177
 2867 564 2867 564 2875 574 c 0,178,179
 2891 593 2891 593 2916 609 c 0,180,181
 2942 625 2942 625 2978 637 c 0,182,183
 3020 652 3020 652 3056 653 c 128,-1,184
 3092 654 3092 654 3119 641 c 0,185,186
 3145 627 3145 627 3157 596 c 0,187,188
 3166 569 3166 569 3161 546 c 0,189,190
 3156 522 3156 522 3140 502 c 0,191,192
 3126 484 3126 484 3106 473 c 1,193,-1
 3106 471 l 1,194,195
 3147 481 3147 481 3185 467 c 0,196,197
 3222 452 3222 452 3237 408 c 0,198,199
 3250 372 3250 372 3235 340 c 0,200,201
 3220 309 3220 309 3188 285 c 0,202,203
 3172 274 3172 274 3154 264.5 c 128,-1,204
 3136 255 3136 255 3115 248 c 0,205,206
 3066 231 3066 231 3023 230 c 128,-1,207
 2980 229 2980 229 2951 246 c 128,-1,208
 2922 263 2922 263 2909 296 c 0,209,210
 2909 298 l 2,211,-1
 2909 299 l 1,212,-1
 2909 299 l 1,213,214
 2902 320 2902 320 2906 343 c 0,215,216
 2909 365 2909 365 2926 387 c 0,217,218
 2945 411 2945 411 2979 428 c 1,219,-1
 2979 430 l 1,168,169
2746 425 m 0,220,221
 2739 456 2739 456 2719 467 c 0,222,223
 2698 478 2698 478 2673 473 c 0,224,225
 2642 467 2642 467 2630 448 c 0,226,227
 2619 429 2619 429 2623 401 c 0,228,229
 2626 389 2626 389 2632 379.5 c 128,-1,230
 2638 370 2638 370 2646 363 c 0,231,232
 2664 349 2664 349 2695 355 c 0,233,234
 2713 359 2713 359 2726 370 c 0,235,236
 2732 376 2732 376 2736.5 382.5 c 128,-1,237
 2741 389 2741 389 2744 396 c 0,238,239
 2748 412 2748 412 2746 425 c 0,220,221
2564 217 m 1,240,-1
 2665 239 l 1,241,242
 2669 222 2669 222 2685 216 c 0,243,244
 2693 214 2693 214 2703.5 213.5 c 128,-1,245
 2714 213 2714 213 2726 216 c 0,246,247
 2749 221 2749 221 2760 235 c 0,248,249
 2771 247 2771 247 2774 267 c 0,250,251
 2775 276 2775 276 2775 284 c 128,-1,252
 2775 292 2775 292 2774 299 c 128,-1,253
 2773 306 2773 306 2771.5 317 c 128,-1,254
 2770 328 2770 328 2767 344 c 1,255,256
 2743 298 2743 298 2680 283 c 1,257,258
 2647 277 2647 277 2614 285 c 0,259,260
 2582 292 2582 292 2556 316 c 1,261,262
 2532 341 2532 341 2524 378 c 0,263,264
 2517 414 2517 414 2525 442 c 0,265,266
 2533 471 2533 471 2553 492 c 128,-1,267
 2573 513 2573 513 2599 526 c 0,268,269
 2613 533 2613 533 2628 538.5 c 128,-1,270
 2643 544 2643 544 2659 547 c 0,271,272
 2701 556 2701 556 2737 550 c 1,273,274
 2773 542 2773 542 2799 520 c 0,275,276
 2826 499 2826 499 2845 464 c 0,277,278
 2854 446 2854 446 2861 425.5 c 128,-1,279
 2868 405 2868 405 2873 381 c 0,280,281
 2878 358 2878 358 2879.5 335.5 c 128,-1,282
 2881 313 2881 313 2879 293 c 0,283,284
 2876 273 2876 273 2871 255.5 c 128,-1,285
 2866 238 2866 238 2857 222 c 0,286,287
 2848 207 2848 207 2836.5 194 c 128,-1,288
 2825 181 2825 181 2810 171 c 0,289,290
 2796 161 2796 161 2778 154 c 128,-1,291
 2760 147 2760 147 2740 143 c 0,292,293
 2707 136 2707 136 2679 136.5 c 128,-1,294
 2651 137 2651 137 2626 146 c 0,295,296
 2577 163 2577 163 2564 217 c 1,240,-1
2397 369 m 0,297,298
 2394 400 2394 400 2375 415 c 1,299,300
 2356 428 2356 428 2329 425 c 0,301,302
 2299 421 2299 421 2286 404 c 1,303,304
 2271 388 2271 388 2273 359 c 0,305,306
 2276 334 2276 334 2292 318 c 0,307,308
 2308 303 2308 303 2339 306 c 0,309,310
 2357 307 2357 307 2372 317 c 0,311,312
 2386 328 2386 328 2392 341 c 0,313,314
 2399 356 2399 356 2397 369 c 0,297,298
2194 183 m 1,315,-1
 2297 193 l 1,316,317
 2300 176 2300 176 2315 168 c 0,318,319
 2331 161 2331 161 2356 164 c 0,320,321
 2379 167 2379 167 2392 179 c 0,322,323
 2404 190 2404 190 2408 209 c 0,324,325
 2413 227 2413 227 2412 241 c 0,326,327
 2412 249 2412 249 2411.5 260 c 128,-1,328
 2411 271 2411 271 2410 286 c 1,329,330
 2381 244 2381 244 2317 236 c 0,331,332
 2284 233 2284 233 2251 244 c 0,333,334
 2220 255 2220 255 2198 281 c 0,335,336
 2176 308 2176 308 2172 346 c 0,337,338
 2168 381 2168 381 2179 409 c 128,-1,339
 2190 437 2190 437 2212 456 c 128,-1,340
 2234 475 2234 475 2262 486 c 0,341,342
 2290 496 2290 496 2324 500 c 0,343,344
 2367 504 2367 504 2402 494 c 0,345,346
 2437 483 2437 483 2460 459 c 1,347,348
 2485 435 2485 435 2500 398 c 0,349,350
 2515 362 2515 362 2519 313 c 0,351,352
 2524 264 2524 264 2515 224 c 0,353,354
 2508 186 2508 186 2487 156 c 0,355,356
 2476 142 2476 142 2463.5 130 c 128,-1,357
 2451 118 2451 118 2434 110 c 0,358,359
 2419 102 2419 102 2400.5 96.5 c 128,-1,360
 2382 91 2382 91 2362 89 c 0,361,362
 2329 86 2329 86 2300.5 89.5 c 128,-1,363
 2272 93 2272 93 2250 104 c 0,364,365
 2202 126 2202 126 2194 183 c 1,315,-1
1877 419 m 1,366,367
 1938 437 1938 437 1990 480 c 1,368,-1
 2080 478 l 1,369,-1
 2073 85 l 1,370,-1
 1966 86 l 1,371,-1
 1971 379 l 1,372,373
 1920 346 1920 346 1876 331 c 1,374,-1
 1877 419 l 1,366,367
1462 322 m 1,375,-1
 1620 297 l 1,376,-1
 1610 231 l 1,377,-1
 1452 256 l 1,378,-1
 1462 322 l 1,375,-1
1144 475 m 1,379,380
 1149 535 1149 535 1082 559 c 1,381,382
 1037 572 1037 572 1000 544 c 0,383,384
 981 530 981 530 968.5 510 c 128,-1,385
 956 490 956 490 948 464 c 0,386,387
 943 446 943 446 941.5 429 c 128,-1,388
 940 412 940 412 942 396 c 0,389,390
 945 363 945 363 964 340 c 1,391,392
 972 328 972 328 983 320.5 c 128,-1,393
 994 313 994 313 1007 309 c 0,394,395
 1023 304 1023 304 1038 304.5 c 128,-1,396
 1053 305 1053 305 1066 309 c 0,397,398
 1094 320 1094 320 1104 347 c 1,399,-1
 1177 325 l 1,400,401
 1162 287 1162 287 1131 267 c 0,402,403
 1099 245 1099 245 1064 241 c 0,404,405
 1027 236 1027 236 994 247 c 0,406,407
 951 260 951 260 915 294 c 0,408,409
 881 327 881 327 868 377 c 128,-1,410
 855 427 855 427 874 486 c 0,411,412
 883 517 883 517 897 540.5 c 128,-1,413
 911 564 911 564 930 581 c 0,414,415
 967 616 967 616 1012 624 c 0,416,417
 1056 633 1056 633 1098 620 c 0,418,419
 1127 611 1127 611 1150.5 595.5 c 128,-1,420
 1174 580 1174 580 1190 560 c 0,421,422
 1207 538 1207 538 1214 511 c 128,-1,423
 1221 484 1221 484 1217 453 c 1,424,-1
 1144 475 l 1,379,380
711 546 m 0,425,426
 736 616 736 616 782 664 c 1,427,428
 825 713 825 713 885 741 c 0,429,430
 914 754 914 754 944.5 761.5 c 128,-1,431
 975 769 975 769 1006 771 c 0,432,433
 1072 775 1072 775 1129 758 c 1,434,435
 1192 737 1192 737 1244 696 c 1,436,437
 1269 674 1269 674 1289 649 c 128,-1,438
 1309 624 1309 624 1325 596 c 0,439,440
 1357 538 1357 538 1364 471 c 0,441,442
 1371 402 1371 402 1350 333 c 0,443,444
 1339 295 1339 295 1317.5 261 c 128,-1,445
 1296 227 1296 227 1265 197 c 1,446,447
 1205 136 1205 136 1118 111 c 0,448,449
 1075 98 1075 98 1030.5 98 c 128,-1,450
 986 98 986 98 940 110 c 1,451,452
 896 124 896 124 858 146.5 c 128,-1,453
 820 169 820 169 788 201 c 1,454,455
 726 267 726 267 701 356 c 0,456,457
 678 444 678 444 704 532 c 1,458,459
 707 535 707 535 708 538.5 c 128,-1,460
 709 542 709 542 711 546 c 0,425,426
795 515 m 0,461,462
 784 480 784 480 781.5 446.5 c 128,-1,463
 779 413 779 413 784 381 c 0,464,465
 794 318 794 318 837 269 c 1,466,467
 880 223 880 223 954 198 c 1,468,-1
 956 199 l 2,469,470
 958 199 l 1,471,-1
 958 199 l 1,472,473
 1016 182 1016 182 1066 186 c 0,474,475
 1117 191 1117 191 1158 214 c 0,476,477
 1178 226 1178 226 1196 241.5 c 128,-1,478
 1214 257 1214 257 1227 276 c 0,479,480
 1255 313 1255 313 1270 362 c 0,481,482
 1280 395 1280 395 1281.5 427.5 c 128,-1,483
 1283 460 1283 460 1277 490 c 0,484,485
 1271 521 1271 521 1257 548 c 128,-1,486
 1243 575 1243 575 1220 598 c 1,487,488
 1178 647 1178 647 1104 669 c 0,489,490
 1031 691 1031 691 969 677 c 0,491,492
 938 671 938 671 910.5 657 c 128,-1,493
 883 643 883 643 861 621 c 0,494,495
 815 576 815 576 795 515 c 0,461,462
3826 2243 m 1,496,-1
 3930 2118 l 1,497,-1
 3786 1810 l 1,498,-1
 3788 1810 l 1,499,-1
 4023 2007 l 1,500,-1
 4086 1932 l 1,501,-1
 3770 1667 l 1,502,-1
 3669 1787 l 1,503,-1
 3817 2100 l 1,504,-1
 3816 2100 l 1,505,-1
 3575 1898 l 1,506,-1
 3509 1977 l 1,507,-1
 3826 2243 l 1,496,-1
3570 2412 m 1,508,-1
 3666 2347 l 1,509,-1
 3434 2005 l 1,510,-1
 3339 2069 l 1,511,-1
 3570 2412 l 1,508,-1
3074 2648 m 1,512,-1
 3180 2602 l 1,513,-1
 3083 2374 l 2,514,515
 3066 2334 3066 2334 3075 2302 c 0,516,517
 3084 2272 3084 2272 3122 2255 c 1,518,519
 3198 2225 3198 2225 3235 2310 c 1,520,-1
 3331 2538 l 1,521,-1
 3438 2493 l 1,522,-1
 3338 2257 l 1,523,524
 3308 2188 3308 2188 3246 2166 c 0,525,526
 3186 2144 3186 2144 3090 2182 c 0,527,528
 3070 2191 3070 2191 3052 2201.5 c 128,-1,529
 3034 2212 3034 2212 3019 2224 c 0,530,531
 2990 2249 2990 2249 2975 2279 c 0,532,533
 2959 2309 2959 2309 2958 2341 c 0,534,535
 2957 2374 2957 2374 2972 2408 c 1,536,-1
 3074 2648 l 1,512,-1
2589 2544 m 0,537,538
 2578 2488 2578 2488 2591 2447 c 0,539,540
 2604 2405 2604 2405 2657 2394 c 1,541,542
 2742 2379 2742 2379 2772 2506 c 1,543,544
 2799 2635 2799 2635 2709 2655 c 2,545,-1
 2708 2655 l 2,546,547
 2617 2673 2617 2673 2589 2544 c 0,537,538
2642 2315 m 1,548,549
 2566 2331 2566 2331 2524 2369 c 0,550,551
 2483 2408 2483 2408 2472 2457 c 0,552,553
 2467 2483 2467 2483 2466 2509 c 128,-1,554
 2465 2535 2465 2535 2470 2562 c 0,555,556
 2480 2607 2480 2607 2499 2643 c 0,557,558
 2517 2679 2517 2679 2549 2704 c 128,-1,559
 2581 2729 2581 2729 2626 2737 c 128,-1,560
 2671 2745 2671 2745 2730 2732 c 0,561,562
 2784 2720 2784 2720 2826 2690 c 0,563,564
 2868 2661 2868 2661 2886 2609 c 0,565,566
 2896 2583 2896 2583 2897 2551 c 128,-1,567
 2898 2519 2898 2519 2890 2482 c 0,568,569
 2888 2474 2888 2474 2885 2465.5 c 128,-1,570
 2882 2457 2882 2457 2877 2448 c 0,571,572
 2873 2439 2873 2439 2867 2430.5 c 128,-1,573
 2861 2422 2861 2422 2855 2414 c 0,574,575
 2841 2398 2841 2398 2821 2384 c 0,576,577
 2812 2377 2812 2377 2801.5 2372 c 128,-1,578
 2791 2367 2791 2367 2780 2362 c 1,579,-1
 2780 2361 l 1,580,581
 2793 2362 2793 2362 2805 2361 c 0,582,583
 2818 2361 2818 2361 2830 2359 c 0,584,585
 2841 2358 2841 2358 2854 2355 c 0,586,587
 2866 2353 l 128,-1,588
 2872 2352 2872 2352 2877 2351 c 1,589,-1
 2862 2277 l 1,590,-1
 2719 2308 l 2,591,592
 2717 2308 2717 2308 2710 2309 c 128,-1,593
 2703 2310 2703 2310 2690 2311 c 128,-1,594
 2677 2312 2677 2312 2665 2313 c 128,-1,595
 2653 2314 2653 2314 2642 2315 c 1,548,549
2088 2584 m 0,596,597
 2087 2566 2087 2566 2088.5 2549.5 c 128,-1,598
 2090 2533 2090 2533 2093 2518 c 0,599,600
 2101 2487 2101 2487 2121 2468 c 0,601,602
 2141 2448 2141 2448 2176 2446 c 1,603,604
 2179 2447 2179 2447 2181 2447 c 0,605,606
 2268 2447 2268 2447 2274 2576 c 0,607,608
 2275 2616 2275 2616 2268 2646 c 0,609,610
 2259 2678 2259 2678 2239 2694 c 1,611,612
 2220 2713 2220 2713 2185 2714 c 0,613,614
 2095 2716 2095 2716 2088 2584 c 0,596,597
1967 2582 m 0,615,616
 1968 2604 1968 2604 1971.5 2625 c 128,-1,617
 1975 2646 1975 2646 1981 2664 c 0,618,619
 1993 2703 1993 2703 2019 2733 c 128,-1,620
 2045 2763 2045 2763 2088 2780 c 0,621,622
 2131 2796 2131 2796 2192 2794 c 0,623,624
 2234 2792 2234 2792 2270 2780 c 1,625,626
 2306 2766 2306 2766 2335 2741 c 0,627,628
 2364 2715 2364 2715 2380 2673 c 0,629,630
 2396 2630 2396 2630 2394 2572 c 0,631,632
 2393 2551 2393 2551 2389.5 2531.5 c 128,-1,633
 2386 2512 2386 2512 2380 2493 c 0,634,635
 2367 2457 2367 2457 2340 2427 c 0,636,637
 2314 2398 2314 2398 2273 2383 c 0,638,639
 2232 2367 2232 2367 2179 2369 c 0,640,641
 2140 2370 2140 2370 2108.5 2378 c 128,-1,642
 2077 2386 2077 2386 2053 2401 c 0,643,644
 2005 2432 2005 2432 1986 2479 c 0,645,646
 1966 2526 1966 2526 1967 2582 c 0,615,616
1638 2692 m 1,647,-1
 1648 2595 l 1,648,-1
 1700 2600 l 2,649,650
 1764 2607 1764 2607 1758 2659 c 1,651,652
 1753 2683 1753 2683 1736 2691 c 0,653,654
 1719 2700 1719 2700 1687 2697 c 2,655,-1
 1638 2692 l 1,647,-1
1515 2759 m 1,656,-1
 1693 2778 l 2,657,658
 1765 2786 1765 2786 1817 2769 c 0,659,660
 1867 2752 1867 2752 1875 2691 c 0,661,662
 1880 2645 1880 2645 1853 2615 c 0,663,664
 1826 2587 1826 2587 1781 2576 c 1,665,-1
 1781 2574 l 1,666,667
 1822 2577 1822 2577 1843 2564 c 0,668,669
 1864 2550 1864 2550 1871 2533 c 0,670,671
 1877 2515 1877 2515 1889 2466 c 0,672,673
 1895 2442 1895 2442 1901.5 2421.5 c 128,-1,674
 1908 2401 1908 2401 1916 2386 c 1,675,-1
 1792 2373 l 1,676,677
 1785 2386 1785 2386 1774 2435 c 0,678,679
 1769 2459 1769 2459 1766 2472.5 c 128,-1,680
 1763 2486 1763 2486 1763 2488 c 0,681,682
 1756 2514 1756 2514 1738 2518 c 0,683,684
 1721 2521 1721 2521 1683 2518 c 2,685,-1
 1656 2515 l 1,686,-1
 1673 2361 l 1,687,-1
 1558 2349 l 1,688,-1
 1515 2759 l 1,656,-1
1189 2608 m 1,689,-1
 1212 2513 l 1,690,-1
 1263 2526 l 2,691,692
 1325 2541 1325 2541 1312 2592 c 1,693,694
 1304 2616 1304 2616 1286 2621 c 1,695,696
 1277 2625 1277 2625 1264.5 2624 c 128,-1,697
 1252 2623 1252 2623 1236 2619 c 2,698,-1
 1189 2608 l 1,689,-1
1057 2658 m 1,699,-1
 1231 2701 l 2,700,701
 1302 2719 1302 2719 1355 2709 c 128,-1,702
 1408 2699 1408 2699 1424 2640 c 0,703,704
 1435 2595 1435 2595 1413 2562 c 0,705,706
 1401 2546 1401 2546 1384.5 2533.5 c 128,-1,707
 1368 2521 1368 2521 1347 2513 c 1,708,-1
 1347 2511 l 1,709,710
 1387 2520 1387 2520 1410 2510 c 0,711,712
 1432 2500 1432 2500 1441 2483 c 0,713,714
 1446 2474 1446 2474 1453 2458 c 128,-1,715
 1460 2442 1460 2442 1469 2419 c 128,-1,716
 1478 2396 1478 2396 1487.5 2377 c 128,-1,717
 1497 2358 1497 2358 1507 2344 c 1,718,-1
 1385 2314 l 1,719,720
 1377 2327 1377 2327 1360 2372 c 0,721,722
 1351 2396 1351 2396 1346 2408.5 c 128,-1,723
 1341 2421 1341 2421 1341 2423 c 0,724,725
 1330 2447 1330 2447 1312 2449 c 128,-1,726
 1294 2451 1294 2451 1258 2442 c 2,727,-1
 1232 2435 l 1,728,-1
 1270 2285 l 1,729,-1
 1158 2257 l 1,730,-1
 1057 2658 l 1,699,-1
873 2314 m 1,731,-1
 753 2447 l 1,732,-1
 751 2446 l 1,733,-1
 774 2268 l 1,734,-1
 873 2314 l 1,731,-1
659 2494 m 1,735,-1
 785 2553 l 1,736,-1
 1106 2247 l 1,737,-1
 991 2193 l 1,738,-1
 931 2253 l 1,739,-1
 781 2183 l 1,740,-1
 791 2100 l 1,741,-1
 687 2051 l 1,742,-1
 659 2494 l 1,735,-1
7 1963 m 1,743,-1
 131 2093 l 1,744,-1
 381 1948 l 1,745,-1
 382 1949 l 1,746,-1
 226 2191 l 1,747,-1
 349 2318 l 1,748,-1
 647 2032 l 1,749,-1
 579 1961 l 1,750,-1
 331 2200 l 1,751,-1
 329 2200 l 1,752,-1
 510 1889 l 1,753,-1
 437 1814 l 1,754,-1
 123 1989 l 1,755,-1
 123 1987 l 1,756,-1
 372 1747 l 1,757,-1
 304 1676 l 1,758,-1
 7 1963 l 1,743,-1
EndSplineSet
EndChar
StartChar: Z
Encoding: 90 90 46
Width: 1360
GlyphClass: 2
Flags: W
Fore
352 -640 m 1,0,-1
 352 2719 l 1,1,-1
 1239 2719 l 1,2,-1
 1239 2623 l 1,3,-1
 903 2623 l 2,4,5
 763 2623 763 2623 717 2593 c 0,6,7
 695 2578 695 2578 681.5 2555.5 c 128,-1,8
 668 2533 668 2533 664 2507 c 1,9,10
 672 2486 672 2486 672 2462 c 2,11,-1
 672 -301 l 2,12,13
 672 -460 672 -460 721 -502 c 128,-1,14
 770 -544 770 -544 911 -544 c 2,15,-1
 1239 -544 l 1,16,-1
 1239 -640 l 1,17,-1
 352 -640 l 1,0,-1
EndSplineSet
EndChar
StartChar: backslash
Encoding: 92 92 47
Width: 1360
GlyphClass: 2
Flags: W
Fore
992 -640 m 1,0,-1
 136 -640 l 1,1,-1
 136 -544 l 1,2,-1
 449 -544 l 2,3,4
 495 -544 495 -544 529.5 -540.5 c 128,-1,5
 564 -537 564 -537 585 -531 c 0,6,7
 629 -519 629 -519 650 -467 c 0,8,9
 672 -415 672 -415 672 -301 c 2,10,-1
 672 2462 l 2,11,12
 672 2623 672 2623 457 2623 c 2,13,-1
 136 2623 l 1,14,-1
 136 2719 l 1,15,-1
 992 2719 l 1,16,-1
 992 -640 l 1,0,-1
EndSplineSet
EndChar
StartChar: asciicircum
Encoding: 94 94 48
Width: 2048
GlyphClass: 2
Flags: W
Fore
2048 -496 m 1,0,-1
 0 -496 l 1,1,-1
 0 -289 l 1,2,-1
 2048 -289 l 1,3,-1
 2048 -496 l 1,0,-1
EndSplineSet
EndChar
StartChar: grave
Encoding: 96 96 49
Width: 1815
GlyphClass: 2
Flags: W
Fore
1152 1205 m 1,0,-1
 1152 1459 l 2,1,2
 1152 1639 1152 1639 1063 1715 c 0,3,4
 1019 1752 1019 1752 966 1771.5 c 128,-1,5
 913 1791 913 1791 853 1791 c 0,6,7
 750 1791 750 1791 659 1737 c 0,8,9
 569 1682 569 1682 564 1570 c 1,10,11
 589 1522 589 1522 589 1425 c 0,12,13
 589 1341 589 1341 530 1295 c 0,14,15
 470 1248 470 1248 403 1248 c 128,-1,16
 336 1248 336 1248 284 1300 c 0,17,18
 232 1354 232 1354 226 1432 c 1,19,20
 256 1576 256 1576 358 1680 c 0,21,22
 461 1784 461 1784 604 1835 c 0,23,24
 676 1860 676 1860 751 1873.5 c 128,-1,25
 826 1887 826 1887 902 1887 c 1,26,27
 1016 1880 1016 1880 1106.5 1860 c 128,-1,28
 1197 1840 1197 1840 1262 1808 c 1,29,30
 1394 1739 1394 1739 1448 1604 c 0,31,32
 1504 1468 1504 1468 1504 1239 c 2,33,-1
 1504 437 l 2,34,35
 1504 386 1504 386 1506.5 348 c 128,-1,36
 1509 310 1509 310 1512 285 c 1,37,38
 1517 261 1517 261 1525 243.5 c 128,-1,39
 1533 226 1533 226 1543 217 c 0,40,41
 1567 196 1567 196 1615 192 c 0,42,43
 1623 192 1623 192 1631 183 c 1,44,45
 1679 188 1679 188 1721 210.5 c 128,-1,46
 1763 233 1763 233 1799 269 c 1,47,-1
 1799 161 l 1,48,49
 1627 -32 1627 -32 1446 -32 c 0,50,51
 1291 -32 1291 -32 1233 40 c 0,52,53
 1205 76 1205 76 1186.5 130.5 c 128,-1,54
 1168 185 1168 185 1160 256 c 1,55,56
 846 -32 846 -32 576 -32 c 0,57,58
 386 -32 386 -32 272 92 c 0,59,60
 215 155 215 155 182.5 234 c 128,-1,61
 150 313 150 313 143 408 c 1,62,63
 151 493 151 493 180.5 568 c 128,-1,64
 210 643 210 643 259 707 c 0,65,66
 359 834 359 834 507 922 c 0,67,68
 581 965 581 965 663.5 1005 c 128,-1,69
 746 1045 746 1045 836 1081 c 128,-1,70
 926 1117 926 1117 1005.5 1148 c 128,-1,71
 1085 1179 1085 1179 1152 1205 c 1,0,-1
514 444 m 1,72,73
 538 329 538 329 597 272 c 1,74,75
 628 245 628 245 670 224.5 c 128,-1,76
 712 204 712 204 766 192 c 1,77,78
 837 199 837 199 903.5 219.5 c 128,-1,79
 970 240 970 240 1030 274 c 1,80,81
 1152 340 1152 340 1152 462 c 2,82,-1
 1152 1096 l 1,83,84
 864 995 864 995 689 850 c 128,-1,85
 514 705 514 705 514 444 c 1,72,73
EndSplineSet
EndChar
StartChar: b
Encoding: 98 98 50
Width: 2048
GlyphClass: 2
Flags: W
Fore
288 217 m 2,0,-1
 288 2412 l 2,1,2
 288 2499 288 2499 249 2531 c 0,3,4
 211 2564 211 2564 120 2564 c 2,5,-1
 25 2564 l 1,6,-1
 25 2628 l 1,7,8
 220 2682 220 2682 370 2729 c 128,-1,9
 520 2776 520 2776 622 2815 c 1,10,-1
 640 2805 l 1,11,-1
 640 1529 l 1,12,-1
 647 1529 l 1,13,14
 728 1696 728 1696 884 1792 c 0,15,16
 1039 1887 1039 1887 1196 1887 c 0,17,18
 1306 1887 1306 1887 1403 1854 c 128,-1,19
 1500 1821 1500 1821 1582 1756 c 0,20,21
 1665 1691 1665 1691 1728.5 1606.5 c 128,-1,22
 1792 1522 1792 1522 1834 1420 c 0,23,24
 1920 1214 1920 1214 1920 994 c 0,25,26
 1920 718 1920 718 1798 482 c 0,27,28
 1675 245 1675 245 1454 106 c 0,29,30
 1232 -32 1232 -32 952 -32 c 0,31,32
 877 -32 877 -32 798.5 -21.5 c 128,-1,33
 720 -11 720 -11 640 7 c 1,34,35
 559 28 559 28 494.5 53.5 c 128,-1,36
 430 79 430 79 383 109 c 0,37,38
 288 170 288 170 288 217 c 2,0,-1
640 292 m 2,39,40
 640 211 640 211 754 156 c 0,41,42
 869 101 869 101 1019 95 c 1,43,44
 1209 95 1209 95 1324 203 c 0,45,46
 1440 310 1440 310 1488 476 c 0,47,48
 1536 644 1536 644 1536 824 c 0,49,50
 1536 964 1536 964 1505.5 1096 c 128,-1,51
 1475 1228 1475 1228 1415 1352 c 0,52,53
 1293 1599 1293 1599 1034 1599 c 0,54,55
 964 1599 964 1599 897 1578 c 128,-1,56
 830 1557 830 1557 767 1517 c 1,57,58
 640 1433 640 1433 640 1302 c 2,59,-1
 640 292 l 2,39,40
EndSplineSet
EndChar
StartChar: c
Encoding: 99 99 51
Width: 1815
GlyphClass: 2
Flags: W
Fore
154 1264 m 0,0,1
 194 1367 194 1367 249 1454.5 c 128,-1,2
 304 1542 304 1542 373 1613 c 0,3,4
 512 1754 512 1754 676 1821 c 0,5,6
 841 1887 841 1887 1010 1887 c 0,7,8
 1167 1887 1167 1887 1312 1833 c 0,9,10
 1384 1807 1384 1807 1442.5 1770.5 c 128,-1,11
 1501 1734 1501 1734 1544 1688 c 0,12,13
 1632 1597 1632 1597 1638 1483 c 1,14,15
 1638 1438 1638 1438 1622.5 1402 c 128,-1,16
 1607 1366 1607 1366 1577 1341 c 1,17,18
 1516 1287 1516 1287 1448 1287 c 0,19,20
 1293 1287 1293 1287 1229 1547 c 1,21,22
 1217 1589 1217 1589 1204 1620.5 c 128,-1,23
 1191 1652 1191 1652 1179 1672 c 0,24,25
 1167 1693 1167 1693 1146 1709 c 128,-1,26
 1125 1725 1125 1725 1097 1735 c 0,27,28
 1040 1758 1040 1758 932 1758 c 0,29,30
 757 1758 757 1758 639 1644 c 0,31,32
 522 1529 522 1529 469 1361 c 0,33,34
 416 1191 416 1191 416 1033 c 1,35,36
 421 884 421 884 464 753 c 128,-1,37
 507 622 507 622 587 511 c 0,38,39
 749 287 749 287 1060 287 c 0,40,41
 1150 287 1150 287 1230 310 c 128,-1,42
 1310 333 1310 333 1377 380 c 0,43,44
 1445 426 1445 426 1511 498 c 128,-1,45
 1577 570 1577 570 1638 668 c 1,46,-1
 1696 618 l 1,47,48
 1407 -32 1407 -32 873 -32 c 0,49,50
 637 -32 637 -32 459 93 c 1,51,52
 280 222 280 222 188 426 c 0,53,54
 143 529 143 529 119.5 638.5 c 128,-1,55
 96 748 96 748 96 863 c 0,56,57
 96 992 96 992 111 1092.5 c 128,-1,58
 126 1193 126 1193 154 1264 c 0,0,1
EndSplineSet
EndChar
StartChar: d
Encoding: 100 100 52
Width: 2048
GlyphClass: 2
Flags: W
Fore
316 1520 m 1,0,1
 376 1605 376 1605 448 1672.5 c 128,-1,2
 520 1740 520 1740 602 1789 c 0,3,4
 769 1887 769 1887 947 1887 c 1,5,6
 1022 1884 1022 1884 1082 1871 c 128,-1,7
 1142 1858 1142 1858 1185 1835 c 1,8,9
 1230 1813 1230 1813 1277.5 1779 c 128,-1,10
 1325 1745 1325 1745 1376 1701 c 1,11,-1
 1376 2354 l 1,12,-1
 1376 2404 l 2,13,14
 1376 2559 1376 2559 1216 2559 c 2,15,-1
 1093 2559 l 1,16,-1
 1093 2626 l 1,17,18
 1374 2698 1374 2698 1710 2815 c 1,19,-1
 1728 2806 l 1,20,-1
 1728 441 l 2,21,22
 1728 349 1728 349 1758 303 c 0,23,24
 1789 254 1789 254 1912 247 c 1,25,26
 1932 252 1932 252 1956 254 c 128,-1,27
 1980 256 1980 256 2006 256 c 1,28,-1
 2006 190 l 1,29,30
 1940 165 1940 165 1865 137 c 128,-1,31
 1790 109 1790 109 1705 81 c 1,32,33
 1620 51 1620 51 1542 22.5 c 128,-1,34
 1464 -6 1464 -6 1392 -32 c 1,35,-1
 1376 -32 l 1,36,-1
 1376 240 l 1,37,-1
 1367 240 l 1,38,39
 1327 179 1327 179 1278 129.5 c 128,-1,40
 1229 80 1229 80 1173 43 c 0,41,42
 1117 5 1117 5 1035 -13.5 c 128,-1,43
 953 -32 953 -32 846 -32 c 0,44,45
 759 -32 759 -32 681 -14.5 c 128,-1,46
 603 3 603 3 534 38 c 128,-1,47
 465 73 465 73 406.5 121.5 c 128,-1,48
 348 170 348 170 301 231 c 0,49,50
 254 293 254 293 218 363 c 128,-1,51
 182 433 182 433 159 510 c 0,52,53
 111 664 111 664 111 835 c 0,54,55
 111 1040 111 1040 162.5 1211 c 128,-1,56
 214 1382 214 1382 316 1520 c 1,0,1
1376 441 m 1,57,-1
 1376 1316 l 2,58,59
 1376 1367 1376 1367 1364.5 1418 c 128,-1,60
 1353 1469 1353 1469 1330 1520 c 0,61,62
 1308 1571 1308 1571 1272.5 1614 c 128,-1,63
 1237 1657 1237 1657 1190 1690 c 0,64,65
 1096 1758 1096 1758 957 1758 c 0,66,67
 779 1758 779 1758 668 1637 c 1,68,69
 558 1514 558 1514 511 1338 c 0,70,71
 464 1159 464 1159 455 985 c 1,72,73
 463 952 463 952 463 908 c 1,74,75
 484 623 484 623 615 408 c 0,76,77
 746 195 746 195 1013 190 c 0,78,79
 1079 190 1079 190 1141 208.5 c 128,-1,80
 1203 227 1203 227 1258 263 c 0,81,82
 1370 338 1370 338 1376 441 c 1,57,-1
EndSplineSet
EndChar
StartChar: e
Encoding: 101 101 53
Width: 1815
GlyphClass: 2
Flags: W
Fore
163 1285 m 0,0,1
 227 1484 227 1484 357 1620 c 0,2,3
 422 1687 422 1687 493.5 1737 c 128,-1,4
 565 1787 565 1787 643 1821 c 0,5,6
 800 1887 800 1887 951 1887 c 0,7,8
 1266 1887 1266 1887 1459 1706 c 0,9,10
 1555 1615 1555 1615 1612 1476 c 128,-1,11
 1669 1337 1669 1337 1685 1151 c 1,12,-1
 390 1151 l 1,13,14
 397 1041 397 1041 417 935 c 128,-1,15
 437 829 437 829 469 727 c 0,16,17
 502 625 502 625 554.5 540.5 c 128,-1,18
 607 456 607 456 677 390 c 0,19,20
 748 322 748 322 840.5 288.5 c 128,-1,21
 933 255 933 255 1046 255 c 0,22,23
 1443 255 1443 255 1693 686 c 1,24,-1
 1760 652 l 1,25,26
 1728 557 1728 557 1679.5 469.5 c 128,-1,27
 1631 382 1631 382 1568 304 c 0,28,29
 1440 147 1440 147 1264 57 c 1,30,31
 1086 -32 1086 -32 884 -32 c 0,32,33
 805 -32 805 -32 737 -24 c 128,-1,34
 669 -16 669 -16 614 0 c 1,35,36
 451 52 451 52 337 181 c 0,37,38
 221 311 221 311 161 489 c 0,39,40
 131 577 131 577 114.5 672.5 c 128,-1,41
 98 768 98 768 96 870 c 1,42,43
 102 990 102 990 119 1094 c 128,-1,44
 136 1198 136 1198 163 1285 c 0,0,1
407 1279 m 1,45,-1
 1257 1279 l 1,46,47
 1236 1413 1236 1413 1203 1507 c 0,48,49
 1187 1553 1187 1553 1157.5 1592 c 128,-1,50
 1128 1631 1128 1631 1087 1663 c 0,51,52
 1005 1726 1005 1726 859 1726 c 0,53,54
 484 1726 484 1726 407 1279 c 1,45,-1
EndSplineSet
EndChar
StartChar: f
Encoding: 102 102 54
Width: 1360
GlyphClass: 2
Flags: W
Fore
416 432 m 2,0,-1
 416 1695 l 1,1,-1
 76 1695 l 1,2,-1
 76 1855 l 1,3,-1
 416 1855 l 1,4,5
 416 2021 416 2021 437 2155 c 128,-1,6
 458 2289 458 2289 498 2390 c 0,7,8
 581 2593 581 2593 760 2705 c 1,9,10
 932 2815 932 2815 1167 2815 c 0,11,12
 1257 2815 1257 2815 1352 2788 c 0,13,14
 1400 2774 1400 2774 1440.5 2752 c 128,-1,15
 1481 2730 1481 2730 1513 2700 c 0,16,17
 1579 2641 1579 2641 1579 2549 c 0,18,19
 1579 2472 1579 2472 1535 2435 c 1,20,21
 1513 2418 1513 2418 1481 2402.5 c 128,-1,22
 1449 2387 1449 2387 1407 2376 c 1,23,24
 1378 2378 1378 2378 1354 2388 c 128,-1,25
 1330 2398 1330 2398 1313 2415 c 0,26,27
 1278 2450 1278 2450 1221 2531 c 0,28,29
 1193 2571 1193 2571 1168 2601.5 c 128,-1,30
 1143 2632 1143 2632 1122 2650 c 128,-1,31
 1101 2668 1101 2668 1073 2677.5 c 128,-1,32
 1045 2687 1045 2687 1012 2687 c 0,33,34
 760 2687 760 2687 760 2362 c 2,35,-1
 760 1855 l 1,36,-1
 1281 1855 l 1,37,-1
 1281 1695 l 1,38,-1
 768 1695 l 1,39,-1
 768 440 l 2,40,41
 768 353 768 353 773 292.5 c 128,-1,42
 778 232 778 232 787 197 c 0,43,44
 796 163 796 163 820.5 138.5 c 128,-1,45
 845 114 845 114 883 100 c 0,46,47
 922 86 922 86 986.5 76 c 128,-1,48
 1051 66 1051 66 1141 63 c 1,49,-1
 1141 0 l 1,50,-1
 72 0 l 1,51,-1
 72 63 l 1,52,53
 147 67 147 67 201.5 74.5 c 128,-1,54
 256 82 256 82 287 92 c 0,55,56
 353 111 353 111 384 186 c 0,57,58
 416 263 416 263 416 432 c 2,0,-1
EndSplineSet
EndChar
StartChar: g
Encoding: 103 103 55
Width: 2048
GlyphClass: 2
Flags: W
Fore
446 -483 m 1,0,1
 480 -520 480 -520 534 -549 c 128,-1,2
 588 -578 588 -578 661 -598 c 0,3,4
 808 -640 808 -640 991 -640 c 0,5,6
 1097 -640 1097 -640 1194 -629 c 128,-1,7
 1291 -618 1291 -618 1379 -597 c 128,-1,8
 1467 -576 1467 -576 1538 -544 c 128,-1,9
 1609 -512 1609 -512 1661 -471 c 0,10,11
 1767 -388 1767 -388 1779 -276 c 1,12,13
 1779 -171 1779 -171 1714 -121 c 0,14,15
 1648 -71 1648 -71 1451 -65 c 0,16,17
 1443 -65 1443 -65 1378.5 -62.5 c 128,-1,18
 1314 -60 1314 -60 1195 -56 c 128,-1,19
 1076 -52 1076 -52 982.5 -47 c 128,-1,20
 889 -42 889 -42 823 -37 c 128,-1,21
 757 -32 757 -32 700 -22.5 c 128,-1,22
 643 -13 643 -13 598 0 c 1,23,24
 416 -193 416 -193 401 -348 c 1,25,26
 406 -380 406 -380 417.5 -414 c 128,-1,27
 429 -448 429 -448 446 -483 c 1,0,1
631 1248 m 1,28,29
 640 1157 640 1157 668 1070 c 128,-1,30
 696 983 696 983 742 903 c 0,31,32
 836 738 836 738 1049 734 c 1,33,34
 1196 734 1196 734 1270 835 c 128,-1,35
 1344 936 1344 936 1344 1108 c 0,36,37
 1344 1332 1344 1332 1243 1545 c 0,38,39
 1143 1758 1143 1758 938 1758 c 0,40,41
 635 1758 635 1758 623 1375 c 1,42,43
 631 1334 631 1334 631 1248 c 1,28,29
1619 1470 m 0,44,45
 1642 1398 1642 1398 1653 1333 c 128,-1,46
 1664 1268 1664 1268 1664 1209 c 0,47,48
 1664 1039 1664 1039 1574 901 c 0,49,50
 1529 832 1529 832 1468 777.5 c 128,-1,51
 1407 723 1407 723 1332 684 c 0,52,53
 1257 646 1257 646 1175.5 626.5 c 128,-1,54
 1094 607 1094 607 1008 607 c 1,55,56
 983 610 983 610 957 614 c 128,-1,57
 931 618 931 618 906 621 c 0,58,59
 881 625 881 625 852.5 629.5 c 128,-1,60
 824 634 824 634 791 637 c 1,61,62
 716 625 716 625 632 537 c 0,63,64
 549 449 549 449 537 372 c 1,65,66
 551 285 551 285 745 274 c 1,67,68
 797 269 797 269 888 264 c 128,-1,69
 979 259 979 259 1104 255 c 0,70,71
 1358 244 1358 244 1479 226 c 0,72,73
 1601 207 1601 207 1697 154 c 1,74,75
 1889 51 1889 51 1889 -258 c 1,76,77
 1884 -337 1884 -337 1846 -411 c 128,-1,78
 1808 -485 1808 -485 1739 -553 c 128,-1,79
 1670 -621 1670 -621 1583.5 -678 c 128,-1,80
 1497 -735 1497 -735 1395 -780 c 128,-1,81
 1293 -825 1293 -825 1191.5 -854.5 c 128,-1,82
 1090 -884 1090 -884 991 -896 c 1,83,84
 979 -896 979 -896 960.5 -896 c 128,-1,85
 942 -896 942 -896 918 -896 c 0,86,87
 895 -896 895 -896 874.5 -896 c 128,-1,88
 854 -896 854 -896 840 -896 c 0,89,90
 748 -896 748 -896 659 -882.5 c 128,-1,91
 570 -869 570 -869 486 -844 c 0,92,93
 401 -818 401 -818 333 -780.5 c 128,-1,94
 265 -743 265 -743 214 -696 c 0,95,96
 163 -648 163 -648 137 -592.5 c 128,-1,97
 111 -537 111 -537 111 -475 c 0,98,99
 111 -381 111 -381 211.5 -257.5 c 128,-1,100
 312 -134 312 -134 512 15 c 1,101,102
 451 46 451 46 409.5 70.5 c 128,-1,103
 368 95 368 95 347 111 c 0,104,105
 306 145 306 145 295 222 c 1,106,107
 295 309 295 309 382 407 c 0,108,109
 426 455 426 455 497 522.5 c 128,-1,110
 568 590 568 590 664 675 c 1,111,112
 497 753 497 753 391 888 c 0,113,114
 339 956 339 956 310.5 1035.5 c 128,-1,115
 282 1115 282 1115 279 1205 c 1,116,117
 285 1280 285 1280 300 1349.5 c 128,-1,118
 315 1419 315 1419 336 1482 c 1,119,120
 365 1555 365 1555 408 1614.5 c 128,-1,121
 451 1674 451 1674 508 1719 c 0,122,123
 566 1764 566 1764 626.5 1795.5 c 128,-1,124
 687 1827 687 1827 748 1844 c 0,125,126
 802 1860 802 1860 854.5 1870 c 128,-1,127
 907 1880 907 1880 956 1884 c 1,128,129
 1023 1884 1023 1884 1085.5 1876 c 128,-1,130
 1148 1868 1148 1868 1207.5 1849.5 c 128,-1,131
 1267 1831 1267 1831 1326.5 1802 c 128,-1,132
 1386 1773 1386 1773 1447 1731 c 1,133,134
 1451 1732 1451 1732 1459 1730.5 c 128,-1,135
 1467 1729 1467 1729 1477 1728.5 c 128,-1,136
 1487 1728 1487 1728 1499.5 1731 c 128,-1,137
 1512 1734 1512 1734 1525 1744 c 0,138,139
 1557 1770 1557 1770 1592 1782 c 128,-1,140
 1627 1794 1627 1794 1656 1806 c 0,141,142
 1717 1832 1717 1832 1766 1832 c 0,143,144
 1919 1832 1919 1832 1926 1692 c 1,145,146
 1926 1550 1926 1550 1807 1550 c 0,147,148
 1787 1550 1787 1550 1757.5 1562.5 c 128,-1,149
 1728 1575 1728 1575 1690 1599 c 0,150,151
 1614 1649 1614 1649 1570 1649 c 0,152,153
 1552 1649 1552 1649 1542.5 1645.5 c 128,-1,154
 1533 1642 1533 1642 1515 1631 c 1,155,156
 1557 1582 1557 1582 1582 1546 c 128,-1,157
 1607 1510 1607 1510 1619 1470 c 0,44,45
EndSplineSet
EndChar
StartChar: h
Encoding: 104 104 56
Width: 2048
GlyphClass: 2
Flags: W
Fore
288 426 m 2,0,-1
 288 2294 l 2,1,2
 288 2453 288 2453 262 2505 c 1,3,4
 235 2555 235 2555 112 2555 c 2,5,-1
 34 2555 l 1,6,-1
 34 2621 l 1,7,8
 72 2632 72 2632 143.5 2655 c 128,-1,9
 215 2678 215 2678 320 2710 c 0,10,11
 426 2741 426 2741 506 2768 c 128,-1,12
 586 2795 586 2795 640 2815 c 1,13,-1
 640 1527 l 1,14,-1
 640 1520 l 1,15,16
 763 1697 763 1697 910.5 1789 c 128,-1,17
 1058 1881 1058 1881 1230 1887 c 1,18,19
 1760 1887 1760 1887 1760 1239 c 2,20,-1
 1760 335 l 2,21,22
 1760 179 1760 179 1813 131 c 0,23,24
 1840 107 1840 107 1888.5 90 c 128,-1,25
 1937 73 1937 73 2006 65 c 1,26,-1
 2006 0 l 1,27,-1
 1125 0 l 1,28,-1
 1125 63 l 1,29,30
 1184 67 1184 67 1227 74.5 c 128,-1,31
 1270 82 1270 82 1296 91 c 0,32,33
 1350 111 1350 111 1379 181 c 0,34,35
 1408 253 1408 253 1408 408 c 2,36,-1
 1408 1223 l 2,37,38
 1408 1434 1408 1434 1324 1531 c 1,39,40
 1240 1631 1240 1631 1102 1631 c 0,41,42
 867 1631 867 1631 632 1381 c 1,43,-1
 632 383 l 2,44,45
 632 242 632 242 665 177 c 0,46,47
 698 109 698 109 753 91 c 0,48,49
 807 73 807 73 915 63 c 1,50,-1
 915 0 l 1,51,-1
 34 0 l 1,52,-1
 34 65 l 1,53,54
 95 70 95 70 138 80 c 128,-1,55
 181 90 181 90 205 104 c 0,56,57
 230 117 230 117 247 141.5 c 128,-1,58
 264 166 264 166 271 201 c 0,59,60
 279 235 279 235 283.5 292 c 128,-1,61
 288 349 288 349 288 426 c 2,0,-1
EndSplineSet
EndChar
StartChar: i
Encoding: 105 105 57
Width: 2965
GlyphClass: 2
Flags: W
Fore
448 630 m 2,0,-1
 448 2399 l 1,1,2
 342 2526 342 2526 269 2575 c 0,3,4
 196 2623 196 2623 51 2623 c 1,5,-1
 51 2719 l 1,6,-1
 770 2719 l 1,7,-1
 2327 752 l 1,8,-1
 2336 752 l 1,9,-1
 2336 2123 l 2,10,11
 2336 2462 2336 2462 2217 2557 c 1,12,13
 2124 2623 2124 2623 1946 2623 c 1,14,-1
 1946 2719 l 1,15,-1
 2913 2719 l 1,16,-1
 2913 2623 l 1,17,18
 2841 2617 2841 2617 2785.5 2606.5 c 128,-1,19
 2730 2596 2730 2596 2692 2580 c 0,20,21
 2614 2550 2614 2550 2572 2451 c 0,22,23
 2528 2350 2528 2350 2528 2150 c 2,24,-1
 2528 -49 l 1,25,-1
 2455 -49 l 1,26,-1
 647 2177 l 1,27,-1
 647 2062 l 1,28,-1
 647 641 l 2,29,30
 647 558 647 558 652 484.5 c 128,-1,31
 657 411 657 411 665 360 c 0,32,33
 674 309 674 309 689 269 c 128,-1,34
 704 229 704 229 725 201 c 0,35,36
 768 143 768 143 840 122 c 0,37,38
 876 111 876 111 924.5 104 c 128,-1,39
 973 97 973 97 1033 95 c 1,40,-1
 1033 0 l 1,41,-1
 51 0 l 1,42,-1
 51 95 l 1,43,44
 128 104 128 104 179.5 111 c 128,-1,45
 231 118 231 118 256 124 c 0,46,47
 307 134 307 134 354 179 c 1,48,49
 401 226 401 226 424 331 c 0,50,51
 436 384 436 384 442 459.5 c 128,-1,52
 448 535 448 535 448 630 c 2,0,-1
EndSplineSet
EndChar
StartChar: o
Encoding: 111 111 58
Width: 2048
GlyphClass: 2
Flags: W
Fore
96 940 m 0,0,1
 96 1022 96 1022 110 1104.5 c 128,-1,2
 124 1187 124 1187 151 1270 c 0,3,4
 179 1353 179 1353 220.5 1430 c 128,-1,5
 262 1507 262 1507 316 1576 c 0,6,7
 371 1645 371 1645 440.5 1701.5 c 128,-1,8
 510 1758 510 1758 594 1801 c 0,9,10
 763 1887 763 1887 983 1887 c 0,11,12
 1173 1887 1173 1887 1320.5 1842 c 128,-1,13
 1468 1797 1468 1797 1573 1708 c 0,14,15
 1679 1620 1679 1620 1749 1521 c 128,-1,16
 1819 1422 1819 1422 1852 1314 c 0,17,18
 1920 1096 1920 1096 1920 933 c 1,19,20
 1915 842 1915 842 1893.5 743 c 128,-1,21
 1872 644 1872 644 1834 537 c 0,22,23
 1797 431 1797 431 1726.5 335 c 128,-1,24
 1656 239 1656 239 1556 154 c 0,25,26
 1355 -17 1355 -17 1004 -32 c 1,27,28
 904 -32 904 -32 801 -8 c 128,-1,29
 698 16 698 16 593 66 c 0,30,31
 487 115 487 115 398.5 195 c 128,-1,32
 310 275 310 275 239 385 c 0,33,34
 96 607 96 607 96 940 c 0,0,1
480 1128 m 0,35,36
 480 1031 480 1031 493.5 922 c 128,-1,37
 507 813 507 813 533 693 c 0,38,39
 560 574 560 574 606.5 468.5 c 128,-1,40
 653 363 653 363 719 274 c 0,41,42
 785 184 785 184 873 139.5 c 128,-1,43
 961 95 961 95 1069 95 c 1,44,45
 1162 98 1162 98 1243.5 141 c 128,-1,46
 1325 184 1325 184 1395 265 c 0,47,48
 1536 429 1536 429 1536 806 c 0,49,50
 1536 1021 1536 1021 1485 1237 c 0,51,52
 1460 1346 1460 1346 1414 1438 c 128,-1,53
 1368 1530 1368 1530 1303 1606 c 0,54,55
 1239 1682 1239 1682 1151.5 1720 c 128,-1,56
 1064 1758 1064 1758 956 1758 c 0,57,58
 702 1758 702 1758 591 1550 c 0,59,60
 480 1341 480 1341 480 1128 c 0,35,36
EndSplineSet
EndChar
StartChar: p
Encoding: 112 112 59
Width: 2048
GlyphClass: 2
Flags: W
Fore
640 1364 m 1,0,-1
 640 383 l 2,1,2
 640 285 640 285 774 190 c 0,3,4
 909 95 909 95 1057 95 c 0,5,6
 1244 95 1244 95 1358 222 c 0,7,8
 1415 287 1415 287 1456 366.5 c 128,-1,9
 1497 446 1497 446 1520 539 c 0,10,11
 1544 633 1544 633 1556 726.5 c 128,-1,12
 1568 820 1568 820 1568 913 c 0,13,14
 1567 1013 1567 1013 1550 1103.5 c 128,-1,15
 1533 1194 1533 1194 1502 1275 c 0,16,17
 1439 1437 1439 1437 1331 1529 c 0,18,19
 1277 1576 1277 1576 1216.5 1602 c 128,-1,20
 1156 1628 1156 1628 1090 1631 c 1,21,22
 994 1631 994 1631 892 1595 c 0,23,24
 841 1577 841 1577 797.5 1552.5 c 128,-1,25
 754 1528 754 1528 719 1497 c 0,26,27
 649 1435 649 1435 640 1364 c 1,0,-1
10 -896 m 1,28,-1
 10 -800 l 1,29,30
 147 -800 147 -800 235 -740 c 1,31,32
 253 -726 253 -726 264.5 -706.5 c 128,-1,33
 276 -687 276 -687 280 -664 c 128,-1,34
 284 -641 284 -641 286 -603.5 c 128,-1,35
 288 -566 288 -566 288 -516 c 2,36,-1
 288 1396 l 2,37,38
 288 1525 288 1525 258 1563 c 1,39,40
 229 1603 229 1603 153 1603 c 2,41,-1
 26 1603 l 1,42,-1
 26 1672 l 1,43,44
 143 1706 143 1706 290.5 1760 c 128,-1,45
 438 1814 438 1814 615 1887 c 1,46,-1
 640 1887 l 1,47,-1
 640 1570 l 1,48,-1
 648 1561 l 1,49,50
 905 1887 905 1887 1249 1887 c 1,51,52
 1356 1884 1356 1884 1447 1847.5 c 128,-1,53
 1538 1811 1538 1811 1615 1744 c 1,54,55
 1769 1607 1769 1607 1844 1402 c 0,56,57
 1882 1299 1882 1299 1901 1195 c 128,-1,58
 1920 1091 1920 1091 1920 985 c 0,59,60
 1920 735 1920 735 1815 501 c 1,61,62
 1710 262 1710 262 1516 116 c 0,63,64
 1321 -32 1321 -32 1065 -32 c 0,65,66
 918 -32 918 -32 838 2 c 1,67,68
 758 39 758 39 640 144 c 1,69,-1
 640 -507 l 2,70,71
 640 -571 640 -571 649 -619 c 128,-1,72
 658 -667 658 -667 674 -698 c 0,73,74
 708 -760 708 -760 784 -780 c 0,75,76
 822 -790 822 -790 879 -795 c 128,-1,77
 936 -800 936 -800 1009 -800 c 1,78,-1
 1009 -896 l 1,79,-1
 10 -896 l 1,28,-1
EndSplineSet
EndChar
StartChar: q
Encoding: 113 113 60
Width: 2736
GlyphClass: 2
Flags: W
Fore
416 530 m 2,0,-1
 416 2268 l 2,1,2
 416 2344 416 2344 410.5 2400 c 128,-1,3
 405 2456 405 2456 394 2490 c 0,4,5
 384 2526 384 2526 360.5 2552 c 128,-1,6
 337 2578 337 2578 302 2593 c 0,7,8
 231 2624 231 2624 72 2637 c 1,9,-1
 72 2719 l 1,10,-1
 1239 2719 l 2,11,12
 1341 2719 1341 2719 1437 2708.5 c 128,-1,13
 1533 2698 1533 2698 1621 2678 c 0,14,15
 1710 2659 1710 2659 1790.5 2627 c 128,-1,16
 1871 2595 1871 2595 1940 2553 c 0,17,18
 2010 2509 2010 2509 2065 2452 c 128,-1,19
 2120 2395 2120 2395 2160 2326 c 0,20,21
 2240 2185 2240 2185 2240 1995 c 1,22,23
 2234 1714 2234 1714 2067 1540 c 0,24,25
 1983 1453 1983 1453 1841.5 1389.5 c 128,-1,26
 1700 1326 1700 1326 1501 1287 c 1,27,-1
 2308 335 l 2,28,29
 2351 284 2351 284 2382.5 249 c 128,-1,30
 2414 214 2414 214 2433 195 c 0,31,32
 2473 155 2473 155 2543 126 c 0,33,34
 2578 111 2578 111 2622.5 103 c 128,-1,35
 2667 95 2667 95 2719 95 c 1,36,-1
 2719 0 l 1,37,-1
 2038 0 l 1,38,-1
 1058 1246 l 1,39,-1
 832 1237 l 1,40,-1
 832 428 l 2,41,42
 832 293 832 293 861 227 c 0,43,44
 876 194 876 194 902.5 169.5 c 128,-1,45
 929 145 929 145 967 131 c 0,46,47
 1044 101 1044 101 1200 95 c 1,48,-1
 1200 0 l 1,49,-1
 72 0 l 1,50,-1
 72 95 l 1,51,52
 155 100 155 100 213 109.5 c 128,-1,53
 271 119 271 119 304 133 c 0,54,55
 370 160 370 160 393 245 c 0,56,57
 416 331 416 331 416 530 c 2,0,-1
832 2424 m 2,58,-1
 832 1407 l 1,59,60
 1117 1407 1117 1407 1325 1452 c 0,61,62
 1534 1497 1534 1497 1663 1629 c 128,-1,63
 1792 1761 1792 1761 1792 2005 c 0,64,65
 1792 2559 1792 2559 1074 2559 c 0,66,67
 918 2559 918 2559 875 2528 c 0,68,69
 832 2498 832 2498 832 2424 c 2,58,-1
EndSplineSet
EndChar
StartChar: s
Encoding: 115 115 61
Width: 2048
GlyphClass: 2
Flags: W
Fore
200 1852 m 1,0,-1
 345 1997 l 1,1,-1
 1073 1270 l 1,2,-1
 1797 1994 l 1,3,-1
 1938 1853 l 1,4,-1
 1214 1129 l 1,5,-1
 1941 402 l 1,6,-1
 1796 256 l 1,7,-1
 1069 983 l 1,8,-1
 345 260 l 1,9,-1
 204 401 l 1,10,-1
 927 1125 l 1,11,-1
 200 1852 l 1,0,-1
EndSplineSet
EndChar
StartChar: y
Encoding: 121 121 62
Width: 1966
GlyphClass: 2
Flags: W
Fore
424 1017 m 1,0,1
 512 1043 512 1043 577 1078 c 128,-1,2
 642 1113 642 1113 684 1155 c 1,3,4
 768 1243 768 1243 768 1454 c 2,5,-1
 768 2166 l 2,6,7
 768 2569 768 2569 954 2677 c 0,8,9
 1046 2729 1046 2729 1172 2755.5 c 128,-1,10
 1298 2782 1298 2782 1457 2782 c 1,11,-1
 1457 2734 l 1,12,13
 1231 2687 1231 2687 1149 2550 c 1,14,15
 1119 2492 1119 2492 1103.5 2395.5 c 128,-1,16
 1088 2299 1088 2299 1088 2166 c 2,17,-1
 1088 1504 l 2,18,19
 1088 1278 1088 1278 998 1174 c 0,20,21
 909 1069 909 1069 694 1017 c 1,22,-1
 694 1010 l 1,23,24
 770 987 770 987 825 968 c 128,-1,25
 880 949 880 949 913 933 c 0,26,27
 946 918 946 918 976.5 884.5 c 128,-1,28
 1007 851 1007 851 1034 802 c 0,29,30
 1088 701 1088 701 1088 500 c 2,31,-1
 1088 -235 l 2,32,33
 1088 -620 1088 -620 1457 -696 c 1,34,-1
 1457 -745 l 1,35,36
 1349 -745 1349 -745 1256.5 -734.5 c 128,-1,37
 1164 -724 1164 -724 1091 -705 c 0,38,39
 1018 -685 1018 -685 959 -645 c 128,-1,40
 900 -605 900 -605 856 -547 c 0,41,42
 813 -488 813 -488 790.5 -403.5 c 128,-1,43
 768 -319 768 -319 768 -211 c 2,44,-1
 768 555 l 2,45,46
 768 783 768 783 688 870 c 0,47,48
 648 914 648 914 582 951 c 128,-1,49
 516 988 516 988 424 1017 c 1,0,1
EndSplineSet
EndChar
StartChar: bar
Encoding: 124 124 63
Width: 815
GlyphClass: 2
Flags: W
Fore
271 -65 m 1,0,-1
 271 2784 l 1,1,-1
 548 2784 l 1,2,-1
 544 -64 l 1,3,-1
 271 -65 l 1,0,-1
EndSplineSet
EndChar
StartChar: braceright
Encoding: 125 125 64
Width: 1966
GlyphClass: 2
Flags: W
Fore
1569 1017 m 1,0,1
 1504 998 1504 998 1453.5 977.5 c 128,-1,2
 1403 957 1403 957 1368 937 c 1,3,4
 1334 915 1334 915 1306 882.5 c 128,-1,5
 1278 850 1278 850 1257 806 c 0,6,7
 1216 714 1216 714 1216 555 c 2,8,-1
 1216 -195 l 2,9,10
 1216 -420 1216 -420 1128 -541 c 0,11,12
 1041 -663 1041 -663 893 -704 c 0,13,14
 744 -745 744 -745 528 -745 c 1,15,-1
 528 -696 l 1,16,17
 896 -618 896 -618 896 -235 c 2,18,-1
 896 500 l 2,19,20
 896 700 896 700 949 801 c 0,21,22
 976 851 976 851 1006.5 884.5 c 128,-1,23
 1037 918 1037 918 1070 933 c 128,-1,24
 1103 948 1103 948 1158.5 967.5 c 128,-1,25
 1214 987 1214 987 1290 1010 c 1,26,-1
 1290 1017 l 1,27,28
 1074 1069 1074 1069 985 1173 c 0,29,30
 896 1278 896 1278 896 1504 c 2,31,-1
 896 2166 l 2,32,33
 896 2435 896 2435 831 2550 c 1,34,35
 791 2617 791 2617 715 2663.5 c 128,-1,36
 639 2710 639 2710 528 2734 c 1,37,-1
 528 2782 l 1,38,39
 686 2782 686 2782 812 2755.5 c 128,-1,40
 938 2729 938 2729 1030 2677 c 1,41,42
 1216 2566 1216 2566 1216 2166 c 2,43,-1
 1216 1454 l 2,44,45
 1216 1381 1216 1381 1227 1322.5 c 128,-1,46
 1238 1264 1238 1264 1259 1221 c 0,47,48
 1302 1135 1302 1135 1374 1094 c 1,49,50
 1410 1072 1410 1072 1459 1053 c 128,-1,51
 1508 1034 1508 1034 1569 1017 c 1,0,1
EndSplineSet
EndChar
StartChar: asciitilde
Encoding: 126 126 65
Width: 1815
GlyphClass: 2
Flags: W
Fore
909 1207 m 1,0,1
 905 1109 905 1109 889.5 1020.5 c 128,-1,2
 874 932 874 932 848 854 c 0,3,4
 823 775 823 775 782.5 663.5 c 128,-1,5
 742 552 742 552 686 410 c 0,6,7
 631 267 631 267 593.5 151.5 c 128,-1,8
 556 36 556 36 536 -49 c 1,9,10
 533 -74 533 -74 527 -125 c 128,-1,11
 521 -176 521 -176 512 -250 c 1,12,13
 518 -502 518 -502 650 -635 c 0,14,15
 783 -768 783 -768 949 -768 c 0,16,17
 1012 -768 1012 -768 1074 -750 c 128,-1,18
 1136 -732 1136 -732 1194 -696 c 0,19,20
 1312 -624 1312 -624 1312 -511 c 0,21,22
 1312 -500 1312 -500 1308.5 -486.5 c 128,-1,23
 1305 -473 1305 -473 1298 -460 c 128,-1,24
 1291 -447 1291 -447 1279.5 -427.5 c 128,-1,25
 1268 -408 1268 -408 1252 -384 c 128,-1,26
 1236 -360 1236 -360 1225.5 -343.5 c 128,-1,27
 1215 -327 1215 -327 1211 -319 c 0,28,29
 1202 -298 1202 -298 1195 -271 c 128,-1,30
 1188 -244 1188 -244 1183 -209 c 1,31,32
 1188 -167 1188 -167 1198 -137.5 c 128,-1,33
 1208 -108 1208 -108 1223 -94 c 0,34,35
 1238 -79 1238 -79 1265.5 -63.5 c 128,-1,36
 1293 -48 1293 -48 1330 -32 c 1,37,38
 1433 -40 1433 -40 1484.5 -104.5 c 128,-1,39
 1536 -169 1536 -169 1536 -289 c 0,40,41
 1536 -478 1536 -478 1446 -614 c 0,42,43
 1356 -748 1356 -748 1208 -818 c 0,44,45
 1135 -853 1135 -853 1055.5 -872.5 c 128,-1,46
 976 -892 976 -892 893 -896 c 1,47,48
 836 -896 836 -896 768 -883.5 c 128,-1,49
 700 -871 700 -871 620 -847 c 0,50,51
 541 -822 541 -822 479.5 -794 c 128,-1,52
 418 -766 418 -766 374 -735 c 1,53,54
 128 -555 128 -555 128 -192 c 1,55,56
 138 -12 138 -12 246 154 c 0,57,58
 300 236 300 236 379 340 c 128,-1,59
 458 444 458 444 560 568 c 0,60,61
 789 844 789 844 834 1207 c 1,62,-1
 909 1207 l 1,0,1
860 1470 m 0,63,64
 816 1470 816 1470 776.5 1487 c 128,-1,65
 737 1504 737 1504 705 1536 c 0,66,67
 640 1604 640 1604 640 1695 c 0,68,69
 640 1787 640 1787 703 1853 c 128,-1,70
 766 1919 766 1919 860 1919 c 0,71,72
 952 1919 952 1919 1020 1853 c 128,-1,73
 1088 1787 1088 1787 1088 1695 c 0,74,75
 1088 1601 1088 1601 1020 1536 c 0,76,77
 951 1470 951 1470 860 1470 c 0,63,64
EndSplineSet
EndChar
StartChar: exclamdown
Encoding: 161 161 66
Width: 1360
GlyphClass: 2
Flags: W
Fore
581 1150 m 1,0,-1
 627 1150 l 1,1,2
 637 1015 637 1015 647.5 895.5 c 128,-1,3
 658 776 658 776 670 673 c 128,-1,4
 682 570 682 570 699.5 440 c 128,-1,5
 717 310 717 310 738 154 c 0,6,7
 760 -2 760 -2 777 -139 c 128,-1,8
 794 -276 794 -276 806 -392 c 0,9,10
 810 -423 810 -423 812 -467 c 128,-1,11
 814 -511 814 -511 814 -568 c 0,12,13
 814 -876 814 -876 601 -896 c 1,14,15
 534 -896 534 -896 492 -864 c 0,16,17
 472 -849 472 -849 456 -827.5 c 128,-1,18
 440 -806 440 -806 429 -780 c 0,19,20
 419 -755 419 -755 410.5 -726.5 c 128,-1,21
 402 -698 402 -698 397 -669 c 0,22,23
 393 -639 393 -639 387.5 -608 c 128,-1,24
 382 -577 382 -577 376 -544 c 1,25,26
 384 -475 384 -475 388.5 -436.5 c 128,-1,27
 393 -398 393 -398 393 -392 c 1,28,-1
 581 1150 l 1,0,-1
601 1919 m 0,29,30
 702 1919 702 1919 766 1853 c 0,31,32
 832 1786 832 1786 832 1690 c 0,33,34
 832 1600 832 1600 766 1536 c 0,35,36
 699 1470 699 1470 601 1470 c 0,37,38
 512 1470 512 1470 449 1536 c 1,39,40
 384 1602 384 1602 384 1690 c 0,41,42
 384 1785 384 1785 447 1851 c 0,43,44
 510 1919 510 1919 601 1919 c 0,29,30
EndSplineSet
EndChar
StartChar: sterling
Encoding: 163 163 67
Width: 2961
GlyphClass: 2
Flags: W
Fore
136 2798 m 1,0,-1
 2936 2798 l 1,1,-1
 2936 0 l 1,2,-1
 136 0 l 1,3,-1
 136 2798 l 1,0,-1
342 2591 m 1,4,-1
 342 206 l 1,5,-1
 2730 206 l 1,6,-1
 2730 2591 l 1,7,-1
 342 2591 l 1,4,-1
1536 1896 m 0,8,9
 1639 1896 1639 1896 1729.5 1857 c 128,-1,10
 1820 1818 1820 1818 1887.5 1750.5 c 128,-1,11
 1955 1683 1955 1683 1994.5 1592 c 128,-1,12
 2034 1501 2034 1501 2034 1398 c 0,13,14
 2034 1296 2034 1296 1994.5 1205 c 128,-1,15
 1955 1114 1955 1114 1887.5 1046.5 c 128,-1,16
 1820 979 1820 979 1729.5 940 c 128,-1,17
 1639 901 1639 901 1536 901 c 128,-1,18
 1433 901 1433 901 1342.5 940 c 128,-1,19
 1252 979 1252 979 1184.5 1046.5 c 128,-1,20
 1117 1114 1117 1114 1077.5 1205 c 128,-1,21
 1038 1296 1038 1296 1038 1398 c 0,22,23
 1038 1501 1038 1501 1077.5 1592 c 128,-1,24
 1117 1683 1117 1683 1184.5 1750.5 c 128,-1,25
 1252 1818 1252 1818 1342.5 1857 c 128,-1,26
 1433 1896 1433 1896 1536 1896 c 0,8,9
EndSplineSet
EndChar
StartChar: currency
Encoding: 164 164 68
Width: 2310
GlyphClass: 2
Flags: W
Fore
136 206 m 1,0,-1
 2183 206 l 1,1,-1
 2183 0 l 1,2,-1
 136 0 l 1,3,-1
 136 206 l 1,0,-1
136 813 m 1,4,-1
 2183 813 l 1,5,-1
 2183 613 l 1,6,-1
 136 613 l 1,7,-1
 136 813 l 1,4,-1
1060 1091 m 1,8,-1
 1060 1841 l 1,9,-1
 136 1841 l 1,10,-1
 136 2041 l 1,11,-1
 1060 2041 l 1,12,-1
 1060 2798 l 1,13,-1
 1262 2798 l 1,14,-1
 1262 2041 l 1,15,-1
 2183 2041 l 1,16,-1
 2183 1841 l 1,17,-1
 1262 1841 l 1,18,-1
 1262 1091 l 1,19,-1
 1060 1091 l 1,8,-1
EndSplineSet
EndChar
StartChar: yen
Encoding: 165 165 69
Width: 3641
GlyphClass: 2
Flags: W
Fore
1878 1127 m 1,0,1
 2051 1125 2051 1125 2189.5 1117 c 128,-1,2
 2328 1109 2328 1109 2443 1095.5 c 128,-1,3
 2558 1082 2558 1082 2654 1064.5 c 128,-1,4
 2750 1047 2750 1047 2838 1027 c 1,5,6
 2893 1082 2893 1082 2958 1134.5 c 128,-1,7
 3023 1187 3023 1187 3083.5 1234.5 c 128,-1,8
 3144 1282 3144 1282 3194 1324.5 c 128,-1,9
 3244 1367 3244 1367 3270 1402 c 0,10,11
 3317 1465 3317 1465 3341.5 1546 c 128,-1,12
 3366 1627 3366 1627 3366 1725 c 0,13,14
 3366 1905 3366 1905 3280 2024 c 1,15,16
 3126 2250 3126 2250 2811 2250 c 0,17,18
 2623 2250 2623 2250 2426 2170 c 1,19,20
 2338 2136 2338 2136 2271.5 2096.5 c 128,-1,21
 2205 2057 2205 2057 2162 2014 c 0,22,23
 2079 1932 2079 1932 2016.5 1823.5 c 128,-1,24
 1954 1715 1954 1715 1914 1582 c 0,25,26
 1900 1536 1900 1536 1893 1474 c 128,-1,27
 1886 1412 1886 1412 1883 1348.5 c 128,-1,28
 1880 1285 1880 1285 1879.5 1226 c 128,-1,29
 1879 1167 1879 1167 1878 1127 c 1,0,1
1735 1131 m 1,30,31
 1735 1171 1735 1171 1734 1229.5 c 128,-1,32
 1733 1288 1733 1288 1730 1352 c 128,-1,33
 1727 1416 1727 1416 1720 1478 c 128,-1,34
 1713 1540 1713 1540 1699 1586 c 0,35,36
 1660 1719 1660 1719 1597.5 1827.5 c 128,-1,37
 1535 1936 1535 1936 1452 2018 c 0,38,39
 1409 2061 1409 2061 1342 2100.5 c 128,-1,40
 1275 2140 1275 2140 1187 2173 c 1,41,42
 991 2253 991 2253 802 2253 c 0,43,44
 488 2253 488 2253 333 2028 c 1,45,46
 247 1908 247 1908 247 1729 c 0,47,48
 247 1631 247 1631 272 1549.5 c 128,-1,49
 297 1468 297 1468 344 1405 c 0,50,51
 369 1371 369 1371 422 1325 c 128,-1,52
 475 1279 475 1279 537.5 1229 c 128,-1,53
 600 1179 600 1179 663.5 1127.5 c 128,-1,54
 727 1076 727 1076 775 1031 c 1,55,56
 863 1051 863 1051 959.5 1068.5 c 128,-1,57
 1056 1086 1056 1086 1171 1099 c 128,-1,58
 1286 1112 1286 1112 1424.5 1120.5 c 128,-1,59
 1563 1129 1563 1129 1735 1131 c 1,30,31
827 591 m 1,60,-1
 764 362 l 1,61,62
 851 387 851 387 964.5 408 c 128,-1,63
 1078 429 1078 429 1212 443.5 c 128,-1,64
 1346 458 1346 458 1497 466 c 128,-1,65
 1648 474 1648 474 1809 474 c 0,66,67
 1968 474 1968 474 2117.5 466.5 c 128,-1,68
 2267 459 2267 459 2399.5 444.5 c 128,-1,69
 2532 430 2532 430 2645.5 409.5 c 128,-1,70
 2759 389 2759 389 2847 364 c 1,71,-1
 2788 594 l 1,72,-1
 2844 885 l 1,73,74
 2752 909 2752 909 2638.5 928 c 128,-1,75
 2525 947 2525 947 2393.5 960.5 c 128,-1,76
 2262 974 2262 974 2114 981 c 128,-1,77
 1966 988 1966 988 1806 988 c 0,78,79
 1647 988 1647 988 1499.5 981 c 128,-1,80
 1352 974 1352 974 1220.5 961.5 c 128,-1,81
 1089 949 1089 949 975 929.5 c 128,-1,82
 861 910 861 910 768 885 c 1,83,-1
 827 591 l 1,60,-1
1877 2671 m 1,84,-1
 1735 2673 l 1,85,-1
 1735 2933 l 1,86,-1
 1568 2933 l 2,87,88
 1541 2933 1541 2933 1520.5 2953 c 128,-1,89
 1500 2973 1500 2973 1500 3001 c 1,90,-1
 1500 3001 l 1,91,92
 1500 3029 1500 3029 1520.5 3049 c 128,-1,93
 1541 3069 1541 3069 1568 3069 c 2,94,-1
 1735 3069 l 1,95,-1
 1735 3238 l 2,96,97
 1735 3267 1735 3267 1755.5 3288 c 128,-1,98
 1776 3309 1776 3309 1806 3309 c 1,99,-1
 1806 3309 l 1,100,101
 1836 3309 1836 3309 1856.5 3288 c 128,-1,102
 1877 3267 1877 3267 1877 3238 c 2,103,-1
 1877 3069 l 1,104,-1
 2048 3069 l 2,105,106
 2075 3069 2075 3069 2095 3049 c 128,-1,107
 2115 3029 2115 3029 2115 3001 c 1,108,-1
 2115 3001 l 1,109,110
 2115 2973 2115 2973 2095 2953 c 128,-1,111
 2075 2933 2075 2933 2048 2933 c 2,112,-1
 1879 2932 l 1,113,-1
 1877 2671 l 1,84,-1
1807 1632 m 1,114,115
 1812 1649 1812 1649 1817 1668.5 c 128,-1,116
 1822 1688 1822 1688 1831 1711 c 1,117,118
 1840 1745 1840 1745 1851 1777.5 c 128,-1,119
 1862 1810 1862 1810 1876 1843 c 128,-1,120
 1890 1876 1890 1876 1912.5 1921.5 c 128,-1,121
 1935 1967 1935 1967 1961 2023 c 0,122,123
 1977 2058 1977 2058 1995 2108 c 128,-1,124
 2013 2158 2013 2158 2030 2205 c 0,125,126
 2037 2223 2037 2223 2041.5 2245 c 128,-1,127
 2046 2267 2046 2267 2046 2290 c 0,128,129
 2046 2339 2046 2339 2027.5 2382.5 c 128,-1,130
 2009 2426 2009 2426 1976.5 2458 c 128,-1,131
 1944 2490 1944 2490 1900.5 2508.5 c 128,-1,132
 1857 2527 1857 2527 1807 2527 c 0,133,134
 1758 2526 1758 2526 1714 2507 c 128,-1,135
 1670 2488 1670 2488 1637.5 2456 c 128,-1,136
 1605 2424 1605 2424 1586.5 2380.5 c 128,-1,137
 1568 2337 1568 2337 1568 2288 c 0,138,139
 1568 2265 1568 2265 1572.5 2243 c 128,-1,140
 1577 2221 1577 2221 1584 2203 c 0,141,142
 1601 2156 1601 2156 1619 2106 c 128,-1,143
 1637 2056 1637 2056 1653 2021 c 0,144,145
 1679 1965 1679 1965 1701.5 1919.5 c 128,-1,146
 1724 1874 1724 1874 1738 1841 c 0,147,148
 1753 1808 1753 1808 1763.5 1775.5 c 128,-1,149
 1774 1743 1774 1743 1783 1709 c 1,150,151
 1792 1686 1792 1686 1797 1666.5 c 128,-1,152
 1802 1647 1802 1647 1807 1632 c 1,114,115
2898 175 m 1,153,154
 2811 211 2811 211 2694.5 240 c 128,-1,155
 2578 269 2578 269 2439 289 c 128,-1,156
 2300 309 2300 309 2142 320 c 128,-1,157
 1984 331 1984 331 1815 331 c 0,158,159
 1641 331 1641 331 1479.5 319.5 c 128,-1,160
 1318 308 1318 308 1176.5 287.5 c 128,-1,161
 1035 267 1035 267 918.5 237.5 c 128,-1,162
 802 208 802 208 718 172 c 1,163,164
 797 140 797 140 911.5 114 c 128,-1,165
 1026 88 1026 88 1166.5 70 c 128,-1,166
 1307 52 1307 52 1470 41.5 c 128,-1,167
 1633 31 1633 31 1809 31 c 128,-1,168
 1985 31 1985 31 2147.5 41.5 c 128,-1,169
 2310 52 2310 52 2451 70.5 c 128,-1,170
 2592 89 2592 89 2705.5 116 c 128,-1,171
 2819 143 2819 143 2898 175 c 1,153,154
684 598 m 1,172,-1
 619 971 l 1,173,174
 618 972 618 972 616 974 c 128,-1,175
 614 976 614 976 612 979 c 0,176,177
 607 987 607 987 592.5 996 c 128,-1,178
 578 1005 578 1005 556 1018 c 128,-1,179
 534 1031 534 1031 506 1050 c 128,-1,180
 478 1069 478 1069 446 1096 c 0,181,182
 403 1133 403 1133 370 1162 c 128,-1,183
 337 1191 337 1191 310.5 1216.5 c 128,-1,184
 284 1242 284 1242 262.5 1265.5 c 128,-1,185
 241 1289 241 1289 221 1316 c 0,186,187
 192 1357 192 1357 168.5 1400.5 c 128,-1,188
 145 1444 145 1444 127.5 1493.5 c 128,-1,189
 110 1543 110 1543 99 1599.5 c 128,-1,190
 88 1656 88 1656 84 1723 c 0,191,192
 79 1789 79 1789 90.5 1849.5 c 128,-1,193
 102 1910 102 1910 126.5 1966 c 128,-1,194
 151 2022 151 2022 187.5 2075 c 128,-1,195
 224 2128 224 2128 271 2180 c 0,196,197
 321 2236 321 2236 384 2278 c 128,-1,198
 447 2320 447 2320 519 2347 c 128,-1,199
 591 2374 591 2374 670.5 2386 c 128,-1,200
 750 2398 750 2398 832 2395 c 0,201,202
 897 2392 897 2392 971.5 2376.5 c 128,-1,203
 1046 2361 1046 2361 1142 2329 c 0,204,205
 1201 2308 1201 2308 1263 2284 c 128,-1,206
 1325 2260 1325 2260 1383 2235 c 0,207,208
 1395 2230 1395 2230 1410 2221.5 c 128,-1,209
 1425 2213 1425 2213 1439 2204 c 1,210,211
 1434 2224 1434 2224 1431.5 2245 c 128,-1,212
 1429 2266 1429 2266 1429 2288 c 0,213,214
 1429 2365 1429 2365 1458.5 2434 c 128,-1,215
 1488 2503 1488 2503 1539.5 2554 c 128,-1,216
 1591 2605 1591 2605 1659.5 2635 c 128,-1,217
 1728 2665 1728 2665 1806 2665 c 0,218,219
 1884 2666 1884 2666 1952.5 2636.5 c 128,-1,220
 2021 2607 2021 2607 2072 2555.5 c 128,-1,221
 2123 2504 2123 2504 2153 2435.5 c 128,-1,222
 2183 2367 2183 2367 2183 2289 c 0,223,224
 2183 2268 2183 2268 2180.5 2246.5 c 128,-1,225
 2178 2225 2178 2225 2173 2205 c 1,226,227
 2188 2215 2188 2215 2202.5 2223.5 c 128,-1,228
 2217 2232 2217 2232 2229 2237 c 0,229,230
 2287 2261 2287 2261 2349 2285 c 128,-1,231
 2411 2309 2411 2309 2469 2331 c 1,232,233
 2566 2363 2566 2363 2640.5 2378 c 128,-1,234
 2715 2393 2715 2393 2780 2396 c 0,235,236
 2863 2400 2863 2400 2942 2388 c 128,-1,237
 3021 2376 3021 2376 3093 2349 c 128,-1,238
 3165 2322 3165 2322 3228 2280 c 128,-1,239
 3291 2238 3291 2238 3341 2182 c 0,240,241
 3388 2130 3388 2130 3424.5 2076.5 c 128,-1,242
 3461 2023 3461 2023 3485.5 1967 c 128,-1,243
 3510 1911 3510 1911 3521.5 1850.5 c 128,-1,244
 3533 1790 3533 1790 3528 1724 c 0,245,246
 3524 1658 3524 1658 3513 1601.5 c 128,-1,247
 3502 1545 3502 1545 3484.5 1495.5 c 128,-1,248
 3467 1446 3467 1446 3443.5 1402.5 c 128,-1,249
 3420 1359 3420 1359 3391 1318 c 0,250,251
 3371 1291 3371 1291 3349.5 1267.5 c 128,-1,252
 3328 1244 3328 1244 3301.5 1218.5 c 128,-1,253
 3275 1193 3275 1193 3242 1164 c 128,-1,254
 3209 1135 3209 1135 3166 1098 c 0,255,256
 3134 1070 3134 1070 3106 1051.5 c 128,-1,257
 3078 1033 3078 1033 3055.5 1019.5 c 128,-1,258
 3033 1006 3033 1006 3018.5 997.5 c 128,-1,259
 3004 989 3004 989 3000 981 c 0,260,261
 2999 979 2999 979 2997 977 c 128,-1,262
 2995 975 2995 975 2995 973 c 1,263,-1
 2929 597 l 1,264,-1
 3062 102 l 1,265,266
 3013 58 3013 58 2896.5 21 c 128,-1,267
 2780 -16 2780 -16 2614.5 -43.5 c 128,-1,268
 2449 -71 2449 -71 2243.5 -87 c 128,-1,269
 2038 -103 2038 -103 1810 -103 c 0,270,271
 1579 -103 1579 -103 1370.5 -87 c 128,-1,272
 1162 -71 1162 -71 995.5 -42 c 128,-1,273
 829 -13 829 -13 713.5 25.5 c 128,-1,274
 598 64 598 64 553 110 c 1,275,-1
 684 598 l 1,172,-1
EndSplineSet
EndChar
StartChar: section
Encoding: 167 167 70
Width: 2736
GlyphClass: 2
Flags: W
Fore
206 0 m 1,0,-1
 206 2798 l 1,1,-1
 406 2798 l 1,2,-1
 406 206 l 1,3,-1
 2460 206 l 1,4,-1
 2460 0 l 1,5,-1
 206 0 l 1,0,-1
EndSplineSet
EndChar
StartChar: dieresis
Encoding: 168 168 71
Width: 2503
GlyphClass: 2
Flags: W
Fore
1223 134 m 1,0,-1
 2205 134 l 1,1,2
 2225 202 2225 202 2236 272.5 c 128,-1,3
 2247 343 2247 343 2247 417 c 0,4,5
 2247 574 2247 574 2201.5 718 c 128,-1,6
 2156 862 2156 862 2074.5 984 c 128,-1,7
 1993 1106 1993 1106 1880 1201 c 128,-1,8
 1767 1296 1767 1296 1630 1356 c 1,9,10
 1602 1359 1602 1359 1577.5 1371.5 c 128,-1,11
 1553 1384 1553 1384 1535 1403.5 c 128,-1,12
 1517 1423 1517 1423 1507 1448 c 128,-1,13
 1497 1473 1497 1473 1497 1501 c 0,14,15
 1497 1530 1497 1530 1508.5 1554.5 c 128,-1,16
 1520 1579 1520 1579 1539.5 1599 c 128,-1,17
 1559 1619 1559 1619 1583 1633.5 c 128,-1,18
 1607 1648 1607 1648 1631 1656 c 1,19,20
 1672 1686 1672 1686 1706 1723 c 128,-1,21
 1740 1760 1740 1760 1765 1804 c 128,-1,22
 1790 1848 1790 1848 1803.5 1897.5 c 128,-1,23
 1817 1947 1817 1947 1817 2000 c 0,24,25
 1817 2078 1817 2078 1789 2147.5 c 128,-1,26
 1761 2217 1761 2217 1713 2271.5 c 128,-1,27
 1665 2326 1665 2326 1600.5 2361 c 128,-1,28
 1536 2396 1536 2396 1461 2406 c 0,29,30
 1437 2408 1437 2408 1415 2419.5 c 128,-1,31
 1393 2431 1393 2431 1377 2449 c 128,-1,32
 1361 2467 1361 2467 1351.5 2490.5 c 128,-1,33
 1342 2514 1342 2514 1342 2540 c 0,34,35
 1342 2570 1342 2570 1354 2596.5 c 128,-1,36
 1366 2623 1366 2623 1386 2645 c 1,37,38
 1435 2685 1435 2685 1464.5 2742 c 128,-1,39
 1494 2799 1494 2799 1494 2865 c 0,40,41
 1494 2921 1494 2921 1473 2970.5 c 128,-1,42
 1452 3020 1452 3020 1415 3057 c 128,-1,43
 1378 3094 1378 3094 1328.5 3115 c 128,-1,44
 1279 3136 1279 3136 1223 3136 c 128,-1,45
 1167 3136 1167 3136 1118 3115 c 128,-1,46
 1069 3094 1069 3094 1032 3057 c 128,-1,47
 995 3020 995 3020 973.5 2970.5 c 128,-1,48
 952 2921 952 2921 952 2865 c 0,49,50
 952 2799 952 2799 982 2742 c 128,-1,51
 1012 2685 1012 2685 1060 2645 c 1,52,53
 1080 2623 1080 2623 1092 2596.5 c 128,-1,54
 1104 2570 1104 2570 1104 2540 c 0,55,56
 1104 2514 1104 2514 1094.5 2490.5 c 128,-1,57
 1085 2467 1085 2467 1069 2449 c 128,-1,58
 1053 2431 1053 2431 1031 2419.5 c 128,-1,59
 1009 2408 1009 2408 985 2406 c 0,60,61
 911 2396 911 2396 846 2361 c 128,-1,62
 781 2326 781 2326 733 2271.5 c 128,-1,63
 685 2217 685 2217 657.5 2147.5 c 128,-1,64
 630 2078 630 2078 630 2000 c 0,65,66
 630 1947 630 1947 643.5 1897.5 c 128,-1,67
 657 1848 657 1848 681.5 1804 c 128,-1,68
 706 1760 706 1760 740 1723 c 128,-1,69
 774 1686 774 1686 815 1656 c 1,70,71
 839 1648 839 1648 863.5 1633.5 c 128,-1,72
 888 1619 888 1619 907 1599 c 128,-1,73
 926 1579 926 1579 937.5 1554.5 c 128,-1,74
 949 1530 949 1530 949 1501 c 0,75,76
 949 1473 949 1473 939 1448 c 128,-1,77
 929 1423 929 1423 911 1403.5 c 128,-1,78
 893 1384 893 1384 868.5 1371.5 c 128,-1,79
 844 1359 844 1359 816 1356 c 1,80,81
 680 1296 680 1296 566.5 1201 c 128,-1,82
 453 1106 453 1106 371.5 984 c 128,-1,83
 290 862 290 862 244.5 718 c 128,-1,84
 199 574 199 574 199 417 c 0,85,86
 199 343 199 343 210 272.5 c 128,-1,87
 221 202 221 202 241 134 c 1,88,-1
 1223 134 l 1,0,-1
1223 0 m 1,89,-1
 143 0 l 1,90,91
 105 96 105 96 84.5 201 c 128,-1,92
 64 306 64 306 64 417 c 0,93,94
 64 603 64 603 119.5 771.5 c 128,-1,95
 175 940 175 940 274.5 1081.5 c 128,-1,96
 374 1223 374 1223 511.5 1331 c 128,-1,97
 649 1439 649 1439 814 1501 c 1,98,99
 743 1534 743 1534 684 1585 c 128,-1,100
 625 1636 625 1636 583 1700.5 c 128,-1,101
 541 1765 541 1765 517 1841 c 128,-1,102
 493 1917 493 1917 493 2000 c 0,103,104
 493 2105 493 2105 530.5 2198.5 c 128,-1,105
 568 2292 568 2292 633 2364.5 c 128,-1,106
 698 2437 698 2437 786.5 2484 c 128,-1,107
 875 2531 875 2531 976 2542 c 1,108,109
 903 2598 903 2598 859.5 2682 c 128,-1,110
 816 2766 816 2766 816 2865 c 0,111,112
 816 2950 816 2950 848 3024 c 128,-1,113
 880 3098 880 3098 935 3153 c 128,-1,114
 990 3208 990 3208 1064.5 3240.5 c 128,-1,115
 1139 3273 1139 3273 1223 3273 c 128,-1,116
 1307 3273 1307 3273 1381.5 3240.5 c 128,-1,117
 1456 3208 1456 3208 1511 3153 c 128,-1,118
 1566 3098 1566 3098 1598.5 3024 c 128,-1,119
 1631 2950 1631 2950 1631 2865 c 0,120,121
 1631 2766 1631 2766 1587 2682 c 128,-1,122
 1543 2598 1543 2598 1470 2542 c 1,123,124
 1571 2531 1571 2531 1659.5 2484 c 128,-1,125
 1748 2437 1748 2437 1813 2364.5 c 128,-1,126
 1878 2292 1878 2292 1915.5 2198.5 c 128,-1,127
 1953 2105 1953 2105 1953 2000 c 0,128,129
 1953 1917 1953 1917 1929 1841 c 128,-1,130
 1905 1765 1905 1765 1863 1700.5 c 128,-1,131
 1821 1636 1821 1636 1762 1585 c 128,-1,132
 1703 1534 1703 1534 1632 1501 c 1,133,134
 1797 1439 1797 1439 1934.5 1331 c 128,-1,135
 2072 1223 2072 1223 2171.5 1081.5 c 128,-1,136
 2271 940 2271 940 2326.5 771.5 c 128,-1,137
 2382 603 2382 603 2382 417 c 0,138,139
 2382 306 2382 306 2361.5 201 c 128,-1,140
 2341 96 2341 96 2303 0 c 1,141,-1
 1223 0 l 1,89,-1
EndSplineSet
EndChar
StartChar: copyright
Encoding: 169 169 72
Width: 2961
GlyphClass: 2
Flags: W
Fore
3000 613 m 1,0,-1
 3000 0 l 1,1,-1
 136 0 l 1,2,-1
 136 613 l 2,3,4
 136 761 136 761 165 901.5 c 128,-1,5
 194 1042 194 1042 248.5 1171 c 128,-1,6
 303 1300 303 1300 381 1415 c 128,-1,7
 459 1530 459 1530 557 1627.5 c 128,-1,8
 655 1725 655 1725 770 1803 c 128,-1,9
 885 1881 885 1881 1013.5 1935.5 c 128,-1,10
 1142 1990 1142 1990 1282.5 2019.5 c 128,-1,11
 1423 2049 1423 2049 1572 2049 c 0,12,13
 1720 2049 1720 2049 1860.5 2019.5 c 128,-1,14
 2001 1990 2001 1990 2129.5 1935.5 c 128,-1,15
 2258 1881 2258 1881 2372.5 1803 c 128,-1,16
 2487 1725 2487 1725 2584 1627.5 c 128,-1,17
 2681 1530 2681 1530 2758.5 1415 c 128,-1,18
 2836 1300 2836 1300 2890 1171 c 128,-1,19
 2944 1042 2944 1042 2972.5 901.5 c 128,-1,20
 3001 761 3001 761 3000 613 c 1,0,-1
2801 613 m 2,21,22
 2801 740 2801 740 2776 860.5 c 128,-1,23
 2751 981 2751 981 2704 1091 c 128,-1,24
 2657 1201 2657 1201 2590.5 1299.5 c 128,-1,25
 2524 1398 2524 1398 2440.5 1481.5 c 128,-1,26
 2357 1565 2357 1565 2258.5 1632 c 128,-1,27
 2160 1699 2160 1699 2049.5 1746 c 128,-1,28
 1939 1793 1939 1793 1819 1818 c 128,-1,29
 1699 1843 1699 1843 1572 1843 c 128,-1,30
 1445 1843 1445 1843 1324.5 1818 c 128,-1,31
 1204 1793 1204 1793 1093.5 1746 c 128,-1,32
 983 1699 983 1699 884.5 1632 c 128,-1,33
 786 1565 786 1565 702.5 1481.5 c 128,-1,34
 619 1398 619 1398 552 1299.5 c 128,-1,35
 485 1201 485 1201 438.5 1091 c 128,-1,36
 392 981 392 981 367 860.5 c 128,-1,37
 342 740 342 740 342 613 c 2,38,-1
 342 206 l 1,39,-1
 2801 206 l 1,40,-1
 2801 613 l 2,21,22
EndSplineSet
EndChar
StartChar: ordfeminine
Encoding: 170 170 73
Width: 2961
GlyphClass: 2
Flags: W
Fore
2019 198 m 2,0,1
 2020 198 2020 198 2020 215.5 c 128,-1,2
 2020 233 2020 233 2020 258.5 c 128,-1,3
 2020 284 2020 284 2019.5 313 c 128,-1,4
 2019 342 2019 342 2019 366 c 2,5,-1
 2019 506 l 2,6,7
 2019 582 2019 582 2008.5 639 c 128,-1,8
 1998 696 1998 696 1980 733 c 0,9,10
 1962 772 1962 772 1913.5 830 c 128,-1,11
 1865 888 1865 888 1790 965 c 2,12,-1
 1530 1230 l 1,13,14
 1376 1391 1376 1391 1376 1476 c 0,15,16
 1376 1507 1376 1507 1419 1569 c 128,-1,17
 1462 1631 1462 1631 1546 1719 c 1,18,-1
 1770 1946 l 1,19,20
 1853 2032 1853 2032 1905 2093 c 128,-1,21
 1957 2154 1957 2154 1976 2190 c 0,22,23
 1996 2225 1996 2225 2006 2277 c 128,-1,24
 2016 2329 2016 2329 2016 2393 c 1,25,-1
 2019 2662 l 1,26,-1
 449 2662 l 1,27,-1
 449 2392 l 2,28,29
 449 2327 449 2327 461.5 2276 c 128,-1,30
 474 2225 474 2225 488 2190 c 0,31,32
 503 2152 503 2152 557 2092 c 128,-1,33
 611 2032 611 2032 692 1946 c 1,34,-1
 918 1719 l 1,35,36
 1002 1631 1002 1631 1045 1567 c 128,-1,37
 1088 1503 1088 1503 1088 1466 c 128,-1,38
 1088 1429 1088 1429 1049 1369.5 c 128,-1,39
 1010 1310 1010 1310 932 1230 c 2,40,-1
 672 965 l 2,41,42
 597 888 597 888 550.5 830 c 128,-1,43
 504 772 504 772 486 735 c 0,44,45
 468 696 468 696 458.5 639.5 c 128,-1,46
 449 583 449 583 449 506 c 2,47,-1
 449 362 l 2,48,49
 449 331 449 331 449 301.5 c 128,-1,50
 449 272 449 272 449 249.5 c 128,-1,51
 449 227 449 227 449 212 c 0,52,53
 449 199 449 199 449 198 c 1,54,-1
 2019 198 l 2,0,1
2111 198 m 1,55,-1
 2154 198 l 2,56,57
 2175 198 2175 198 2193 190.5 c 128,-1,58
 2211 183 2211 183 2224.5 169.5 c 128,-1,59
 2238 156 2238 156 2246 137.5 c 128,-1,60
 2254 119 2254 119 2254 99 c 2,61,-1
 2254 98 l 2,62,63
 2254 78 2254 78 2246 59.5 c 128,-1,64
 2238 41 2238 41 2224.5 27.5 c 128,-1,65
 2211 14 2211 14 2193 7 c 128,-1,66
 2175 0 2175 0 2154 0 c 2,67,-1
 306 0 l 2,68,69
 285 0 285 0 267 7 c 128,-1,70
 249 14 249 14 235.5 27.5 c 128,-1,71
 222 41 222 41 214 59.5 c 128,-1,72
 206 78 206 78 206 98 c 2,73,-1
 206 99 l 2,74,75
 206 119 206 119 214 137.5 c 128,-1,76
 222 156 222 156 235.5 169.5 c 128,-1,77
 249 183 249 183 267 190.5 c 128,-1,78
 285 198 285 198 306 198 c 2,79,-1
 349 198 l 1,80,-1
 349 467 l 2,81,82
 349 561 349 561 362.5 637.5 c 128,-1,83
 376 714 376 714 400 770 c 0,84,85
 424 827 424 827 475 897 c 128,-1,86
 526 967 526 967 602 1047 c 2,87,-1
 866 1325 l 2,88,89
 929 1391 929 1391 960.5 1435.5 c 128,-1,90
 992 1480 992 1480 992 1500 c 128,-1,91
 992 1520 992 1520 953.5 1570.5 c 128,-1,92
 915 1621 915 1621 838 1697 c 1,93,-1
 574 1969 l 2,94,95
 508 2037 508 2037 462.5 2101 c 128,-1,96
 417 2165 417 2165 396 2222 c 0,97,98
 386 2250 386 2250 377 2303 c 128,-1,99
 368 2356 368 2356 361.5 2419 c 128,-1,100
 355 2482 355 2482 352 2546.5 c 128,-1,101
 349 2611 349 2611 349 2662 c 1,102,-1
 306 2662 l 2,103,104
 286 2662 286 2662 267.5 2670 c 128,-1,105
 249 2678 249 2678 235.5 2691.5 c 128,-1,106
 222 2705 222 2705 214 2723 c 128,-1,107
 206 2741 206 2741 206 2762 c 128,-1,108
 206 2783 206 2783 214 2801 c 128,-1,109
 222 2819 222 2819 235.5 2832.5 c 128,-1,110
 249 2846 249 2846 267 2854 c 128,-1,111
 285 2862 285 2862 306 2862 c 2,112,-1
 2154 2862 l 2,113,114
 2175 2862 2175 2862 2193 2854 c 128,-1,115
 2211 2846 2211 2846 2224.5 2832.5 c 128,-1,116
 2238 2819 2238 2819 2246 2801 c 128,-1,117
 2254 2783 2254 2783 2254 2762 c 128,-1,118
 2254 2741 2254 2741 2246 2723 c 128,-1,119
 2238 2705 2238 2705 2224.5 2691.5 c 128,-1,120
 2211 2678 2211 2678 2193 2670 c 128,-1,121
 2175 2662 2175 2662 2154 2662 c 2,122,-1
 2111 2662 l 1,123,124
 2111 2611 2111 2611 2108.5 2546.5 c 128,-1,125
 2106 2482 2106 2482 2100.5 2419 c 128,-1,126
 2095 2356 2095 2356 2087 2303 c 128,-1,127
 2079 2250 2079 2250 2068 2222 c 0,128,129
 2046 2165 2046 2165 2000 2101 c 128,-1,130
 1954 2037 1954 2037 1888 1969 c 2,131,-1
 1624 1697 l 2,132,133
 1549 1621 1549 1621 1510.5 1570.5 c 128,-1,134
 1472 1520 1472 1520 1472 1500 c 128,-1,135
 1472 1480 1472 1480 1503.5 1435.5 c 128,-1,136
 1535 1391 1535 1391 1596 1325 c 1,137,-1
 1860 1047 l 2,138,139
 1937 967 1937 967 1988 897 c 128,-1,140
 2039 827 2039 827 2062 772 c 0,141,142
 2087 715 2087 715 2099 637.5 c 128,-1,143
 2111 560 2111 560 2111 464 c 2,144,-1
 2111 198 l 1,55,-1
532 428 m 1,145,146
 547 487 547 487 608 543.5 c 128,-1,147
 669 600 669 600 774 655 c 1,148,-1
 954 744 l 2,149,150
 1038 786 1038 786 1088.5 815.5 c 128,-1,151
 1139 845 1139 845 1154 859 c 0,152,153
 1171 874 1171 874 1191 908 c 128,-1,154
 1211 942 1211 942 1232 992 c 1,155,156
 1253 942 1253 942 1272 908 c 128,-1,157
 1291 874 1291 874 1306 861 c 1,158,159
 1321 845 1321 845 1371 815.5 c 128,-1,160
 1421 786 1421 786 1502 744 c 2,161,-1
 1678 655 l 1,162,163
 1780 600 1780 600 1839.5 543.5 c 128,-1,164
 1899 487 1899 487 1914 428 c 1,165,166
 1788 359 1788 359 1615 323.5 c 128,-1,167
 1442 288 1442 288 1224 288 c 0,168,169
 1005 288 1005 288 831.5 323.5 c 128,-1,170
 658 359 658 359 532 428 c 1,145,146
648 2286 m 1,171,172
 795 2191 795 2191 939 2142 c 128,-1,173
 1083 2093 1083 2093 1224 2093 c 128,-1,174
 1365 2093 1365 2093 1510.5 2142 c 128,-1,175
 1656 2191 1656 2191 1804 2286 c 1,176,177
 1781 2247 1781 2247 1725.5 2181 c 128,-1,178
 1670 2115 1670 2115 1586 2025 c 1,179,-1
 1422 1844 l 2,180,181
 1368 1785 1368 1785 1334 1743 c 128,-1,182
 1300 1701 1300 1701 1288 1679 c 0,183,184
 1276 1655 1276 1655 1266 1610.5 c 128,-1,185
 1256 1566 1256 1566 1250 1501 c 0,186,187
 1248 1482 1248 1482 1243 1451 c 128,-1,188
 1238 1420 1238 1420 1232 1382 c 1,189,190
 1226 1420 1226 1420 1221 1451 c 128,-1,191
 1216 1482 1216 1482 1214 1501 c 0,192,193
 1205 1566 1205 1566 1194.5 1610 c 128,-1,194
 1184 1654 1184 1654 1172 1677 c 0,195,196
 1160 1701 1160 1701 1126 1743 c 128,-1,197
 1092 1785 1092 1785 1036 1844 c 1,198,-1
 868 2025 l 1,199,200
 783 2115 783 2115 728 2181 c 128,-1,201
 673 2247 673 2247 648 2286 c 1,171,172
EndSplineSet
EndChar
StartChar: logicalnot
Encoding: 172 172 74
Width: 2736
GlyphClass: 2
Flags: W
Fore
2382 2619 m 1,0,-1
 2382 3005 l 1,1,-1
 2112 3005 l 1,2,-1
 2112 2734 l 1,3,-1
 1493 2734 l 1,4,-1
 1493 3005 l 1,5,-1
 1223 3005 l 1,6,-1
 1223 2734 l 1,7,-1
 605 2734 l 1,8,-1
 605 3005 l 1,9,-1
 335 3005 l 1,10,-1
 335 2619 l 1,11,-1
 711 2318 l 1,12,-1
 2009 2318 l 1,13,-1
 2382 2619 l 1,0,-1
1938 2183 m 1,14,-1
 779 2183 l 1,15,-1
 779 1226 l 1,16,-1
 1938 1226 l 1,17,-1
 1938 2183 l 1,14,-1
2279 837 m 1,18,-1
 2023 1091 l 1,19,-1
 694 1091 l 1,20,-1
 438 837 l 1,21,-1
 438 477 l 1,22,-1
 2279 477 l 1,23,-1
 2279 837 l 1,18,-1
2517 342 m 1,24,-1
 199 342 l 1,25,-1
 199 134 l 1,26,-1
 2517 134 l 1,27,-1
 2517 342 l 1,24,-1
1628 2862 m 1,28,-1
 1969 2862 l 1,29,-1
 1969 3140 l 1,30,-1
 2524 3140 l 1,31,-1
 2521 2526 l 1,32,-1
 2076 2183 l 1,33,-1
 2076 1226 l 1,34,-1
 2417 887 l 1,35,-1
 2417 477 l 1,36,-1
 2659 477 l 1,37,-1
 2659 0 l 1,38,-1
 64 0 l 1,39,-1
 64 477 l 1,40,-1
 299 477 l 1,41,-1
 299 887 l 1,42,-1
 640 1226 l 1,43,-1
 640 2183 l 1,44,-1
 199 2526 l 1,45,-1
 199 3140 l 1,46,-1
 747 3140 l 1,47,-1
 747 2862 l 1,48,-1
 1088 2862 l 1,49,-1
 1088 3140 l 1,50,-1
 1628 3140 l 1,51,-1
 1628 2862 l 1,28,-1
EndSplineSet
EndChar
StartChar: registered
Encoding: 174 174 75
Width: 2961
GlyphClass: 2
Flags: W
Fore
1024 2798 m 1,0,-1
 2936 2798 l 1,1,-1
 2936 884 l 1,2,-1
 2048 884 l 1,3,-1
 2048 0 l 1,4,-1
 136 0 l 1,5,-1
 136 1912 l 1,6,-1
 1024 1912 l 1,7,-1
 1024 2798 l 1,0,-1
EndSplineSet
EndChar
StartChar: plusminus
Encoding: 177 177 76
Width: 2310
GlyphClass: 2
Flags: W
Fore
79 1588 m 1,0,-1
 79 1796 l 1,1,-1
 2232 1796 l 1,2,-1
 2232 1588 l 1,3,-1
 79 1588 l 1,0,-1
79 2202 m 1,4,-1
 79 2410 l 1,5,-1
 2232 2410 l 1,6,-1
 2232 2202 l 1,7,-1
 79 2202 l 1,4,-1
963 620 m 1,8,9
 780 896 780 896 471 902 c 0,10,11
 361 904 361 904 277 862 c 0,12,13
 193 819 193 819 151 746 c 0,14,15
 129 710 129 710 117 668 c 128,-1,16
 105 626 105 626 104 581 c 0,17,18
 102 447 102 447 193 360 c 0,19,20
 238 318 238 318 298 292.5 c 128,-1,21
 358 267 358 267 433 261 c 1,22,23
 518 267 518 267 589.5 293 c 128,-1,24
 661 319 661 319 717 363 c 0,25,26
 831 451 831 451 963 620 c 1,8,9
1212 472 m 1,27,28
 1390 245 1390 245 1715 222 c 1,29,30
 1924 233 1924 233 2063 323 c 1,31,32
 2202 415 2202 415 2205 596 c 0,33,34
 2207 740 2207 740 2102 830 c 0,35,36
 1996 922 1996 922 1816 925 c 1,37,38
 1767 924 1767 924 1724.5 916 c 128,-1,39
 1682 908 1682 908 1647 894 c 0,40,41
 1611 879 1611 879 1568 847.5 c 128,-1,42
 1525 816 1525 816 1475 768 c 128,-1,43
 1425 720 1425 720 1359 646.5 c 128,-1,44
 1293 573 1293 573 1212 472 c 1,27,28
1757 0 m 1,45,46
 1690 0 1690 0 1631.5 12.5 c 128,-1,47
 1573 25 1573 25 1523 48 c 0,48,49
 1474 72 1474 72 1428.5 104 c 128,-1,50
 1383 136 1383 136 1343 176 c 0,51,52
 1302 216 1302 216 1253 271 c 128,-1,53
 1204 326 1204 326 1148 396 c 1,54,55
 1134 384 1134 384 1106 357.5 c 128,-1,56
 1078 331 1078 331 1038 290 c 128,-1,57
 998 249 998 249 960.5 216.5 c 128,-1,58
 923 184 923 184 890 158 c 0,59,60
 856 132 856 132 814.5 110.5 c 128,-1,61
 773 89 773 89 725 72 c 128,-1,62
 677 55 677 55 623 46.5 c 128,-1,63
 569 38 569 38 510 39 c 0,64,65
 397 41 397 41 300 88 c 0,66,67
 251 111 251 111 210.5 143 c 128,-1,68
 170 175 170 175 136 214 c 0,69,70
 103 254 103 254 77.5 299 c 128,-1,71
 52 344 52 344 34 392 c 1,72,73
 0 491 0 491 2 597 c 0,74,75
 3 671 3 671 17.5 737 c 128,-1,76
 32 803 32 803 58 860 c 0,77,78
 112 977 112 977 222 1044 c 0,79,80
 333 1112 333 1112 489 1111 c 0,81,82
 541 1110 541 1110 592 1097.5 c 128,-1,83
 643 1085 643 1085 693 1061 c 0,84,85
 743 1038 743 1038 789.5 1002 c 128,-1,86
 836 966 836 966 879 920 c 0,87,88
 921 873 921 873 957.5 818.5 c 128,-1,89
 994 764 994 764 1024 701 c 1,90,91
 1056 737 1056 737 1091 775.5 c 128,-1,92
 1126 814 1126 814 1162 854 c 128,-1,93
 1198 894 1198 894 1237 931 c 128,-1,94
 1276 968 1276 968 1318 1003 c 128,-1,95
 1360 1038 1360 1038 1410.5 1066 c 128,-1,96
 1461 1094 1461 1094 1518 1116 c 0,97,98
 1575 1139 1575 1139 1638.5 1149.5 c 128,-1,99
 1702 1160 1702 1160 1772 1159 c 0,100,101
 1943 1154 1943 1154 2066 1073 c 0,102,103
 2128 1033 2128 1033 2174 980 c 128,-1,104
 2220 927 2220 927 2250 861 c 0,105,106
 2311 728 2311 728 2308 572 c 1,107,108
 2298 329 2298 329 2162 169 c 0,109,110
 2025 8 2025 8 1757 0 c 1,45,46
EndSplineSet
EndChar
